<?xml version="1.0" encoding="UTF-8" standalone="no"?>
<svg xmlns="http://www.w3.org/2000/svg" version="1.1" viewBox="0.00 0.00 1920.00 1080.00">
  <path fill="#27aae1" d="   M 578.15 105.84   C 590.19 104.29 603.39 103.26 615.00 102.98   C 618.65 102.89 622.68 104.66 623.28 108.52   Q 623.59 110.49 622.18 114.16   Q 618.19 124.56 612.22 141.97   Q 611.88 142.97 610.42 144.44   Q 607.32 147.59 602.82 149.11   Q 600.51 149.90 594.13 150.06   Q 576.51 150.50 557.78 152.50   C 552.68 153.04 547.36 150.94 549.99 144.49   Q 551.55 140.66 559.24 122.00   Q 562.44 114.25 564.96 111.82   Q 570.08 106.88 578.15 105.84   Z"></path>
  <path fill="#27aae1" d="   M 1326.85 104.20   Q 1341.18 105.39 1346.42 106.59   Q 1352.13 107.90 1356.79 112.87   Q 1358.58 114.78 1361.79 122.61   Q 1367.51 136.59 1370.36 143.74   C 1371.71 147.16 1372.00 150.46 1368.18 151.92   Q 1365.88 152.80 1363.31 152.53   Q 1342.91 150.39 1325.95 150.06   Q 1320.36 149.95 1317.81 149.08   C 1313.66 147.66 1309.87 145.39 1308.18 141.11   Q 1307.02 138.17 1298.84 114.87   Q 1297.17 110.11 1297.50 108.47   Q 1298.30 104.53 1303.09 103.27   Q 1304.42 102.92 1306.88 103.00   Q 1316.33 103.31 1326.85 104.20   Z"></path>
  <path fill="#27aae1" d="   M 647.73 152.09   Q 643.69 151.60 628.77 150.54   Q 626.70 150.39 624.16 148.87   C 620.27 146.54 620.20 143.16 621.64 139.06   Q 627.62 122.05 629.88 115.20   Q 631.77 109.48 633.82 107.56   Q 637.17 104.42 642.00 103.44   Q 643.80 103.07 647.78 103.29   Q 664.93 104.24 682.48 106.80   C 686.67 107.41 690.93 109.97 691.77 114.40   Q 692.13 116.31 690.95 120.54   Q 684.52 143.53 684.01 145.52   Q 682.97 149.52 681.23 151.09   Q 676.50 155.37 670.64 154.79   Q 667.64 154.49 647.73 152.09   Z"></path>
  <path fill="#27aae1" d="   M 1274.26 103.40   Q 1281.60 103.01 1286.67 107.70   Q 1288.78 109.65 1290.47 114.51   Q 1296.28 131.22 1299.57 141.40   C 1301.32 146.81 1296.59 150.53 1291.75 150.88   Q 1269.36 152.52 1250.52 155.28   Q 1247.91 155.66 1243.85 154.39   Q 1240.61 153.36 1238.65 150.89   Q 1237.65 149.63 1236.46 145.34   Q 1230.06 122.20 1229.57 120.40   Q 1228.46 116.34 1228.85 114.48   C 1229.79 109.97 1233.74 107.66 1238.30 106.98   Q 1255.62 104.41 1274.26 103.40   Z"></path>
  <path fill="#27aae1" d="   M 759.12 137.79   C 756.61 150.29 755.22 157.84 753.97 163.94   C 753.11 168.11 751.15 170.64 746.91 171.31   Q 743.35 171.88 740.82 171.11   Q 719.15 164.55 700.85 160.42   C 696.85 159.51 692.70 156.42 692.06 152.17   Q 691.77 150.22 692.89 146.04   Q 699.14 122.74 700.17 119.13   C 701.38 114.84 705.35 112.64 709.40 112.07   Q 711.47 111.78 716.59 112.93   Q 733.23 116.69 750.16 122.12   C 754.43 123.49 758.21 126.81 759.36 131.18   Q 759.98 133.51 759.12 137.79   Z"></path>
  <path fill="#27aae1" d="   M 1161.26 135.78   C 1160.40 131.45 1162.63 127.23 1165.94 124.63   Q 1167.79 123.17 1172.93 121.57   Q 1191.79 115.68 1208.09 112.33   C 1211.87 111.56 1216.82 113.35 1219.29 116.45   Q 1220.29 117.70 1221.47 122.18   Q 1225.86 138.79 1228.25 146.93   Q 1229.31 150.54 1229.06 152.25   C 1228.29 157.54 1223.48 160.10 1218.77 161.17   Q 1200.70 165.28 1181.06 171.31   C 1176.27 172.78 1169.09 172.03 1167.58 166.26   Q 1166.50 162.12 1161.26 135.78   Z"></path>
  <path fill="#27aae1" d="   M 820.79 198.07   C 818.08 200.99 813.11 200.44 809.61 198.80   Q 790.92 190.05 769.76 181.77   Q 767.34 180.83 764.37 177.43   Q 760.73 173.28 761.69 168.15   Q 762.14 165.74 767.01 140.68   Q 767.80 136.57 768.85 135.29   C 771.46 132.09 775.69 131.61 779.70 132.98   Q 790.79 136.75 815.99 148.63   Q 823.40 152.12 825.83 159.42   Q 826.68 162.00 826.14 166.26   Q 825.05 174.72 822.56 192.81   Q 822.02 196.74 820.79 198.07   Z"></path>
  <path fill="#27aae1" d="   M 1097.41 189.54   Q 1094.84 169.80 1094.12 164.26   C 1093.52 159.61 1096.22 154.90 1099.48 151.83   Q 1101.31 150.10 1106.67 147.58   Q 1125.25 138.84 1140.65 132.88   C 1144.09 131.54 1148.82 132.16 1151.37 135.01   Q 1152.51 136.30 1153.32 140.42   Q 1156.96 158.92 1158.92 169.10   Q 1159.29 171.06 1158.17 173.76   C 1156.18 178.51 1152.62 180.86 1147.43 182.87   Q 1129.18 189.95 1112.53 197.77   Q 1109.11 199.38 1107.19 199.64   C 1103.50 200.15 1099.75 199.52 1098.40 195.63   Q 1098.08 194.72 1097.41 189.54   Z"></path>
  <path fill="#27aae1" d="   M 575.33 157.41   Q 588.11 156.60 596.34 156.78   C 599.58 156.85 603.32 158.92 604.09 162.40   Q 604.47 164.09 603.35 167.18   Q 596.97 184.70 594.16 193.09   Q 592.92 196.76 591.04 198.45   Q 587.94 201.23 583.73 202.65   Q 581.33 203.45 575.62 203.49   Q 555.62 203.62 535.86 205.44   Q 534.67 205.55 533.21 205.30   C 530.47 204.82 527.87 203.82 527.28 200.91   Q 526.98 199.44 528.22 196.52   Q 535.56 179.31 538.70 171.28   Q 540.26 167.28 542.52 165.13   Q 546.81 161.05 552.62 159.46   Q 554.62 158.91 563.96 158.17   Q 565.63 158.03 575.33 157.41   Z"></path>
  <path fill="#27aae1" d="   M 1357.81 158.18   Q 1364.71 158.78 1366.50 159.11   Q 1372.84 160.26 1377.82 164.66   Q 1379.91 166.50 1382.13 171.81   Q 1391.78 194.89 1392.77 197.52   Q 1394.86 203.09 1389.12 205.12   Q 1387.14 205.82 1382.75 205.45   Q 1362.06 203.67 1343.01 203.72   C 1337.83 203.73 1331.94 201.66 1328.54 197.54   Q 1327.48 196.25 1326.53 193.56   Q 1323.95 186.26 1316.62 165.20   Q 1316.28 164.21 1316.61 162.32   C 1317.25 158.58 1321.46 156.84 1325.03 156.77   Q 1338.57 156.51 1357.81 158.18   Z"></path>
  <path fill="#d1d3d4" d="   M 652.59 209.59   C 638.65 207.64 624.77 205.88 610.98 204.83   C 607.36 204.56 603.07 202.17 602.28 198.38   Q 601.90 196.58 603.34 192.43   Q 612.23 166.83 612.64 165.64   Q 613.55 162.98 616.28 161.00   Q 621.86 156.97 628.81 157.54   Q 653.98 159.62 668.00 161.97   C 671.76 162.60 675.42 165.42 676.38 169.17   Q 676.87 171.10 675.68 175.35   Q 671.96 188.60 668.52 200.58   Q 667.31 204.78 665.81 206.16   C 662.31 209.36 657.33 210.26 652.59 209.59   Z"></path>
  <path fill="#27aae1" d="   M 1301.21 205.53   Q 1285.34 207.00 1269.24 209.43   Q 1264.41 210.16 1261.63 209.66   C 1257.51 208.91 1253.60 206.65 1252.42 202.37   Q 1247.96 186.18 1244.61 174.21   Q 1243.82 171.41 1244.18 169.66   C 1244.98 165.78 1248.82 162.69 1252.54 162.05   Q 1268.81 159.24 1291.11 157.56   Q 1300.03 156.90 1305.56 162.03   Q 1307.31 163.64 1308.63 167.45   Q 1310.61 173.13 1317.34 193.04   Q 1318.56 196.65 1318.23 198.25   C 1317.15 203.46 1311.01 205.04 1306.31 205.07   Q 1306.22 205.07 1301.21 205.53   Z"></path>
  <path fill="#27aae1" d="   M 892.14 203.75   Q 890.68 227.84 889.99 235.20   Q 889.61 239.28 884.71 239.13   C 882.81 239.07 880.34 238.07 878.55 236.91   Q 859.29 224.41 840.04 213.96   C 836.56 212.07 832.76 207.55 831.32 203.47   Q 830.53 201.20 831.10 196.48   Q 834.16 171.12 834.23 170.44   Q 834.62 166.55 835.57 165.34   C 838.45 161.68 843.42 162.93 846.93 164.95   Q 867.06 176.57 882.93 187.51   Q 889.10 191.76 892.06 200.92   Q 892.27 201.56 892.14 203.75   Z"></path>
  <path fill="#27aae1" d="   M 1029.94 226.57   Q 1029.03 213.82 1028.53 204.25   C 1028.27 199.44 1030.77 194.92 1034.07 190.82   Q 1036.03 188.39 1042.99 183.85   Q 1062.00 171.44 1074.68 164.40   C 1077.44 162.87 1082.42 162.46 1084.84 165.17   Q 1085.82 166.28 1086.24 169.51   Q 1088.72 188.50 1089.78 198.32   C 1090.32 203.29 1087.90 207.44 1084.51 210.91   Q 1082.61 212.85 1077.32 215.77   Q 1058.95 225.87 1040.75 237.78   Q 1039.86 238.36 1037.14 238.97   Q 1034.89 239.47 1033.44 238.82   Q 1030.92 237.69 1030.61 235.03   Q 1030.42 233.40 1029.94 226.57   Z"></path>
  <path fill="#d1d3d4" d="   M 1220.99 167.72   C 1225.35 166.74 1230.12 167.74 1233.41 170.70   Q 1235.00 172.12 1236.28 176.96   Q 1240.20 191.71 1243.99 204.75   Q 1244.24 205.61 1243.85 207.60   C 1243.02 211.77 1238.28 214.87 1234.49 215.72   Q 1212.41 220.68 1192.24 226.88   Q 1186.78 228.55 1181.90 225.77   C 1179.93 224.64 1179.10 222.79 1178.63 220.50   Q 1173.44 195.12 1172.57 190.72   C 1171.38 184.71 1177.52 179.40 1182.81 177.82   Q 1202.75 171.83 1220.99 167.72   Z"></path>
  <path fill="#d1d3d4" d="   M 721.61 225.16   Q 704.24 220.18 685.79 216.00   Q 683.88 215.57 680.91 213.37   Q 677.97 211.18 677.17 208.10   Q 676.69 206.22 677.82 202.08   Q 682.18 186.21 684.26 178.07   Q 685.75 172.23 687.52 170.74   Q 691.44 167.44 696.38 167.54   Q 699.22 167.59 708.89 170.03   Q 724.68 174.00 738.49 178.18   C 742.75 179.47 747.38 183.58 748.17 188.33   Q 748.47 190.12 747.56 194.51   Q 744.18 210.71 742.60 219.92   Q 741.95 223.70 740.38 225.09   C 734.81 230.04 727.90 226.95 721.61 225.16   Z"></path>
  <path fill="#d1d3d4" d="   M 750.86 225.18   Q 751.88 219.36 756.47 196.26   Q 757.26 192.30 758.27 191.08   C 761.24 187.52 766.73 187.67 770.77 189.23   Q 792.44 197.59 809.96 205.99   Q 812.35 207.13 815.58 210.89   Q 819.60 215.57 818.90 221.35   Q 818.69 223.11 815.30 248.51   Q 814.79 252.28 814.10 253.34   C 811.27 257.67 804.92 256.48 801.02 254.67   Q 783.60 246.58 764.01 239.21   C 757.40 236.72 752.56 234.01 750.93 227.31   A 5.19 5.19 0.0 0 1 750.86 225.18   Z"></path>
  <path fill="#d1d3d4" d="   M 1102.31 225.32   Q 1102.26 224.96 1101.86 220.96   Q 1101.60 218.31 1102.21 216.62   Q 1104.38 210.59 1109.31 207.24   Q 1111.63 205.66 1119.29 202.23   Q 1135.24 195.11 1151.63 188.83   C 1155.13 187.49 1160.14 188.35 1162.59 191.29   Q 1163.62 192.53 1164.43 196.85   Q 1166.82 209.68 1170.03 225.57   Q 1170.36 227.16 1169.07 229.92   Q 1166.45 235.58 1160.49 237.93   Q 1137.22 247.10 1117.55 255.80   Q 1115.22 256.83 1111.06 256.41   Q 1106.64 255.95 1105.95 251.12   Q 1105.43 247.48 1102.31 225.32   Z"></path>
  <path fill="#27aae1" d="   M 898.50 238.69   C 899.02 229.05 899.63 219.18 900.17 210.66   Q 900.36 207.64 901.01 206.53   C 902.81 203.48 908.14 205.07 910.52 206.88   Q 931.99 223.17 947.49 237.58   Q 951.34 241.16 954.70 248.84   Q 956.16 252.19 956.07 257.38   C 955.91 266.77 955.71 273.45 955.76 284.42   Q 955.78 287.27 955.37 288.03   C 953.47 291.52 947.79 288.35 945.56 286.44   C 934.13 276.67 921.93 267.06 909.54 257.99   C 904.93 254.61 901.72 250.68 899.49 245.73   Q 898.27 243.02 898.50 238.69   Z"></path>
  <path fill="#27aae1" d="   M 1021.66 226.24   Q 1021.87 229.85 1022.31 238.08   Q 1022.57 242.79 1021.57 245.25   Q 1019.31 250.82 1015.41 254.73   Q 1014.02 256.12 1004.05 263.57   Q 989.38 274.53 975.35 286.59   C 973.19 288.45 967.81 291.59 965.67 288.54   Q 964.98 287.56 964.98 284.91   Q 964.99 275.66 965.01 266.38   Q 965.02 262.77 964.78 259.25   Q 964.49 254.81 965.19 252.00   Q 967.57 242.50 975.37 235.60   Q 995.26 218.00 1010.22 206.97   Q 1013.43 204.61 1016.73 204.86   C 1020.55 205.15 1020.49 208.47 1020.72 211.78   Q 1021.24 219.07 1021.66 226.24   Z"></path>
  <path fill="#27aae1" d="   M 585.16 217.68   A 8.75 8.01 -35.4 0 1 584.66 219.99   Q 579.62 233.77 574.64 248.41   C 573.21 252.61 568.44 255.37 564.23 256.55   Q 561.62 257.29 554.81 257.14   Q 535.55 256.70 515.01 258.29   C 511.65 258.55 506.19 257.29 505.67 253.26   Q 505.48 251.75 506.76 248.76   Q 511.22 238.41 516.80 224.65   Q 518.48 220.49 519.63 219.09   C 522.15 216.02 526.21 213.78 530.21 212.59   Q 532.37 211.94 536.25 211.63   Q 558.41 209.87 576.70 210.36   C 580.97 210.47 585.47 213.17 585.16 217.68   Z"></path>
  <path fill="#27aae1" d="   M 1368.76 210.69   Q 1370.91 210.80 1378.56 211.23   Q 1385.36 211.61 1386.44 211.74   C 1391.87 212.40 1397.07 214.65 1400.81 218.68   Q 1402.26 220.24 1404.32 225.36   Q 1407.02 232.07 1414.08 248.71   Q 1415.35 251.72 1415.22 253.09   C 1414.79 257.40 1409.36 258.47 1405.75 258.23   Q 1385.06 256.88 1363.27 257.30   C 1356.35 257.44 1348.30 254.63 1345.82 247.55   Q 1340.79 233.22 1335.89 219.13   C 1334.58 215.36 1337.17 212.35 1340.62 210.98   Q 1342.30 210.32 1345.70 210.27   Q 1357.30 210.09 1368.76 210.69   Z"></path>
  <path fill="#d1d3d4" d="   M 612.53 211.83   C 626.14 213.13 639.41 214.44 652.26 216.79   C 655.99 217.47 659.85 220.18 660.92 223.88   Q 661.55 226.06 660.57 229.58   Q 657.66 240.04 653.08 255.76   Q 652.01 259.43 650.62 260.80   C 646.74 264.61 640.97 265.04 635.83 264.23   Q 614.11 260.81 592.23 258.83   C 588.73 258.51 583.91 255.50 583.62 251.45   Q 583.51 249.95 584.70 246.50   Q 585.13 245.24 594.17 219.19   C 595.48 215.43 600.88 212.71 604.49 211.91   Q 607.16 211.32 612.53 211.83   Z"></path>
  <path fill="#d1d3d4" d="   M 1285.30 214.24   Q 1302.64 211.99 1312.90 211.56   Q 1315.40 211.46 1319.23 212.94   Q 1325.52 215.38 1327.51 221.60   Q 1335.38 246.18 1336.38 249.36   Q 1337.84 254.02 1333.89 256.88   Q 1331.32 258.72 1327.64 259.07   Q 1305.24 261.20 1286.58 264.13   C 1280.28 265.12 1275.60 265.19 1270.61 261.72   C 1269.17 260.72 1268.20 258.89 1267.69 257.08   Q 1260.98 232.95 1259.53 227.51   Q 1258.93 225.26 1260.35 222.41   Q 1262.43 218.22 1268.40 216.81   Q 1271.92 215.99 1285.30 214.24   Z"></path>
  <path fill="#d1d3d4" d="   M 888.34 263.52   C 887.70 270.31 887.25 282.52 886.59 288.57   Q 886.58 288.66 886.50 290.91   Q 886.35 295.66 881.27 296.01   C 879.31 296.15 876.02 294.77 873.86 293.44   Q 857.45 283.28 833.34 270.27   Q 827.64 267.20 824.18 259.61   Q 823.53 258.17 823.75 255.26   Q 824.11 250.53 827.41 224.81   C 828.25 218.26 835.48 218.88 839.86 221.22   Q 860.32 232.13 878.34 243.96   C 882.19 246.49 885.98 251.17 887.67 255.61   Q 888.79 258.58 888.34 263.52   Z"></path>
  <path fill="#d1d3d4" d="   M 1093.82 229.48   Q 1095.76 245.43 1097.02 256.25   Q 1097.38 259.37 1094.12 264.14   C 1091.54 267.92 1088.58 269.82 1084.56 272.01   Q 1055.68 287.77 1050.73 291.22   Q 1046.67 294.05 1043.02 295.45   C 1039.22 296.91 1034.31 296.28 1034.19 291.27   Q 1034.18 291.15 1034.07 289.63   Q 1033.20 278.57 1032.29 263.00   Q 1032.03 258.51 1032.90 256.19   Q 1034.54 251.80 1038.15 247.71   Q 1040.12 245.47 1045.83 241.86   Q 1064.25 230.21 1081.38 221.15   Q 1085.90 218.76 1089.55 220.18   C 1093.57 221.75 1093.27 224.93 1093.82 229.48   Z"></path>
  <path fill="#27aae1" d="   M 672.38 225.90   C 675.61 223.01 680.46 221.99 684.79 222.93   Q 704.75 227.29 726.86 234.15   C 731.40 235.56 736.51 240.00 736.80 245.21   Q 736.88 246.58 736.43 248.78   Q 732.11 270.14 730.09 278.58   Q 729.61 280.60 726.66 282.13   Q 721.75 284.69 715.27 282.73   Q 695.45 276.72 674.25 271.87   C 668.93 270.65 662.39 267.82 661.98 261.67   Q 661.88 260.20 662.48 257.97   Q 665.43 247.03 669.54 231.62   Q 670.65 227.46 672.38 225.90   Z"></path>
  <path fill="#27aae1" d="   M 1196.60 233.22   Q 1226.48 224.49 1237.07 222.83   Q 1243.60 221.81 1248.54 226.23   Q 1249.97 227.51 1250.79 230.59   Q 1257.68 256.34 1258.58 260.72   Q 1258.79 261.71 1258.14 263.54   C 1256.80 267.36 1252.42 270.28 1248.70 271.17   Q 1221.39 277.78 1207.27 282.09   C 1201.89 283.73 1197.42 284.33 1193.05 281.74   C 1191.28 280.69 1190.31 278.91 1189.82 276.53   Q 1184.78 251.67 1184.39 249.99   Q 1183.35 245.48 1184.19 243.00   C 1185.99 237.64 1190.86 234.90 1196.60 233.22   Z"></path>
  <path fill="#27aae1" d="   M 811.18 279.16   C 809.68 290.22 808.85 297.65 807.72 306.80   Q 807.32 310.01 805.80 311.23   C 802.47 313.91 797.29 313.02 793.54 311.41   Q 772.15 302.23 750.46 294.27   C 745.96 292.61 741.62 288.81 740.10 284.08   Q 739.54 282.35 740.04 279.90   Q 740.78 276.23 745.30 253.05   Q 746.26 248.10 747.63 246.86   Q 750.32 244.42 754.56 244.29   C 758.16 244.18 760.55 245.43 764.99 247.14   Q 787.14 255.68 802.24 262.77   C 805.57 264.34 809.50 268.92 810.99 272.93   Q 811.75 274.98 811.18 279.16   Z"></path>
  <path fill="#27aae1" d="   M 1112.78 304.05   Q 1109.49 279.92 1109.06 276.25   Q 1108.92 275.08 1109.86 272.56   Q 1112.44 265.63 1119.49 262.27   Q 1139.26 252.83 1160.67 245.20   C 1165.84 243.35 1173.46 244.00 1174.80 250.54   Q 1179.87 275.22 1181.00 281.24   Q 1181.35 283.09 1179.88 286.15   Q 1178.49 289.06 1174.35 292.14   Q 1172.41 293.59 1167.09 295.51   Q 1148.12 302.36 1126.88 311.59   C 1121.90 313.75 1113.52 314.12 1113.06 306.57   Q 1113.01 305.76 1112.78 304.05   Z"></path>
  <path fill="#27aae1" d="   M 896.15 276.26   Q 896.69 267.78 896.70 267.35   C 896.82 259.94 903.77 261.08 907.85 264.02   Q 924.79 276.18 942.63 291.04   Q 946.91 294.61 949.08 297.35   C 952.10 301.18 954.63 305.51 955.50 310.32   Q 955.84 312.19 955.75 315.72   Q 955.43 328.42 955.49 341.82   Q 955.50 344.45 954.79 345.45   C 952.73 348.34 947.42 345.86 945.37 344.21   Q 925.80 328.40 909.29 316.79   Q 903.22 312.52 901.40 310.56   C 898.18 307.10 894.83 302.16 895.03 297.27   Q 895.48 286.74 896.15 276.26   Z"></path>
  <path fill="#27aae1" d="   M 1023.84 266.48   Q 1024.96 285.72 1025.61 295.05   Q 1025.88 298.97 1024.85 301.85   Q 1022.33 308.86 1016.93 312.80   Q 993.46 329.93 977.12 342.93   C 974.79 344.78 968.27 349.20 965.81 345.61   Q 965.27 344.83 965.21 343.11   Q 964.96 334.70 964.98 314.17   Q 964.99 309.32 966.30 306.27   Q 969.72 298.34 974.92 293.90   Q 993.54 277.99 1013.19 263.93   C 1016.51 261.55 1023.48 260.18 1023.84 266.48   Z"></path>
  <path fill="#27aae1" d="   M 493.88 311.14   Q 491.94 311.25 489.49 310.81   Q 485.68 310.12 484.08 307.43   Q 482.99 305.61 483.77 303.78   Q 491.53 285.34 495.00 276.65   Q 496.54 272.80 498.71 270.77   Q 504.10 265.73 511.04 264.98   Q 523.89 263.60 540.27 263.78   Q 541.91 263.80 544.76 263.59   Q 546.81 263.44 547.75 263.59   C 550.60 264.03 552.48 263.75 557.00 263.75   C 560.30 263.75 565.45 266.22 566.18 270.07   Q 566.45 271.49 565.23 274.98   Q 557.43 297.24 555.66 302.14   C 553.24 308.80 543.29 311.13 536.96 310.76   Q 533.42 310.56 533.30 310.56   Q 509.08 310.23 493.88 311.14   Z"></path>
  <path fill="#27aae1" d="   M 1402.20 264.28   Q 1408.99 264.46 1413.49 265.79   Q 1418.01 267.13 1422.08 270.84   Q 1424.02 272.61 1425.92 277.43   Q 1430.02 287.85 1435.68 300.92   C 1437.40 304.88 1437.78 307.82 1433.68 309.96   C 1431.73 310.98 1429.05 311.23 1426.71 311.11   Q 1407.28 310.11 1385.68 310.65   Q 1379.37 310.80 1376.89 310.32   Q 1372.48 309.46 1368.65 306.86   C 1366.57 305.45 1365.47 303.74 1364.57 301.14   Q 1356.48 278.02 1355.65 275.67   Q 1354.24 271.74 1354.45 270.24   C 1355.01 266.26 1359.47 264.06 1363.27 263.90   Q 1377.65 263.28 1395.36 264.09   Q 1395.48 264.10 1402.20 264.28   Z"></path>
  <path fill="#d1d3d4" d="   M 583.15 313.85   C 577.02 313.16 567.34 313.43 565.33 305.87   Q 564.88 304.18 566.23 300.57   Q 567.47 297.26 575.53 273.79   C 577.65 267.62 586.40 265.25 592.26 265.78   Q 614.33 267.80 635.23 271.28   C 639.92 272.06 645.14 275.04 645.88 280.19   Q 646.08 281.63 645.05 285.21   Q 644.31 287.75 638.03 310.31   Q 636.90 314.37 635.54 315.66   C 631.49 319.52 624.96 319.72 619.67 318.87   Q 600.58 315.79 583.15 313.85   Z"></path>
  <path fill="#d1d3d4" d="   M 1345.54 313.23   C 1328.21 315.04 1313.01 317.06 1298.26 319.52   Q 1296.49 319.82 1292.77 319.26   Q 1288.67 318.65 1285.59 316.09   Q 1283.88 314.67 1282.66 310.13   Q 1281.90 307.28 1276.04 286.14   Q 1274.68 281.22 1275.05 279.49   C 1276.10 274.65 1281.15 272.05 1285.76 271.25   Q 1304.82 267.94 1327.32 265.83   C 1333.12 265.28 1338.81 266.31 1342.98 270.25   Q 1344.76 271.93 1346.10 276.04   Q 1349.94 287.80 1354.70 301.25   Q 1356.06 305.10 1355.42 306.92   C 1354.07 310.75 1349.25 312.85 1345.54 313.23   Z"></path>
  <path fill="#27aae1" d="   M 884.44 322.39   Q 883.84 334.12 882.82 347.11   Q 882.55 350.60 881.42 351.57   C 878.34 354.22 873.16 352.49 869.94 350.59   Q 849.74 338.68 827.72 327.48   Q 821.20 324.17 817.97 317.95   Q 816.43 314.99 816.80 311.51   Q 816.89 310.65 820.17 283.25   Q 820.59 279.69 821.58 278.52   C 824.77 274.71 830.58 276.45 834.33 278.41   Q 855.10 289.27 874.01 300.89   Q 878.32 303.54 881.82 308.58   Q 885.27 313.55 884.74 319.17   Q 884.44 322.29 884.44 322.39   Z"></path>
  <path fill="#d1d3d4" d="   M 1100.87 286.47   Q 1101.18 289.76 1103.90 312.12   C 1104.63 318.06 1098.07 324.80 1093.91 326.94   Q 1071.63 338.38 1049.68 351.17   C 1046.02 353.31 1038.27 354.61 1037.93 348.14   Q 1037.88 347.27 1035.77 316.79   Q 1035.65 315.04 1037.35 311.38   Q 1039.18 307.47 1043.28 303.55   Q 1045.40 301.52 1051.20 298.06   Q 1069.90 286.89 1087.53 277.79   C 1091.34 275.82 1097.87 275.22 1099.87 280.12   Q 1100.39 281.39 1100.87 286.47   Z"></path>
  <path fill="#d1d3d4" d="   M 708.16 339.13   C 707.12 339.04 705.43 338.90 703.99 338.48   Q 681.48 331.99 657.85 326.40   C 653.55 325.38 647.86 321.85 647.33 316.90   Q 647.14 315.23 648.23 311.20   Q 655.48 284.26 655.70 283.49   Q 656.13 281.99 658.84 280.09   Q 663.78 276.65 670.51 278.09   Q 692.29 282.77 715.26 289.83   Q 717.52 290.53 720.87 293.14   Q 723.78 295.42 724.95 298.78   Q 725.76 301.14 724.89 305.33   Q 720.53 326.21 718.86 333.60   Q 718.37 335.76 716.18 337.17   Q 712.55 339.52 708.16 339.13   Z"></path>
  <path fill="#27aae1" d="   M 1250.71 277.94   C 1254.92 277.08 1260.81 278.27 1263.84 281.86   Q 1264.83 283.04 1265.87 286.93   Q 1270.98 306.12 1273.32 315.48   Q 1273.51 316.25 1272.81 318.40   C 1271.52 322.31 1266.50 325.44 1263.02 326.25   Q 1233.06 333.25 1217.88 338.11   C 1213.43 339.53 1206.35 340.04 1202.91 336.04   Q 1201.79 334.73 1201.17 331.76   Q 1196.97 311.39 1195.49 303.82   Q 1194.38 298.17 1198.69 294.16   C 1202.23 290.86 1205.45 289.57 1210.44 288.20   C 1225.14 284.16 1239.18 280.28 1250.71 277.94   Z"></path>
  <path fill="#27aae1" d="   M 1120.66 363.05   C 1119.05 351.22 1118.17 344.00 1116.82 334.47   C 1115.82 327.38 1121.94 321.02 1127.93 318.45   Q 1149.31 309.28 1168.96 302.07   Q 1173.25 300.49 1175.61 300.35   C 1180.31 300.06 1184.85 301.64 1185.89 306.79   Q 1187.72 315.92 1190.42 329.75   Q 1191.76 336.62 1191.76 337.33   C 1191.74 344.30 1184.78 348.53 1179.00 350.63   Q 1156.23 358.91 1134.13 368.10   C 1130.69 369.54 1125.06 370.09 1122.21 367.07   Q 1121.04 365.82 1120.66 363.05   Z"></path>
  <path fill="#d1d3d4" d="   M 803.79 334.76   Q 801.22 354.98 799.69 365.21   C 799.43 366.94 797.93 368.49 796.20 369.04   Q 791.19 370.62 786.18 368.56   Q 759.68 357.71 739.37 350.41   C 735.47 349.01 730.98 345.15 729.29 340.94   Q 728.47 338.90 729.32 334.54   Q 732.62 317.64 734.88 306.14   C 735.19 304.54 736.39 302.97 737.95 302.10   Q 742.84 299.39 748.06 301.12   Q 764.31 306.52 790.43 317.61   C 796.48 320.18 800.96 323.53 803.32 329.26   Q 804.21 331.45 803.79 334.76   Z"></path>
  <path fill="#27aae1" d="   M 1386.27 317.28   Q 1386.30 317.28 1386.69 317.17   Q 1386.96 317.10 1387.10 317.09   Q 1407.69 316.66 1428.25 317.51   C 1433.96 317.74 1440.63 319.94 1444.61 324.30   Q 1445.90 325.71 1447.01 328.43   Q 1457.20 353.25 1457.75 354.53   Q 1458.90 357.18 1458.62 358.59   C 1457.24 365.53 1446.16 363.82 1441.32 363.78   Q 1416.43 363.54 1403.24 364.14   Q 1397.84 364.39 1395.30 363.77   C 1390.35 362.58 1385.50 360.38 1383.72 355.30   Q 1379.07 342.05 1373.57 326.23   Q 1372.96 324.49 1374.31 321.95   C 1376.38 318.07 1382.25 316.89 1386.27 317.28   Z"></path>
  <path fill="#27aae1" d="   M 522.53 364.33   Q 520.62 364.49 520.53 364.49   Q 493.33 363.27 470.78 364.30   Q 468.43 364.41 465.10 362.78   Q 460.20 360.38 462.45 355.27   Q 466.21 346.71 474.01 327.53   C 475.79 323.14 480.92 320.38 485.69 318.82   Q 489.03 317.73 495.73 317.56   Q 524.82 316.79 538.73 317.60   Q 541.23 317.74 544.48 320.10   Q 547.46 322.25 547.08 325.84   Q 546.99 326.69 545.34 331.34   Q 540.00 346.46 536.24 356.72   C 534.53 361.40 527.01 363.97 522.53 364.33   Z"></path>
  <path fill="#27aae1" d="   M 894.83 319.85   C 897.97 317.44 902.77 319.47 905.60 321.43   Q 925.71 335.34 944.22 350.29   C 948.85 354.03 953.54 360.25 955.08 366.40   Q 955.55 368.28 955.54 371.17   Q 955.46 388.60 955.16 400.01   Q 955.05 404.20 950.50 403.72   C 948.16 403.47 945.36 401.75 943.25 400.15   Q 924.97 386.26 905.67 373.18   Q 900.25 369.50 898.36 367.52   C 894.51 363.51 891.15 358.75 891.50 353.01   Q 892.16 342.28 893.35 322.59   Q 893.45 320.91 894.83 319.85   Z"></path>
  <path fill="#27aae1" d="   M 1027.57 331.24   Q 1027.60 331.73 1028.83 351.43   Q 1029.13 356.14 1028.15 358.54   Q 1025.79 364.30 1020.92 368.72   C 1017.69 371.64 1012.50 374.80 1009.13 377.12   Q 993.31 388.04 976.28 401.02   C 973.85 402.88 967.95 405.72 965.86 402.77   Q 965.28 401.96 965.24 400.62   Q 964.80 386.65 965.06 369.26   C 965.16 362.35 971.36 354.38 976.50 350.22   Q 993.65 336.37 1010.41 324.66   C 1015.19 321.32 1018.56 318.51 1023.58 319.03   Q 1026.51 319.34 1027.01 322.82   Q 1027.19 324.11 1027.57 331.24   Z"></path>
  <path fill="#d1d3d4" d="   M 604.39 373.71   C 588.33 371.00 572.92 368.93 557.17 367.12   C 553.10 366.66 547.57 364.22 546.80 359.72   Q 546.50 357.95 547.65 354.61   Q 555.71 331.33 557.19 327.22   Q 558.32 324.08 562.86 321.84   C 568.76 318.93 573.08 319.73 580.72 320.59   Q 601.01 322.90 619.91 326.17   Q 625.77 327.19 629.11 331.63   C 630.90 334.02 630.76 336.44 629.93 339.41   Q 622.43 366.22 622.11 367.37   C 620.82 371.98 615.06 373.80 610.40 374.18   Q 608.22 374.36 604.39 373.71   Z"></path>
  <path fill="#d1d3d4" d="   M 1312.75 374.31   Q 1307.31 374.73 1302.70 372.35   C 1299.90 370.90 1298.84 368.95 1297.96 365.73   Q 1296.18 359.16 1290.65 339.24   Q 1289.77 336.06 1290.13 334.60   C 1291.34 329.73 1296.37 326.93 1300.95 326.10   Q 1324.16 321.89 1347.77 319.75   C 1352.48 319.32 1358.87 321.18 1362.21 325.12   Q 1363.21 326.30 1364.64 330.40   Q 1371.44 349.99 1373.49 356.34   C 1375.93 363.91 1367.75 366.87 1361.97 367.51   Q 1339.61 369.95 1320.14 373.30   A 22.11 2.00 -12.9 0 1 1312.75 374.31   Z"></path>
  <path fill="#27aae1" d="   M 695.54 394.86   Q 693.25 394.54 692.70 394.38   Q 667.88 387.24 643.76 381.60   C 639.26 380.55 634.47 377.75 632.62 373.38   Q 631.93 371.74 632.86 368.18   Q 639.47 343.13 640.40 340.12   C 642.56 333.09 651.00 332.11 657.12 333.53   Q 684.89 339.97 703.43 345.90   C 708.72 347.59 715.08 353.05 713.76 359.54   Q 708.20 386.88 708.08 387.55   Q 707.33 391.68 704.87 393.07   Q 700.48 395.54 695.54 394.86   Z"></path>
  <path fill="#27aae1" d="   M 880.57 382.76   Q 880.02 390.49 879.15 401.56   Q 878.79 406.22 878.52 406.88   Q 877.25 410.02 873.11 409.71   Q 869.15 409.41 866.28 407.78   Q 843.06 394.59 824.10 385.51   Q 818.89 383.01 816.73 381.27   C 813.55 378.71 810.49 375.14 809.67 371.11   Q 809.42 369.86 809.71 367.44   Q 812.68 342.60 813.23 338.69   C 814.30 331.01 822.87 332.58 827.78 335.05   Q 852.49 347.48 870.68 358.50   Q 876.25 361.87 880.05 369.30   Q 881.16 371.46 881.03 375.16   Q 880.97 377.03 880.57 382.76   Z"></path>
  <path fill="#d1d3d4" d="   M 1041.23 403.80   C 1040.61 396.21 1039.79 383.51 1039.28 373.55   Q 1039.22 372.36 1040.34 369.80   Q 1043.82 361.85 1051.25 357.52   Q 1075.67 343.29 1094.47 334.20   Q 1097.28 332.84 1101.58 333.12   Q 1106.34 333.42 1107.03 338.17   Q 1110.23 359.95 1110.60 369.13   Q 1110.64 370.10 1110.59 371.19   Q 1110.55 371.87 1109.95 373.04   Q 1106.12 380.50 1099.35 383.88   Q 1075.49 395.81 1054.19 407.68   C 1051.21 409.34 1044.98 411.25 1042.43 408.01   Q 1041.48 406.81 1041.23 403.80   Z"></path>
  <path fill="#27aae1" d="   M 1248.67 388.67   Q 1231.56 393.39 1227.95 394.38   Q 1222.02 396.01 1216.77 393.75   C 1214.33 392.70 1213.33 390.98 1212.73 388.20   Q 1208.66 369.40 1207.00 359.69   Q 1206.07 354.27 1209.86 350.59   Q 1213.58 346.97 1217.85 345.65   Q 1236.25 339.97 1258.65 334.72   Q 1265.68 333.07 1267.32 332.98   C 1271.77 332.72 1276.29 333.92 1279.09 337.53   Q 1279.82 338.47 1280.44 340.90   Q 1280.99 343.02 1288.21 369.79   Q 1288.56 371.10 1288.12 372.77   C 1287.10 376.67 1281.84 380.34 1278.40 381.18   Q 1254.86 386.96 1248.67 388.67   Z"></path>
  <path fill="#27aae1" d="   M 1124.65 391.85   Q 1123.81 387.16 1126.08 383.36   Q 1129.43 377.73 1135.94 374.95   Q 1156.26 366.29 1179.25 358.06   Q 1183.85 356.42 1186.24 356.29   C 1189.91 356.09 1194.01 357.02 1196.04 360.14   Q 1196.56 360.94 1196.99 363.21   Q 1199.35 375.81 1202.77 392.49   Q 1203.28 394.97 1201.52 398.04   C 1198.76 402.84 1193.93 405.23 1188.22 407.25   Q 1166.54 414.88 1143.53 424.26   C 1139.57 425.88 1132.69 426.97 1129.62 423.21   Q 1128.74 422.14 1128.25 418.47   C 1126.75 407.31 1125.88 398.78 1124.65 391.85   Z"></path>
  <path fill="#27aae1" d="   M 795.54 397.77   Q 794.09 407.10 792.35 422.05   Q 792.23 423.01 790.45 424.63   Q 789.43 425.55 787.64 425.85   Q 782.53 426.74 779.01 425.28   Q 754.64 415.20 732.66 407.53   Q 727.18 405.62 725.06 404.18   C 721.27 401.59 717.51 397.48 718.37 392.54   Q 719.34 386.95 723.78 364.52   Q 724.57 360.54 725.58 359.42   C 729.03 355.63 735.39 355.99 739.95 357.63   Q 762.36 365.67 783.77 374.56   Q 790.76 377.47 794.84 383.76   C 797.51 387.87 796.37 392.43 795.54 397.77   Z"></path>
  <path fill="#27aae1" d="   M 476.61 370.42   Q 500.52 369.82 518.04 371.06   C 522.62 371.38 528.70 374.37 528.10 379.79   Q 528.06 380.14 526.14 385.59   Q 518.49 407.35 517.27 410.49   Q 516.47 412.54 513.95 414.18   Q 510.29 416.54 505.85 417.53   Q 503.21 418.12 497.20 417.80   Q 476.38 416.67 456.73 416.74   Q 455.10 416.74 451.82 416.90   C 447.70 417.09 440.28 415.90 439.97 410.71   Q 439.90 409.45 440.84 407.25   Q 444.57 398.51 452.35 379.61   Q 453.47 376.89 457.23 374.46   Q 463.62 370.33 471.89 370.39   Q 476.51 370.42 476.61 370.42   Z"></path>
  <path fill="#27aae1" d="   M 1421.29 418.11   Q 1412.43 418.64 1405.69 413.83   Q 1404.09 412.68 1403.09 410.19   Q 1401.59 406.49 1392.62 380.48   Q 1392.04 378.80 1393.07 376.62   C 1394.87 372.83 1400.03 371.26 1404.05 371.08   Q 1430.47 369.94 1451.49 370.82   Q 1460.14 371.18 1466.16 376.90   Q 1467.62 378.28 1468.55 380.49   Q 1470.77 385.76 1480.26 409.01   Q 1481.73 412.62 1477.84 415.09   Q 1474.59 417.14 1470.51 417.07   Q 1445.98 416.63 1421.29 418.11   Z"></path>
  <path fill="#d1d3d4" d="   M 589.63 428.65   C 572.55 425.64 556.73 423.41 538.62 421.14   Q 534.53 420.63 531.03 417.87   Q 526.86 414.59 528.67 409.50   Q 534.85 392.14 537.49 384.02   Q 538.74 380.14 540.40 378.55   C 543.36 375.68 547.18 374.52 551.11 373.97   Q 553.41 373.64 556.40 373.99   Q 580.46 376.81 603.71 380.82   C 608.39 381.63 614.79 385.10 615.24 390.30   Q 615.35 391.56 614.79 393.57   Q 607.92 418.28 606.43 422.90   Q 605.67 425.25 602.74 426.73   Q 596.56 429.87 589.63 428.65   Z"></path>
  <path fill="#27aae1" d="   M 1366.95 373.81   Q 1371.58 373.78 1376.40 375.88   Q 1380.91 377.84 1382.39 382.11   Q 1389.07 401.41 1391.97 410.55   C 1393.02 413.85 1391.47 416.84 1388.70 418.68   Q 1385.43 420.86 1379.73 421.59   Q 1344.47 426.15 1335.77 428.04   Q 1328.37 429.66 1323.00 428.78   C 1318.97 428.12 1314.81 426.20 1313.67 422.07   Q 1309.29 406.16 1305.50 392.49   Q 1305.04 390.85 1305.76 388.71   C 1307.27 384.14 1312.92 381.51 1317.68 380.66   Q 1340.51 376.60 1357.53 374.73   Q 1365.81 373.82 1366.95 373.81   Z"></path>
  <path fill="#27aae1" d="   M 888.86 404.27   Q 889.88 384.79 890.31 379.52   Q 890.44 378.04 891.78 376.78   C 894.29 374.43 899.91 376.32 902.39 377.94   Q 922.16 390.92 941.45 405.58   C 947.39 410.11 952.36 415.49 954.66 422.58   Q 955.23 424.32 955.25 427.61   Q 955.35 447.37 954.91 458.26   Q 954.87 459.23 953.57 460.19   C 951.13 462.00 945.68 459.39 943.36 457.68   Q 924.74 443.94 902.88 429.83   C 897.35 426.25 893.71 423.31 890.70 418.45   Q 887.88 413.90 888.46 408.25   Q 888.85 404.42 888.86 404.27   Z"></path>
  <path fill="#27aae1" d="   M 1031.83 404.25   Q 1032.07 408.41 1032.10 408.79   C 1032.54 413.35 1031.29 416.61 1028.55 420.32   C 1025.82 424.02 1022.91 426.51 1018.80 429.13   Q 997.41 442.77 976.16 458.41   Q 973.71 460.22 969.99 460.71   Q 965.70 461.28 965.62 457.03   Q 965.35 442.92 965.54 424.52   C 965.58 420.72 969.02 415.58 971.75 412.24   Q 974.11 409.36 979.93 404.98   Q 998.52 390.95 1017.88 378.13   C 1021.10 376.00 1028.26 373.70 1030.05 378.51   Q 1030.31 379.21 1030.61 384.04   Q 1031.24 394.14 1031.83 404.25   Z"></path>
  <path fill="#27aae1" d="   M 636.26 388.17   Q 639.62 387.94 641.44 388.35   Q 660.68 392.66 688.17 400.40   Q 693.03 401.77 695.51 403.32   C 698.80 405.38 702.00 408.69 702.50 412.62   Q 702.63 413.69 702.10 416.33   Q 697.57 438.94 696.22 444.97   C 695.78 446.95 694.21 448.55 692.26 449.35   Q 686.74 451.62 681.71 450.20   Q 652.02 441.86 631.76 437.24   C 626.26 435.98 618.79 433.17 617.70 426.97   Q 617.46 425.62 618.03 423.49   Q 624.74 398.57 624.91 397.76   Q 625.95 393.05 627.82 391.41   Q 631.12 388.53 636.26 388.17   Z"></path>
  <path fill="#d1d3d4" d="   M 1283.31 388.24   Q 1287.52 388.29 1291.23 390.26   C 1293.47 391.44 1294.59 393.20 1295.32 395.90   Q 1298.77 408.66 1303.22 425.53   C 1303.60 426.96 1302.64 429.78 1301.47 431.07   Q 1297.28 435.71 1292.73 436.75   Q 1267.90 442.46 1243.30 449.51   C 1237.95 451.05 1230.67 452.10 1226.15 448.09   Q 1224.92 447.00 1224.20 443.46   Q 1218.77 416.83 1218.33 414.52   Q 1217.76 411.50 1220.35 408.07   Q 1224.05 403.14 1230.30 401.32   Q 1253.22 394.63 1278.15 388.81   A 21.62 21.59 -51.2 0 1 1283.31 388.24   Z"></path>
  <path fill="#27aae1" d="   M 876.80 440.76   Q 876.07 451.21 875.37 459.87   Q 875.06 463.73 874.50 464.53   C 871.92 468.20 865.17 466.42 861.96 464.70   Q 838.95 452.35 818.05 442.39   Q 812.57 439.78 810.52 438.24   C 807.03 435.61 804.01 432.23 802.82 428.02   Q 802.43 426.61 802.76 423.97   Q 802.79 423.72 806.32 394.52   Q 806.72 391.26 810.32 390.02   Q 814.63 388.54 819.74 390.91   Q 835.86 398.37 861.16 412.17   Q 866.92 415.32 869.43 417.48   C 872.63 420.25 876.04 424.32 877.13 428.51   Q 877.49 429.89 877.39 432.05   Q 877.35 432.91 876.80 440.76   Z"></path>
  <path fill="#d1d3d4" d="   M 1045.20 461.86   Q 1043.66 441.19 1043.24 431.53   C 1042.93 424.61 1050.23 417.40 1055.75 414.26   Q 1074.42 403.67 1095.26 393.53   C 1100.55 390.95 1103.97 389.02 1108.93 389.67   Q 1113.76 390.30 1114.34 394.98   Q 1116.32 411.14 1117.71 424.29   Q 1118.16 428.56 1115.88 431.89   C 1112.50 436.83 1108.54 439.52 1102.62 442.29   Q 1084.48 450.76 1058.31 464.76   Q 1054.07 467.02 1049.95 466.73   Q 1045.54 466.41 1045.20 461.86   Z"></path>
  <path fill="#27aae1" d="   M 721.49 412.67   Q 725.59 412.49 728.88 413.62   Q 751.42 421.37 773.72 430.43   Q 779.34 432.71 781.68 434.45   C 785.52 437.32 789.51 441.88 788.89 447.01   Q 788.78 447.91 785.25 475.32   Q 784.79 478.94 783.72 480.08   C 781.30 482.67 776.88 482.90 773.63 482.31   Q 771.85 481.98 768.74 480.80   Q 735.27 468.14 719.11 462.59   C 714.24 460.92 707.79 456.27 707.09 450.96   Q 706.91 449.54 707.28 447.60   Q 711.19 427.20 712.63 420.01   Q 713.39 416.17 714.84 414.99   Q 717.48 412.84 721.49 412.67   Z"></path>
  <path fill="#d1d3d4" d="   M 1132.88 456.29   Q 1131.98 449.54 1131.64 446.80   C 1130.84 440.40 1138.62 433.80 1143.33 431.81   Q 1166.59 421.97 1192.08 413.34   C 1196.08 411.98 1203.07 411.71 1206.26 415.39   Q 1207.46 416.77 1208.07 420.09   Q 1209.77 429.38 1213.74 449.49   Q 1214.06 451.08 1212.22 454.23   Q 1209.06 459.67 1201.44 462.38   Q 1170.89 473.21 1152.80 480.30   C 1148.66 481.92 1145.35 482.67 1141.34 482.15   C 1136.77 481.55 1135.93 479.07 1135.32 474.58   Q 1133.88 463.79 1132.88 456.29   Z"></path>
  <path fill="#27aae1" d="   M 496.11 424.50   Q 502.71 424.58 507.31 428.38   Q 510.25 430.81 508.80 435.03   Q 502.43 453.45 498.11 464.11   C 496.41 468.31 490.16 470.77 485.90 471.39   Q 482.83 471.84 477.62 471.50   Q 455.30 470.00 432.48 469.97   C 428.19 469.97 424.78 470.04 420.99 468.05   Q 418.40 466.69 417.94 464.11   Q 417.69 462.76 418.97 459.75   Q 422.45 451.57 430.59 431.88   Q 431.35 430.02 435.09 427.59   Q 440.86 423.84 447.86 423.67   Q 472.96 423.06 491.54 424.43   Q 491.62 424.44 496.11 424.50   Z"></path>
  <path fill="#27aae1" d="   M 1442.00 471.56   Q 1433.63 472.44 1426.45 468.85   C 1423.78 467.51 1422.38 465.58 1421.29 462.52   Q 1419.62 457.78 1412.05 436.11   Q 1410.93 432.90 1411.48 431.33   C 1412.91 427.25 1417.99 424.99 1422.03 424.73   Q 1447.82 423.04 1472.02 423.62   C 1478.05 423.76 1487.55 426.63 1490.18 432.73   Q 1494.36 442.42 1500.94 459.25   Q 1502.23 462.55 1502.08 464.00   C 1501.58 468.85 1494.14 469.97 1490.33 469.97   Q 1468.57 469.99 1447.53 471.12   Q 1444.91 471.26 1442.00 471.56   Z"></path>
  <path fill="#27aae1" d="   M 532.51 476.82   Q 524.80 475.82 521.60 475.37   C 516.93 474.71 510.66 472.20 509.57 467.20   Q 509.28 465.85 510.14 463.37   Q 513.76 452.89 519.10 437.57   Q 520.49 433.59 522.06 432.23   C 526.05 428.76 531.76 427.54 537.01 428.06   Q 556.31 429.95 588.71 435.79   Q 595.12 436.94 598.47 441.75   C 600.03 443.98 600.27 445.86 599.47 448.68   Q 591.92 475.34 591.80 475.81   Q 590.41 481.19 584.63 482.82   Q 579.37 484.30 575.12 483.57   Q 545.49 478.49 532.51 476.82   Z"></path>
  <path fill="#27aae1" d="   M 1363.73 430.65   Q 1378.75 428.56 1384.39 428.14   Q 1391.03 427.66 1397.03 431.21   C 1399.33 432.57 1400.36 434.35 1401.31 437.12   Q 1404.96 447.75 1408.65 458.87   Q 1410.76 465.23 1410.83 466.04   C 1411.30 471.81 1404.46 475.05 1399.53 475.69   Q 1371.65 479.26 1346.56 483.81   C 1341.61 484.71 1333.15 484.05 1330.04 479.52   Q 1329.36 478.53 1328.76 476.33   Q 1327.45 471.58 1320.93 448.06   C 1319.13 441.58 1326.61 437.03 1332.19 435.93   Q 1347.33 432.93 1363.73 430.65   Z"></path>
  <path fill="#27aae1" d="   M 886.40 446.24   Q 886.98 436.87 887.08 436.27   C 888.01 430.70 896.40 432.87 899.19 434.61   Q 916.51 445.37 938.36 460.95   Q 944.50 465.32 946.88 467.76   Q 951.45 472.44 953.98 478.32   Q 955.06 480.83 955.05 485.17   Q 955.01 495.67 954.72 512.82   Q 954.67 515.85 954.02 516.54   C 951.07 519.72 944.47 515.99 941.72 514.05   Q 921.15 499.59 899.73 486.45   C 893.16 482.42 884.64 475.66 885.15 467.03   Q 886.25 448.64 886.40 446.24   Z"></path>
  <path fill="#27aae1" d="   M 1033.93 442.03   Q 1034.53 452.37 1035.38 465.49   Q 1035.62 469.26 1034.86 471.50   C 1032.82 477.57 1027.22 482.54 1021.89 485.77   Q 999.06 499.63 977.19 515.21   Q 974.87 516.87 970.75 517.65   Q 967.56 518.26 966.31 516.18   Q 965.75 515.25 965.77 512.34   Q 965.81 504.81 965.71 502.34   Q 965.33 492.22 965.56 482.80   C 965.66 478.47 968.94 473.33 972.40 469.22   Q 974.91 466.24 981.34 461.61   Q 998.40 449.30 1019.83 435.54   Q 1025.19 432.10 1030.36 432.86   C 1032.90 433.24 1033.74 436.03 1033.75 438.49   Q 1033.75 438.89 1033.93 442.03   Z"></path>
  <path fill="#27aae1" d="   M 628.89 443.84   Q 651.75 449.16 676.14 456.16   C 681.72 457.77 686.11 459.94 689.36 464.40   C 691.21 466.95 691.26 469.31 690.60 472.59   Q 687.48 488.01 685.00 501.00   C 683.84 507.11 672.96 507.10 669.02 505.96   Q 643.27 498.56 615.41 491.95   Q 610.05 490.67 606.05 487.15   C 602.36 483.89 602.62 481.07 603.95 476.23   Q 606.64 466.46 610.35 452.39   Q 611.49 448.03 612.78 446.81   C 616.84 442.94 623.62 442.62 628.89 443.84   Z"></path>
  <path fill="#27aae1" d="   M 1252.15 505.88   C 1247.82 507.10 1239.78 507.07 1236.81 503.04   Q 1235.99 501.93 1235.49 499.52   Q 1229.98 472.52 1229.58 470.49   C 1228.68 465.82 1233.62 461.02 1237.21 459.04   Q 1240.08 457.47 1245.48 455.89   Q 1267.96 449.33 1292.67 443.69   C 1297.91 442.50 1305.40 443.20 1308.85 447.87   Q 1309.50 448.75 1310.14 451.24   Q 1312.13 458.90 1316.83 476.11   Q 1318.08 480.67 1317.70 482.26   C 1316.47 487.45 1310.01 490.88 1305.27 492.02   Q 1278.64 498.40 1252.15 505.88   Z"></path>
  <path fill="#27aae1" d="   M 872.83 500.76   Q 871.66 516.81 871.50 518.76   C 871.26 521.79 869.67 523.33 866.65 523.44   Q 861.77 523.61 858.44 521.86   Q 833.85 508.98 812.06 499.07   C 805.15 495.92 800.18 492.93 796.80 486.88   Q 795.39 484.37 795.76 481.25   Q 798.48 458.48 798.99 453.97   Q 799.50 449.51 800.47 448.40   C 803.72 444.71 810.19 445.91 814.23 447.78   Q 839.72 459.59 861.55 471.60   C 866.84 474.51 874.28 481.65 873.72 488.62   Q 873.65 489.50 872.83 500.76   Z"></path>
  <path fill="#d1d3d4" d="   M 1053.10 523.38   C 1050.21 522.89 1048.94 521.14 1048.86 518.28   Q 1048.85 517.72 1046.82 487.76   C 1046.72 486.30 1047.83 483.35 1048.72 481.86   Q 1052.87 474.92 1060.20 470.94   Q 1082.00 459.13 1105.97 447.97   C 1109.97 446.10 1118.80 444.48 1120.94 449.89   Q 1121.16 450.44 1121.67 454.77   Q 1124.31 477.08 1124.73 481.51   C 1125.23 486.73 1120.61 491.67 1116.69 494.60   Q 1114.50 496.25 1108.94 498.83   Q 1086.27 509.36 1064.78 520.45   C 1061.07 522.36 1056.91 524.03 1053.10 523.38   Z"></path>
  <path fill="#27aae1" d="   M 781.40 503.65   C 780.27 511.79 779.22 520.47 777.67 531.55   Q 777.19 535.00 776.03 536.19   C 772.47 539.85 765.04 538.55 760.84 536.92   Q 737.26 527.76 712.42 519.45   Q 706.34 517.42 704.01 515.97   C 700.52 513.81 696.45 510.26 696.02 506.13   Q 695.88 504.87 696.36 502.45   Q 701.28 477.13 701.91 474.14   C 703.46 466.77 713.81 467.67 719.43 469.61   Q 743.81 478.05 767.71 487.47   C 773.62 489.81 782.41 496.29 781.40 503.65   Z"></path>
  <path fill="#27aae1" d="   M 1143.05 532.69   C 1141.66 522.81 1140.92 516.83 1139.11 503.03   Q 1138.83 500.85 1140.66 497.86   Q 1144.67 491.33 1151.87 488.36   Q 1176.18 478.35 1202.61 469.60   Q 1207.05 468.14 1212.30 469.00   Q 1215.15 469.47 1217.10 471.32   Q 1218.41 472.57 1218.95 475.83   Q 1219.34 478.21 1224.38 503.66   Q 1224.89 506.21 1224.41 507.83   C 1222.82 513.25 1216.10 517.41 1211.08 519.07   Q 1187.04 526.98 1159.45 537.64   Q 1155.07 539.33 1149.58 538.98   Q 1146.61 538.79 1144.75 537.13   Q 1143.52 536.03 1143.05 532.69   Z"></path>
  <path fill="#27aae1" d="   M 1038.35 516.24   Q 1038.69 520.85 1038.97 525.00   Q 1039.16 527.74 1036.58 531.59   C 1031.80 538.73 1026.45 541.77 1017.29 547.01   Q 1007.22 552.77 980.02 570.92   C 976.81 573.06 972.76 575.27 969.07 574.65   Q 966.35 574.19 966.28 571.53   Q 965.63 546.85 966.18 538.65   Q 966.41 535.20 970.06 530.06   C 972.82 526.17 975.95 523.15 979.97 520.36   Q 1002.16 504.94 1023.70 491.96   Q 1027.46 489.69 1031.75 489.60   Q 1034.78 489.54 1036.31 491.94   Q 1036.96 492.94 1037.07 496.33   Q 1037.25 501.39 1038.35 516.24   Z"></path>
  <path fill="#27aae1" d="   M 882.30 521.95   Q 882.56 516.47 883.91 494.46   C 884.36 487.20 893.26 489.96 897.30 492.32   Q 917.50 504.13 942.02 521.42   Q 949.69 526.83 953.69 535.30   Q 954.67 537.39 954.70 539.56   Q 954.80 546.39 954.71 571.25   C 954.69 577.47 946.01 574.67 943.13 572.70   Q 919.77 556.76 898.41 544.26   C 891.16 540.02 885.73 535.95 882.61 528.62   C 881.69 526.47 882.20 524.03 882.30 521.95   Z"></path>
  <path fill="#27aae1" d="   M 868.68 566.76   Q 868.35 572.02 867.97 576.26   Q 867.76 578.56 865.76 579.49   C 861.92 581.29 856.34 579.63 852.96 577.93   Q 829.17 565.95 804.97 555.28   C 798.83 552.57 793.74 549.54 790.40 544.28   C 788.77 541.71 788.53 539.63 788.96 536.23   Q 790.76 522.10 792.32 508.36   C 793.23 500.26 804.10 502.77 808.86 504.97   Q 831.66 515.50 849.11 524.31   Q 858.02 528.82 859.99 530.20   Q 865.03 533.74 868.66 539.51   Q 870.03 541.69 869.98 544.84   Q 869.96 546.11 868.68 566.76   Z"></path>
  <path fill="#27aae1" d="   M 1052.21 570.00   Q 1051.60 561.87 1050.64 547.75   Q 1050.36 543.60 1051.50 541.01   Q 1054.06 535.20 1060.54 530.49   Q 1062.25 529.25 1072.41 524.05   Q 1091.90 514.09 1112.59 504.83   C 1117.32 502.71 1127.28 500.93 1128.24 508.42   Q 1131.56 534.36 1131.99 539.50   Q 1132.16 541.58 1130.56 544.14   Q 1126.42 550.75 1119.26 553.97   Q 1089.92 567.16 1067.15 578.60   Q 1063.16 580.60 1058.35 580.69   Q 1054.71 580.75 1053.07 577.95   Q 1052.51 577.00 1052.45 574.02   Q 1052.43 572.89 1052.21 570.00   Z"></path>
  <path fill="#27aae1" d="   M 879.42 571.28   Q 880.17 558.65 880.50 554.00   C 880.71 551.11 880.26 549.09 882.32 547.64   C 885.86 545.16 891.57 547.31 895.05 549.31   Q 919.05 563.09 942.60 579.53   Q 949.54 584.39 953.14 591.69   Q 954.24 593.94 954.42 596.30   Q 954.55 598.03 954.50 627.52   C 954.50 630.43 953.28 632.08 950.22 632.03   Q 945.98 631.96 942.53 629.74   Q 913.62 611.18 895.80 601.19   C 889.71 597.78 884.95 594.30 881.48 589.32   C 879.50 586.49 878.44 583.79 878.90 580.12   Q 878.90 580.09 879.42 571.28   Z"></path>
  <path fill="#27aae1" d="   M 1040.58 558.24   Q 1040.76 563.05 1042.04 582.27   Q 1042.16 584.18 1040.30 587.36   C 1036.61 593.69 1031.66 597.21 1024.95 601.03   Q 1003.73 613.09 978.78 629.25   C 976.27 630.87 970.53 633.25 967.64 631.08   Q 966.56 630.27 966.52 628.60   Q 966.49 627.68 966.41 625.73   Q 966.01 615.08 966.30 596.80   C 966.32 595.93 966.46 594.65 966.80 593.85   C 971.01 583.91 977.92 579.32 987.41 573.12   Q 1005.68 561.20 1020.78 552.19   C 1025.86 549.16 1029.61 546.70 1034.76 546.53   Q 1039.69 546.36 1040.23 551.47   Q 1040.37 552.82 1040.58 558.24   Z"></path>
  <path fill="#000000" d="   M 1329.21 695.10   Q 1332.13 697.62 1333.27 698.72   A 0.61 0.61 0.0 0 1 1333.34 699.51   Q 1324.81 711.53 1312.36 720.52   Q 1311.95 720.82 1311.56 720.50   Q 1299.53 710.97 1281.89 698.56   A 0.84 0.84 0.0 0 1 1281.74 697.32   Q 1291.72 685.87 1301.84 675.74   Q 1302.28 675.30 1302.81 675.63   Q 1316.86 684.42 1329.21 695.10   Z"></path>
  <path fill="#000000" d="   M 1121.95 903.81   L 1119.53 902.45   Q 1119.04 902.17 1119.13 901.59   Q 1121.71 884.62 1121.73 866.75   Q 1121.76 830.97 1121.76 829.50   Q 1121.77 810.56 1118.50 766.00   Q 1116.26 735.57 1112.55 701.25   Q 1112.34 699.29 1112.90 698.67   Q 1122.76 687.78 1137.25 676.25   A 2.01 2.01 0.0 0 1 1140.50 677.61   Q 1142.45 695.65 1143.61 712.25   Q 1146.28 750.70 1146.86 801.27   Q 1147.10 822.61 1146.95 839.50   Q 1146.78 857.53 1144.83 871.20   Q 1143.82 878.28 1139.87 884.19   Q 1133.12 894.29 1122.22 903.79   A 0.24 0.23 38.8 0 1 1121.95 903.81   Z"></path>
  <path fill="#000000" d="   M 1067.88 852.32   Q 1067.83 847.57 1065.41 841.22   Q 1063.38 835.91 1060.48 831.37   Q 1049.68 814.46 1032.42 801.75   Q 1016.08 789.71 1000.78 782.52   Q 988.97 776.97 987.60 776.27   Q 982.80 773.84 982.45 769.61   Q 982.23 766.88 984.48 762.30   Q 989.17 752.78 995.21 744.85   A 2.59 2.59 0.0 0 1 998.48 744.13   Q 1020.57 755.81 1039.98 771.30   Q 1051.29 780.33 1061.85 791.63   Q 1072.38 802.90 1078.86 815.31   Q 1088.12 833.07 1084.58 853.54   Q 1082.21 867.25 1075.14 879.79   A 2.52 2.52 0.0 0 1 1074.11 880.79   Q 1057.78 889.29 1039.72 894.95   Q 1021.16 900.76 1002.26 900.96   Q 995.82 901.03 988.57 899.70   Q 962.88 895.00 955.44 872.63   Q 953.07 865.51 952.81 855.69   Q 952.57 847.00 954.12 838.37   A 0.44 0.44 0.0 0 1 954.56 838.00   L 963.72 838.00   Q 964.23 838.00 964.27 838.50   C 964.83 845.21 965.72 851.05 969.07 856.71   Q 972.62 862.69 978.69 866.15   Q 986.50 870.60 995.93 871.62   Q 1018.35 874.07 1041.41 866.64   Q 1049.67 863.98 1062.61 858.12   Q 1064.93 857.07 1066.99 855.00   Q 1067.89 854.10 1067.88 852.32   Z"></path>
  <path fill="#000000" d="   M 1214.98 891.67   Q 1216.99 914.27 1205.04 933.08   Q 1195.86 947.51 1182.85 959.33   C 1170.30 970.73 1155.08 978.22 1138.13 976.90   Q 1127.21 976.05 1118.06 973.81   Q 1097.75 968.84 1078.11 959.84   Q 1077.86 959.72 1077.99 959.48   L 1081.77 952.26   A 0.36 0.36 0.0 0 1 1082.22 952.09   Q 1092.36 955.83 1104.97 956.66   Q 1120.49 957.68 1135.05 952.58   C 1156.93 944.90 1178.05 929.35 1190.40 909.42   Q 1195.44 901.30 1197.56 891.52   A 1.31 1.31 0.0 0 0 1197.43 890.63   C 1194.62 885.33 1189.77 880.51 1185.93 875.54   Q 1176.00 862.66 1168.20 848.66   Q 1168.01 848.32 1168.19 847.98   Q 1175.32 834.10 1182.06 823.17   A 1.85 1.85 0.0 0 1 1185.30 823.33   C 1190.52 834.06 1196.54 845.02 1204.51 853.82   Q 1218.34 869.11 1240.06 869.91   Q 1255.33 870.48 1274.40 870.04   Q 1286.82 869.76 1288.23 869.73   Q 1302.30 869.40 1316.01 867.53   Q 1329.89 865.64 1342.63 859.65   Q 1348.70 856.81 1353.52 852.53   Q 1357.71 848.81 1356.12 843.20   A 0.59 0.59 0.0 0 0 1355.49 842.77   Q 1352.28 843.10 1345.73 843.40   Q 1341.18 843.61 1322.01 843.49   Q 1306.02 843.39 1291.86 839.39   C 1282.79 836.84 1273.41 831.99 1267.75 824.63   Q 1259.38 813.74 1260.90 798.79   C 1263.14 776.69 1276.41 758.91 1296.28 749.80   C 1318.88 739.45 1338.84 749.95 1351.98 768.84   Q 1371.27 796.59 1373.88 832.03   Q 1374.80 844.65 1373.13 853.89   Q 1370.89 866.21 1363.08 875.20   Q 1358.81 880.10 1351.63 884.30   C 1342.44 889.67 1331.78 892.87 1321.29 894.74   Q 1302.09 898.15 1281.03 898.53   Q 1264.39 898.83 1264.08 898.83   Q 1239.75 898.70 1232.49 897.85   Q 1223.18 896.75 1215.62 891.31   A 0.40 0.40 0.0 0 0 1214.98 891.67   Z   M 1338.54 817.09   Q 1346.43 817.36 1351.36 817.22   A 0.24 0.24 0.0 0 0 1351.58 816.92   Q 1346.01 796.35 1330.78 783.63   Q 1313.55 769.26 1291.99 777.93   Q 1284.45 780.96 1279.51 787.30   C 1274.25 794.04 1277.11 801.08 1283.37 805.77   C 1289.21 810.15 1298.05 812.53 1305.54 813.93   C 1316.09 815.91 1327.26 816.71 1338.54 817.09   Z"></path>
  <path fill="#000000" d="   M 830.55 941.01   C 850.65 941.11 870.15 933.47 886.75 921.74   Q 907.31 907.23 920.48 885.47   Q 922.92 881.42 924.35 877.61   C 926.42 872.09 924.63 866.49 921.79 861.01   Q 908.77 835.97 890.88 812.55   Q 890.48 812.03 890.83 811.47   Q 898.65 798.81 908.35 785.08   A 1.79 1.79 0.0 0 1 911.34 785.17   Q 917.78 795.61 929.69 815.05   Q 932.28 819.28 934.54 823.68   Q 942.08 838.32 942.16 853.04   Q 942.28 873.60 942.28 873.77   Q 942.51 885.67 941.18 891.30   Q 938.45 902.85 932.74 912.52   Q 922.61 929.67 908.24 943.24   Q 903.34 947.88 895.21 952.95   Q 881.20 961.72 867.75 961.87   Q 854.39 962.02 839.96 958.59   Q 819.76 953.79 800.18 944.96   A 0.36 0.36 0.0 0 1 799.99 944.51   L 802.59 937.33   A 0.28 0.28 0.0 0 1 802.92 937.16   Q 816.81 940.94 830.55 941.01   Z"></path>
  <path fill="#000000" d="   M 745.87 893.79   Q 745.62 895.78 745.19 899.49   Q 743.28 915.66 736.30 928.31   C 727.55 944.17 710.06 955.32 693.06 961.80   Q 666.62 971.88 638.32 969.43   C 630.72 968.77 621.80 966.91 614.77 964.12   Q 583.01 951.53 575.80 918.76   Q 573.92 910.18 574.22 898.87   C 574.78 878.10 581.21 857.39 593.49 840.83   A 0.87 0.87 0.0 0 1 594.51 840.54   L 603.59 844.13   A 0.53 0.53 0.0 0 1 603.86 844.89   Q 595.96 858.78 592.69 874.47   Q 590.87 883.21 591.98 892.55   C 595.10 918.88 614.90 933.67 639.78 937.73   Q 645.12 938.61 650.46 938.89   Q 656.02 939.18 661.09 938.69   Q 692.26 935.66 716.57 916.57   Q 724.45 910.39 729.68 901.24   Q 730.52 899.77 731.42 897.17   Q 731.91 895.73 731.53 892.84   Q 729.35 876.53 721.53 862.18   C 717.25 854.34 710.97 844.64 705.42 836.16   Q 705.12 835.69 705.40 835.21   Q 712.62 822.97 722.35 812.20   Q 723.26 811.18 724.00 812.34   Q 730.49 822.57 734.72 832.34   Q 736.29 835.98 743.79 853.76   Q 746.67 860.59 753.88 863.26   Q 760.14 865.58 768.26 863.46   C 780.37 860.31 789.53 854.02 793.10 841.83   Q 797.74 826.02 799.10 821.59   Q 799.24 821.12 799.69 820.90   L 814.24 813.63   A 1.35 1.35 0.0 0 1 816.16 815.15   Q 813.12 827.80 813.84 838.48   Q 814.68 850.84 824.76 856.89   Q 833.12 861.90 843.02 861.43   C 848.79 861.15 854.88 858.05 855.18 851.54   Q 855.34 848.24 853.89 840.64   Q 851.61 828.66 847.04 815.85   A 0.80 0.80 0.0 0 1 847.21 815.03   Q 857.80 803.71 869.17 795.18   A 1.55 1.55 0.0 0 1 871.61 796.07   Q 875.51 812.73 876.81 827.53   Q 877.67 837.25 876.64 843.15   Q 875.41 850.16 872.15 858.18   C 866.36 872.45 856.07 884.77 841.39 888.95   Q 832.95 891.35 823.16 889.06   Q 807.95 885.49 797.35 873.18   Q 796.71 872.43 796.08 873.20   Q 782.13 890.21 760.50 892.91   Q 757.85 893.23 753.49 893.25   Q 746.94 893.26 746.45 893.27   Q 745.93 893.28 745.87 893.79   Z"></path>
</svg>
