<?xml version="1.0" encoding="UTF-8" standalone="no"?>
<svg xmlns="http://www.w3.org/2000/svg" version="1.1" viewBox="0.00 0.00 500.00 500.00">
  <g stroke-width="2.00" fill="none" stroke-linecap="butt">
    <path stroke="#9bcd54" vector-effect="non-scaling-stroke" d="   M 332.98 33.91   Q 321.75 41.92 311.08 50.60   Q 288.68 68.83 266.62 87.14"></path>
    <path stroke="#bad978" vector-effect="non-scaling-stroke" d="   M 266.62 87.14   L 250.43 86.34"></path>
    <path stroke="#c4df8e" vector-effect="non-scaling-stroke" d="   M 250.43 86.34   L 250.35 77.72"></path>
    <path stroke="#bad978" vector-effect="non-scaling-stroke" d="   M 250.35 77.72   L 250.37 35.40   A 0.21 0.21 0.0 0 0 250.01 35.25   Q 209.65 75.66 169.24 115.99   Q 157.33 127.89 153.85 132.36   Q 120.50 175.24 128.22 229.68"></path>
    <path stroke="#9bcd54" vector-effect="non-scaling-stroke" d="   M 128.22 229.68   Q 121.37 237.72 115.84 242.78   Q 94.73 262.12 68.69 279.06"></path>
    <path stroke="#7ac358" vector-effect="non-scaling-stroke" d="   M 434.54 147.78   Q 407.48 170.16 396.36 179.06   Q 386.19 187.20 373.32 196.04"></path>
    <path stroke="#a8d47a" vector-effect="non-scaling-stroke" d="   M 373.32 196.04   Q 369.58 163.60 351.26 138.24   Q 320.14 95.13 266.62 87.14"></path>
    <path stroke="#d1e6b5" vector-effect="non-scaling-stroke" d="   M 250.43 86.34   L 250.41 121.43"></path>
    <path stroke="#edf6e5" vector-effect="non-scaling-stroke" d="   M 250.41 121.43   Q 250.27 120.96 250.07 120.84   Q 249.89 120.74 249.59 121.04   Q 205.82 164.90 192.39 178.23   Q 182.70 187.85 178.99 193.05   C 158.21 222.11 156.40 259.67 174.44 290.31   Q 184.81 307.92 202.44 319.26   Q 208.93 323.44 215.53 327.49"></path>
    <path stroke="#b2da91" vector-effect="non-scaling-stroke" d="   M 215.53 327.49   L 207.78 325.56"></path>
    <path stroke="#99d07c" vector-effect="non-scaling-stroke" d="   M 373.32 196.04   Q 376.19 222.67 368.80 246.03   Q 352.86 296.44 304.75 320.99   Q 300.05 323.39 293.35 325.48"></path>
    <path stroke="#d1e6b5" vector-effect="non-scaling-stroke" d="   M 293.35 325.48   Q 294.98 323.56 297.28 322.53   Q 300.03 321.29 300.10 321.25   Q 329.74 305.22 344.81 275.59   Q 358.23 249.22 356.05 219.84   C 354.31 196.49 345.16 174.58 329.52 157.18   Q 298.72 122.90 250.41 121.43"></path>
    <path stroke="#d1e6b5" vector-effect="non-scaling-stroke" d="   M 250.35 77.72   Q 212.44 115.65 174.66 153.41   Q 152.85 175.22 146.37 207.57   Q 144.35 217.64 144.42 227.51   Q 144.55 245.86 149.76 260.89   Q 164.94 304.67 207.25 324.54   Q 207.65 324.73 207.78 325.56"></path>
    <path stroke="#a8d47a" vector-effect="non-scaling-stroke" d="   M 207.78 325.56   Q 206.15 325.42 205.75 325.27   C 164.92 309.36 135.59 273.35 128.22 229.68"></path>
    <path stroke="#5dbc5a" vector-effect="non-scaling-stroke" d="   M 436.69 265.21   Q 431.66 269.56 417.79 281.16   Q 326.30 357.66 284.54 392.26   Q 267.50 406.38 250.90 416.81   Q 250.47 417.08 250.44 417.58   L 250.36 419.04"></path>
    <path stroke="#7ac358" vector-effect="non-scaling-stroke" d="   M 156.09 379.89   L 215.69 327.68"></path>
    <path stroke="#a3d692" vector-effect="non-scaling-stroke" d="   M 293.35 325.48   L 285.00 327.74"></path>
    <path stroke="#edf6e5" vector-effect="non-scaling-stroke" d="   M 250.41 121.43   L 250.44 156.26   Q 250.44 156.81 251.00 156.82   Q 284.98 157.55 309.36 179.47   C 334.84 202.37 344.71 237.33 335.14 270.15   C 328.69 292.24 314.06 310.44 294.07 322.04   Q 289.44 324.73 285.00 327.74"></path>
    <path stroke="#b5dfac" vector-effect="non-scaling-stroke" d="   M 285.00 327.74   Q 250.36 339.42 215.69 327.68"></path>
    <path stroke="#c4e3ab" vector-effect="non-scaling-stroke" d="   M 215.69 327.68   Q 215.75 327.58 215.53 327.49"></path>
  </g>
  <path fill="#add251" d="   M 332.98 33.91   Q 321.75 41.92 311.08 50.60   Q 288.68 68.83 266.62 87.14   L 250.43 86.34   L 250.35 77.72   L 250.37 35.40   A 0.21 0.21 0.0 0 0 250.01 35.25   Q 209.65 75.66 169.24 115.99   Q 157.33 127.89 153.85 132.36   Q 120.50 175.24 128.22 229.68   Q 121.37 237.72 115.84 242.78   Q 94.73 262.12 68.69 279.06   C 38.10 197.16 64.53 106.12 134.59 53.86   Q 173.77 24.63 223.00 17.46   Q 279.56 9.22 332.98 33.91   Z"></path>
  <path fill="#89c756" d="   M 332.98 33.91   Q 363.89 48.51 388.01 72.74   Q 420.02 104.92 434.54 147.78   Q 407.48 170.16 396.36 179.06   Q 386.19 187.20 373.32 196.04   Q 369.58 163.60 351.26 138.24   Q 320.14 95.13 266.62 87.14   Q 288.68 68.83 311.08 50.60   Q 321.75 41.92 332.98 33.91   Z"></path>
  <path fill="#c7e09e" d="   M 250.35 77.72   Q 212.44 115.65 174.66 153.41   Q 152.85 175.22 146.37 207.57   Q 144.35 217.64 144.42 227.51   Q 144.55 245.86 149.76 260.89   Q 164.94 304.67 207.25 324.54   Q 207.65 324.73 207.78 325.56   Q 206.15 325.42 205.75 325.27   C 164.92 309.36 135.59 273.35 128.22 229.68   Q 120.50 175.24 153.85 132.36   Q 157.33 127.89 169.24 115.99   Q 209.65 75.66 250.01 35.25   A 0.21 0.21 0.0 0 1 250.37 35.40   L 250.35 77.72   Z"></path>
  <path fill="#dbeccb" d="   M 250.35 77.72   L 250.43 86.34   L 250.41 121.43   Q 250.27 120.96 250.07 120.84   Q 249.89 120.74 249.59 121.04   Q 205.82 164.90 192.39 178.23   Q 182.70 187.85 178.99 193.05   C 158.21 222.11 156.40 259.67 174.44 290.31   Q 184.81 307.92 202.44 319.26   Q 208.93 323.44 215.53 327.49   L 207.78 325.56   Q 207.65 324.73 207.25 324.54   Q 164.94 304.67 149.76 260.89   Q 144.55 245.86 144.42 227.51   Q 144.35 217.64 146.37 207.57   Q 152.85 175.22 174.66 153.41   Q 212.44 115.65 250.35 77.72   Z"></path>
  <path fill="#c7e09e" d="   M 266.62 87.14   Q 320.14 95.13 351.26 138.24   Q 369.58 163.60 373.32 196.04   Q 376.19 222.67 368.80 246.03   Q 352.86 296.44 304.75 320.99   Q 300.05 323.39 293.35 325.48   Q 294.98 323.56 297.28 322.53   Q 300.03 321.29 300.10 321.25   Q 329.74 305.22 344.81 275.59   Q 358.23 249.22 356.05 219.84   C 354.31 196.49 345.16 174.58 329.52 157.18   Q 298.72 122.90 250.41 121.43   L 250.43 86.34   L 266.62 87.14   Z"></path>
  <path fill="#ffffff" d="   M 250.41 121.43   L 250.44 156.26   Q 250.44 156.81 251.00 156.82   Q 284.98 157.55 309.36 179.47   C 334.84 202.37 344.71 237.33 335.14 270.15   C 328.69 292.24 314.06 310.44 294.07 322.04   Q 289.44 324.73 285.00 327.74   Q 250.36 339.42 215.69 327.68   Q 215.75 327.58 215.53 327.49   Q 208.93 323.44 202.44 319.26   Q 184.81 307.92 174.44 290.31   C 156.40 259.67 158.21 222.11 178.99 193.05   Q 182.70 187.85 192.39 178.23   Q 205.82 164.90 249.59 121.04   Q 249.89 120.74 250.07 120.84   Q 250.27 120.96 250.41 121.43   Z"></path>
  <path fill="#dbeccb" d="   M 293.35 325.48   L 285.00 327.74   Q 289.44 324.73 294.07 322.04   C 314.06 310.44 328.69 292.24 335.14 270.15   C 344.71 237.33 334.84 202.37 309.36 179.47   Q 284.98 157.55 251.00 156.82   Q 250.44 156.81 250.44 156.26   L 250.41 121.43   Q 298.72 122.90 329.52 157.18   C 345.16 174.58 354.31 196.49 356.05 219.84   Q 358.23 249.22 344.81 275.59   Q 329.74 305.22 300.10 321.25   Q 300.03 321.29 297.28 322.53   Q 294.98 323.56 293.35 325.48   Z"></path>
  <path fill="#6bbf59" d="   M 434.54 147.78   Q 440.33 165.02 442.80 182.83   Q 443.91 190.83 443.92 202.76   Q 443.92 210.67 443.93 218.59   Q 443.95 227.81 443.13 234.37   Q 441.17 250.03 436.69 265.21   Q 431.66 269.56 417.79 281.16   Q 326.30 357.66 284.54 392.26   Q 267.50 406.38 250.90 416.81   Q 250.47 417.08 250.44 417.58   L 250.36 419.04   L 250.24 404.81   Q 250.24 404.30 249.73 404.30   Q 199.72 403.70 156.09 379.89   L 215.69 327.68   Q 250.36 339.42 285.00 327.74   L 293.35 325.48   Q 300.05 323.39 304.75 320.99   Q 352.86 296.44 368.80 246.03   Q 376.19 222.67 373.32 196.04   Q 386.19 187.20 396.36 179.06   Q 407.48 170.16 434.54 147.78   Z"></path>
  <path fill="#89c756" d="   M 128.22 229.68   C 135.59 273.35 164.92 309.36 205.75 325.27   Q 206.15 325.42 207.78 325.56   L 215.53 327.49   Q 215.75 327.58 215.69 327.68   L 156.09 379.89   Q 94.59 344.79 68.69 279.06   Q 94.73 262.12 115.84 242.78   Q 121.37 237.72 128.22 229.68   Z"></path>
  <path fill="#4eb95b" d="   M 436.69 265.21   Q 424.93 304.34 398.87 335.25   Q 394.30 340.67 385.17 349.82   Q 318.06 417.02 250.75 484.26   A 0.23 0.23 0.0 0 1 250.36 484.10   L 250.36 419.04   L 250.44 417.58   Q 250.47 417.08 250.90 416.81   Q 267.50 406.38 284.54 392.26   Q 326.30 357.66 417.79 281.16   Q 431.66 269.56 436.69 265.21   Z"></path>
</svg>
