<svg height="1000" viewBox="0 0 1000 1000" width="1000" xmlns="http://www.w3.org/2000/svg">
    <path clip-rule="evenodd" d="M548.27 629.839L668.669 750.213C673.894 755.435 680.762 765.089 687.916 767C690.041 759.048 758.981 693.494 766.136 686.342L965.978 486.538C986.015 466.506 999.151 461.094 999.151 432.903C999.151 411.298 978.934 393.597 951.646 393.597C939.31 393.597 867.713 391.8 860.817 396.136C855.328 399.587 849.996 437.218 802.962 475.862C769.754 503.475 727.832 518.428 684.641 518.064C641.449 518.064 595.959 499.416 572.882 479.127C558.951 468.005 546.425 455.231 535.579 441.086C517.161 415.069 519.718 410.31 512.988 398.166C509.888 392.574 515.201 393.597 492.985 393.597C487.76 393.597 482.173 410.243 476.606 421.439C461.917 450.248 439.148 474.151 411.083 490.223C421.957 506.46 531.866 613.438 548.27 629.839Z" fill="#005EA6" fill-rule="evenodd"/>
    <path clip-rule="evenodd" d="M1.56396 432.903C1.56396 459.482 9.65108 461.459 33.0964 484.899L293.55 745.299C299.194 750.942 310.768 759.405 312.799 767C319.613 765.179 342.729 739.531 349.246 733.016C363.496 718.769 451.964 631.958 456.948 624.516C452.217 617.453 374.47 541.251 361.532 528.3C340.766 507.517 348.822 518.064 314.436 518.064C268.136 518.064 236.404 502.771 202.365 479.44C191.931 471.407 182.407 462.257 173.963 452.154C164.668 441.857 156.984 430.214 151.171 417.62C135.264 386.019 157.456 393.597 57.258 393.597C41.8702 393.597 29.1773 394.41 18.3395 402.181C8.23532 409.222 2.02376 420.598 1.56396 432.903H1.56396Z" fill="#D3202B" fill-rule="evenodd"/>
    <path clip-rule="evenodd" d="M189.943 331.363C189.943 461.989 365.405 508.968 426.939 386.521C443.399 352.313 443.194 312.434 426.384 278.397C366.22 158.644 189.943 205.45 189.943 331.363Z" fill="#D3202B" fill-rule="evenodd"/>
    <path clip-rule="evenodd" d="M561.786 323.173C561.786 365.354 569.538 392.264 599.87 422.665C647.844 470.755 726.747 468.651 775.17 420.235C797.261 396.458 809.919 365.442 810.771 333.001C810.771 218.612 670.852 171.595 600.68 242.508C580.476 262.928 561.786 291.262 561.786 323.173Z" fill="#005EA6" fill-rule="evenodd"/>
</svg>