<?xml version="1.0" encoding="UTF-8" standalone="no"?>
<svg xmlns="http://www.w3.org/2000/svg" version="1.1" viewBox="0.00 0.00 1683.00 538.00">
  <g stroke-width="2.00" fill="none" stroke-linecap="butt">
    <path stroke="#53afff" vector-effect="non-scaling-stroke" d="   M 24.00 8.21   L 20.01 9.04   Q 19.58 9.13 19.30 9.46   Q 19.20 9.58 19.09 9.69   A 0.53 0.53 0.0 0 1 18.66 9.87   Q 18.16 9.83 18.15 9.59"></path>
    <path stroke="#53afff" vector-effect="non-scaling-stroke" d="   M 66.79 10.03   Q 66.86 10.18 66.88 10.35   Q 66.91 10.62 67.18 10.65   Q 67.72 10.71 67.73 10.71   Q 95.73 18.15 102.32 46.08   Q 102.54 46.98 103.01 50.87   Q 103.31 53.33 104.13 55.62"></path>
    <path stroke="#53afff" vector-effect="non-scaling-stroke" d="   M 104.55 60.63   Q 104.08 64.92 104.09 72.72   Q 104.23 163.84 104.12 505.74   Q 104.12 507.04 105.00 506.81"></path>
    <path stroke="#53afff" vector-effect="non-scaling-stroke" d="   M 104.18 513.18   Q 103.38 515.52 102.63 517.78   Q 101.67 520.70 100.56 522.13   Q 98.17 525.19 94.48 526.53   Q 93.31 526.95 89.99 527.23   Q 87.65 527.42 85.48 528.03"></path>
    <path stroke="#53afff" vector-effect="non-scaling-stroke" d="   M 77.62 528.48   Q 69.46 527.55 61.40 528.49"></path>
    <path stroke="#53afff" vector-effect="non-scaling-stroke" d="   M 56.58 527.97   Q 41.61 526.67 30.31 519.66   Q 18.24 512.16 12.13 497.00"></path>
    <path stroke="#53afff" vector-effect="non-scaling-stroke" d="   M 9.55 488.72   L 8.25 480.15"></path>
    <path stroke="#53afff" vector-effect="non-scaling-stroke" d="   M 8.24 23.26   Q 9.25 16.41 15.46 10.98"></path>
    <path stroke="#53afff" vector-effect="non-scaling-stroke" d="   M 66.46 9.92   Q 62.97 9.39 59.51 8.73   Q 59.19 8.67 59.03 8.52   Q 58.79 8.31 58.74 8.05"></path>
    <path stroke="#53afff" vector-effect="non-scaling-stroke" d="   M 664.72 9.43   L 656.56 8.15"></path>
    <path stroke="#53afff" vector-effect="non-scaling-stroke" d="   M 667.27 10.17   Q 676.35 14.15 678.86 15.63   Q 696.54 25.97 699.62 47.19   Q 700.62 54.09 701.15 56.05"></path>
    <path stroke="#53afff" vector-effect="non-scaling-stroke" d="   M 701.58 59.54   L 701.31 59.92   A 1.12 1.12 0.0 0 0 701.11 60.56   Q 701.06 371.77 701.20 420.01   Q 701.22 428.02 702.40 432.87   Q 704.89 443.09 715.42 447.00   Q 720.11 448.73 725.12 449.39"></path>
    <path stroke="#53afff" vector-effect="non-scaling-stroke" d="   M 726.69 449.76   Q 726.68 450.28 727.74 450.56   Q 735.74 452.67 743.98 453.48"></path>
    <path stroke="#53afff" vector-effect="non-scaling-stroke" d="   M 745.87 453.75   Q 746.89 455.06 749.13 454.32"></path>
    <path stroke="#53afff" vector-effect="non-scaling-stroke" d="   M 752.06 454.78   Q 760.08 457.03 768.34 456.61"></path>
    <path stroke="#53afff" vector-effect="non-scaling-stroke" d="   M 770.94 456.71   Q 777.04 458.27 783.17 457.39"></path>
    <path stroke="#53afff" vector-effect="non-scaling-stroke" d="   M 842.47 457.44   Q 848.70 458.35 854.82 456.69"></path>
    <path stroke="#53afff" vector-effect="non-scaling-stroke" d="   M 857.82 456.43   Q 862.19 457.62 865.65 455.60"></path>
    <path stroke="#53afff" vector-effect="non-scaling-stroke" d="   M 903.77 449.42   Q 914.10 447.52 920.88 439.66   Q 923.51 436.60 923.58 432.25   Q 924.18 394.94 923.36 361.91"></path>
    <path stroke="#53afff" vector-effect="non-scaling-stroke" d="   M 923.44 274.61   Q 924.46 268.51 923.49 262.30"></path>
    <path stroke="#53afff" vector-effect="non-scaling-stroke" d="   M 924.08 255.23   Q 927.25 233.86 939.55 219.01   Q 951.36 204.75 968.24 197.08   Q 974.99 194.01 981.89 191.29   Q 982.86 190.90 982.36 190.69"></path>
    <path stroke="#53afff" vector-effect="non-scaling-stroke" d="   M 983.42 190.26   Q 983.31 191.12 984.80 190.60   Q 998.20 185.96 1010.89 183.63   C 1011.74 183.47 1012.73 182.88 1013.50 182.88   Q 1016.30 182.87 1017.35 182.05   Q 1017.77 181.73 1018.29 181.76   Q 1020.53 181.91 1022.15 181.34   C 1024.15 180.64 1026.54 181.13 1028.47 179.90   Q 1028.90 179.63 1029.41 179.70   Q 1031.99 180.07 1034.60 178.99   A 2.08 2.08 0.0 0 1 1035.54 178.84   Q 1038.46 179.04 1040.75 177.94   Q 1041.20 177.72 1041.70 177.78   Q 1045.22 178.20 1048.07 176.45"></path>
    <path stroke="#53afff" vector-effect="non-scaling-stroke" d="   M 1048.27 176.54   Q 1051.82 177.56 1054.62 175.70"></path>
    <path stroke="#53afff" vector-effect="non-scaling-stroke" d="   M 1056.19 175.51   Q 1059.88 176.31 1063.24 174.71"></path>
    <path stroke="#53afff" vector-effect="non-scaling-stroke" d="   M 1064.66 174.48   Q 1068.73 175.52 1071.64 173.71"></path>
    <path stroke="#53afff" vector-effect="non-scaling-stroke" d="   M 1104.67 171.43   Q 1112.33 172.62 1119.65 171.25"></path>
    <path stroke="#53afff" vector-effect="non-scaling-stroke" d="   M 1140.92 171.22   Q 1146.53 172.18 1152.23 171.87   Q 1152.38 171.87 1155.28 171.97   Q 1156.94 172.02 1158.34 171.34"></path>
    <path stroke="#53afff" vector-effect="non-scaling-stroke" d="   M 1188.91 172.74   Q 1192.89 174.22 1197.32 173.33"></path>
    <path stroke="#53afff" vector-effect="non-scaling-stroke" d="   M 1203.78 173.88   Q 1206.86 175.29 1210.12 174.46"></path>
    <path stroke="#53afff" vector-effect="non-scaling-stroke" d="   M 1214.10 174.84   Q 1224.90 177.08 1235.85 177.42"></path>
    <path stroke="#53afff" vector-effect="non-scaling-stroke" d="   M 1238.18 177.86   L 1263.10 182.45"></path>
    <path stroke="#53afff" vector-effect="non-scaling-stroke" d="   M 1264.63 182.70   Q 1277.16 186.23 1289.40 190.11   Q 1301.21 193.85 1312.16 199.51   Q 1322.23 204.71 1328.74 210.56   Q 1346.80 226.76 1351.09 252.73"></path>
    <path stroke="#53afff" vector-effect="non-scaling-stroke" d="   M 1352.56 433.95   Q 1352.38 438.12 1355.92 440.59"></path>
    <path stroke="#53afff" vector-effect="non-scaling-stroke" d="   M 1357.34 441.68   Q 1357.50 442.74 1359.89 443.88   Q 1371.20 449.31 1381.00 452.21   Q 1385.32 453.48 1387.89 453.29"></path>
    <path stroke="#53afff" vector-effect="non-scaling-stroke" d="   M 1398.89 454.83   Q 1402.03 456.17 1405.36 455.46"></path>
    <path stroke="#53afff" vector-effect="non-scaling-stroke" d="   M 1410.36 455.89   Q 1414.14 457.13 1417.90 456.46"></path>
    <path stroke="#53afff" vector-effect="non-scaling-stroke" d="   M 1422.73 456.70   Q 1428.52 458.18 1434.36 457.44"></path>
    <path stroke="#53afff" vector-effect="non-scaling-stroke" d="   M 1509.88 456.39   Q 1511.21 457.04 1514.26 456.61   Q 1516.33 456.32 1516.77 456.22   C 1519.17 455.66 1521.41 455.99 1523.70 455.30   Q 1524.30 455.12 1526.85 454.94   Q 1528.79 454.80 1529.93 453.76"></path>
    <path stroke="#53afff" vector-effect="non-scaling-stroke" d="   M 1537.42 452.43   Q 1545.40 451.39 1553.15 449.27   Q 1560.55 447.24 1560.63 447.22   Q 1564.48 445.94 1567.61 443.61   Q 1573.57 439.18 1573.56 432.52"></path>
    <path stroke="#53afff" vector-effect="non-scaling-stroke" d="   M 1574.02 274.99   Q 1574.58 269.38 1574.78 263.79   Q 1575.05 256.21 1575.88 252.65   Q 1580.22 234.09 1597.03 223.78   Q 1599.93 222.00 1610.01 217.87"></path>
    <path stroke="#53afff" vector-effect="non-scaling-stroke" d="   M 1648.72 216.20   Q 1658.87 215.96 1665.25 220.99   Q 1668.82 223.80 1670.78 230.45"></path>
    <path stroke="#53afff" vector-effect="non-scaling-stroke" d="   M 1670.97 357.21   Q 1670.19 361.35 1670.88 365.72"></path>
    <path stroke="#53afff" vector-effect="non-scaling-stroke" d="   M 1670.96 434.95   Q 1669.69 453.78 1662.05 469.70   Q 1657.41 479.37 1651.05 486.31   C 1639.77 498.62 1624.40 506.13 1608.12 510.60   Q 1579.08 518.58 1549.79 522.82   Q 1549.20 522.91 1549.04 523.42"></path>
    <path stroke="#53afff" vector-effect="non-scaling-stroke" d="   M 1547.38 523.43   Q 1540.43 523.32 1533.83 525.16"></path>
    <path stroke="#53afff" vector-effect="non-scaling-stroke" d="   M 1531.70 525.51   Q 1527.06 524.87 1524.51 525.86   Q 1523.14 526.39 1522.06 526.22   Q 1520.17 525.91 1520.14 525.91   Q 1516.58 526.00 1513.34 527.07"></path>
    <path stroke="#53afff" vector-effect="non-scaling-stroke" d="   M 1507.44 527.42   Q 1500.85 526.86 1494.41 528.02"></path>
    <path stroke="#53afff" vector-effect="non-scaling-stroke" d="   M 1483.25 528.55   L 1442.83 528.48"></path>
    <path stroke="#53afff" vector-effect="non-scaling-stroke" d="   M 1434.81 528.05   Q 1426.46 526.94 1418.10 527.43"></path>
    <path stroke="#53afff" vector-effect="non-scaling-stroke" d="   M 1412.61 527.17   Q 1409.02 525.30 1405.38 526.58"></path>
    <path stroke="#53afff" vector-effect="non-scaling-stroke" d="   M 1390.41 525.02   Q 1384.64 523.09 1378.35 523.41"></path>
    <path stroke="#53afff" vector-effect="non-scaling-stroke" d="   M 1376.10 523.01   Q 1340.20 517.37 1305.48 507.26   Q 1304.44 506.96 1304.13 507.40"></path>
    <path stroke="#53afff" vector-effect="non-scaling-stroke" d="   M 1301.80 507.35   L 1268.36 517.07"></path>
    <path stroke="#53afff" vector-effect="non-scaling-stroke" d="   M 1266.39 517.55   Q 1257.51 518.49 1248.91 521.29"></path>
    <path stroke="#53afff" vector-effect="non-scaling-stroke" d="   M 1247.62 521.48   Q 1242.63 521.35 1238.10 523.08"></path>
    <path stroke="#53afff" vector-effect="non-scaling-stroke" d="   M 1235.49 523.57   Q 1232.98 522.89 1230.87 524.16"></path>
    <path stroke="#53afff" vector-effect="non-scaling-stroke" d="   M 1228.63 524.42   Q 1225.64 523.74 1222.93 525.18"></path>
    <path stroke="#53afff" vector-effect="non-scaling-stroke" d="   M 1220.35 525.53   Q 1217.11 524.79 1214.11 526.20"></path>
    <path stroke="#53afff" vector-effect="non-scaling-stroke" d="   M 1211.64 526.41   Q 1207.62 525.41 1204.06 527.16"></path>
    <path stroke="#53afff" vector-effect="non-scaling-stroke" d="   M 1201.26 527.43   Q 1196.22 526.71 1191.40 528.17"></path>
    <path stroke="#53afff" vector-effect="non-scaling-stroke" d="   M 1187.05 528.45   Q 1181.02 527.78 1175.07 529.15"></path>
    <path stroke="#53afff" vector-effect="non-scaling-stroke" d="   M 1169.46 529.39   L 1151.21 529.84"></path>
    <path stroke="#53afff" vector-effect="non-scaling-stroke" d="   M 1122.01 529.84   L 1109.90 529.57"></path>
    <path stroke="#53afff" vector-effect="non-scaling-stroke" d="   M 1100.00 529.11   Q 1094.53 527.59 1089.06 528.45"></path>
    <path stroke="#53afff" vector-effect="non-scaling-stroke" d="   M 1082.18 527.91   Q 1078.81 526.57 1075.31 527.52"></path>
    <path stroke="#53afff" vector-effect="non-scaling-stroke" d="   M 1070.71 527.08   Q 1067.90 525.28 1064.54 526.45"></path>
    <path stroke="#53afff" vector-effect="non-scaling-stroke" d="   M 1063.02 526.36   Q 1057.19 525.29 1038.39 522.62   Q 1014.01 519.15 976.95 508.04   Q 974.14 507.20 972.25 507.29   Q 969.45 507.42 967.36 508.07   Q 931.91 519.04 895.44 523.74   Q 895.21 523.77 895.08 523.92   Q 894.92 524.11 894.97 524.33"></path>
    <path stroke="#53afff" vector-effect="non-scaling-stroke" d="   M 892.65 524.44   Q 889.33 523.62 886.37 525.17"></path>
    <path stroke="#53afff" vector-effect="non-scaling-stroke" d="   M 882.86 525.54   Q 879.07 524.87 875.88 526.24"></path>
    <path stroke="#53afff" vector-effect="non-scaling-stroke" d="   M 854.87 527.52   Q 846.81 526.84 838.87 528.08"></path>
    <path stroke="#53afff" vector-effect="non-scaling-stroke" d="   M 828.21 528.56   Q 810.30 527.53 792.43 528.48"></path>
    <path stroke="#53afff" vector-effect="non-scaling-stroke" d="   M 785.33 528.02   Q 776.64 527.26 767.92 526.92   Q 767.84 526.92 766.21 527.04   Q 764.98 527.13 763.18 526.65   Q 759.08 525.57 753.74 526.48"></path>
    <path stroke="#53afff" vector-effect="non-scaling-stroke" d="   M 749.11 526.14   Q 745.92 524.72 742.09 525.09   Q 741.60 525.14 741.14 524.96   Q 740.52 524.71 740.50 524.71   Q 707.82 520.95 681.98 515.16   Q 666.34 511.66 652.06 505.28   Q 636.36 498.26 624.84 486.23   Q 615.95 476.94 610.71 462.98   Q 609.53 459.84 608.10 453.86   Q 607.03 449.38 605.82 444.91"></path>
    <path stroke="#53afff" vector-effect="non-scaling-stroke" d="   M 618.48 8.13   Q 613.23 10.38 610.71 12.47   Q 607.05 15.51 606.01 21.73   Q 605.43 25.14 605.68 34.31   Q 605.84 39.92 605.84 46.79   Q 605.88 236.11 605.84 413.22   Q 605.83 434.87 606.05 440.49   Q 606.07 441.10 605.47 441.74"></path>
    <path stroke="#53afff" vector-effect="non-scaling-stroke" d="   M 363.15 9.59   L 335.15 9.37"></path>
    <path stroke="#53afff" vector-effect="non-scaling-stroke" d="   M 410.94 11.96   Q 411.72 12.50 414.00 12.68   Q 416.25 12.86 417.10 12.46"></path>
    <path stroke="#53afff" vector-effect="non-scaling-stroke" d="   M 418.86 12.72   Q 422.26 13.99 425.81 13.41"></path>
    <path stroke="#53afff" vector-effect="non-scaling-stroke" d="   M 427.73 13.51   Q 427.58 13.82 427.63 13.99   Q 427.67 14.15 427.98 14.18   Q 453.12 17.20 466.39 20.12   Q 474.23 21.85 478.09 22.36"></path>
    <path stroke="#53afff" vector-effect="non-scaling-stroke" d="   M 479.84 23.02   Q 502.51 29.20 518.86 39.90   Q 546.73 58.14 550.56 93.46"></path>
    <path stroke="#53afff" vector-effect="non-scaling-stroke" d="   M 551.77 393.79   Q 551.51 393.78 551.33 393.98   Q 551.20 394.12 551.20 394.39   Q 550.70 410.29 551.53 426.34"></path>
    <path stroke="#53afff" vector-effect="non-scaling-stroke" d="   M 551.21 445.20   Q 550.15 448.11 550.03 451.25   Q 549.89 454.93 549.40 456.66   Q 547.45 463.57 544.51 470.29   Q 537.34 486.69 523.26 497.49   C 511.01 506.90 495.71 513.33 480.26 517.79   Q 477.83 518.49 471.27 519.96   Q 467.18 520.89 462.17 521.67   Q 455.04 522.79 447.90 524.18"></path>
    <path stroke="#53afff" vector-effect="non-scaling-stroke" d="   M 444.90 524.54   Q 442.48 523.81 440.58 525.12"></path>
    <path stroke="#53afff" vector-effect="non-scaling-stroke" d="   M 436.52 525.52   Q 433.83 524.81 431.59 526.07"></path>
    <path stroke="#53afff" vector-effect="non-scaling-stroke" d="   M 427.12 526.49   Q 422.82 525.45 418.69 527.20"></path>
    <path stroke="#53afff" vector-effect="non-scaling-stroke" d="   M 415.66 527.43   Q 410.19 526.61 405.09 528.18"></path>
    <path stroke="#53afff" vector-effect="non-scaling-stroke" d="   M 333.50 528.80   Q 326.76 527.48 320.06 528.46"></path>
    <path stroke="#53afff" vector-effect="non-scaling-stroke" d="   M 312.13 527.95   Q 308.48 526.48 304.86 527.62"></path>
    <path stroke="#53afff" vector-effect="non-scaling-stroke" d="   M 277.17 525.12   Q 270.46 523.10 263.35 523.52"></path>
    <path stroke="#53afff" vector-effect="non-scaling-stroke" d="   M 259.41 522.93   Q 255.42 522.19 243.41 520.30   Q 238.85 519.57 233.91 516.99   Q 229.33 514.60 227.59 510.96   Q 225.25 506.05 225.59 501.80   Q 225.97 496.92 228.21 488.79   Q 230.91 478.93 236.67 471.88   Q 237.19 471.24 239.51 469.32   Q 241.13 467.98 242.07 466.40"></path>
    <path stroke="#53afff" vector-effect="non-scaling-stroke" d="   M 274.07 463.64   Q 277.73 465.69 281.97 464.44"></path>
    <path stroke="#53afff" vector-effect="non-scaling-stroke" d="   M 286.86 464.84   Q 290.97 466.23 295.09 465.49"></path>
    <path stroke="#53afff" vector-effect="non-scaling-stroke" d="   M 300.34 465.88   Q 307.75 467.31 315.09 466.73"></path>
    <path stroke="#53afff" vector-effect="non-scaling-stroke" d="   M 320.70 466.97   Q 333.04 468.62 345.38 467.39"></path>
    <path stroke="#53afff" vector-effect="non-scaling-stroke" d="   M 373.61 467.39   Q 384.81 468.63 395.88 466.96"></path>
    <path stroke="#53afff" vector-effect="non-scaling-stroke" d="   M 400.63 466.57   Q 404.89 467.40 408.85 465.89"></path>
    <path stroke="#53afff" vector-effect="non-scaling-stroke" d="   M 412.14 465.43   Q 415.05 466.36 417.38 464.75"></path>
    <path stroke="#53afff" vector-effect="non-scaling-stroke" d="   M 435.86 461.38   Q 441.13 460.92 447.36 458.60   Q 452.40 456.72 455.10 453.66"></path>
    <path stroke="#53afff" vector-effect="non-scaling-stroke" d="   M 457.54 451.16   Q 460.96 448.09 461.88 443.27   Q 462.07 442.29 461.53 442.24"></path>
    <path stroke="#53afff" vector-effect="non-scaling-stroke" d="   M 461.77 440.96   Q 461.92 440.93 462.05 440.87   Q 462.28 440.78 462.31 440.53   Q 462.69 437.07 462.43 431.81   Q 462.20 427.09 462.55 420.94   Q 462.89 415.09 462.90 410.12   Q 462.93 398.44 462.72 375.25   Q 462.70 373.75 462.02 374.21"></path>
    <path stroke="#53afff" vector-effect="non-scaling-stroke" d="   M 454.92 352.56   Q 451.45 351.72 448.32 353.10"></path>
    <path stroke="#53afff" vector-effect="non-scaling-stroke" d="   M 443.62 353.51   Q 438.94 352.80 435.00 354.35"></path>
    <path stroke="#53afff" vector-effect="non-scaling-stroke" d="   M 420.91 355.57   Q 416.64 354.78 412.63 356.33"></path>
    <path stroke="#53afff" vector-effect="non-scaling-stroke" d="   M 411.15 356.38   Q 406.68 355.44 402.58 357.13"></path>
    <path stroke="#53afff" vector-effect="non-scaling-stroke" d="   M 398.39 357.49   Q 394.65 356.80 391.13 358.17"></path>
    <path stroke="#53afff" vector-effect="non-scaling-stroke" d="   M 387.13 358.49   Q 386.16 357.93 384.84 358.07   Q 383.68 358.19 382.61 358.28   Q 381.28 358.38 380.36 359.11"></path>
    <path stroke="#53afff" vector-effect="non-scaling-stroke" d="   M 376.82 359.44   Q 372.21 358.87 367.90 360.25"></path>
    <path stroke="#53afff" vector-effect="non-scaling-stroke" d="   M 365.16 360.43   Q 361.58 359.62 358.31 361.11"></path>
    <path stroke="#53afff" vector-effect="non-scaling-stroke" d="   M 354.86 361.47   Q 349.91 360.73 345.33 362.24"></path>
    <path stroke="#53afff" vector-effect="non-scaling-stroke" d="   M 342.34 362.40   Q 337.41 361.84 332.21 363.03"></path>
    <path stroke="#53afff" vector-effect="non-scaling-stroke" d="   M 323.07 363.60   Q 310.97 362.82 298.92 363.58"></path>
    <path stroke="#53afff" vector-effect="non-scaling-stroke" d="   M 287.64 362.93   Q 284.05 361.67 280.11 362.40"></path>
    <path stroke="#53afff" vector-effect="non-scaling-stroke" d="   M 277.42 362.15   Q 274.06 360.72 270.86 361.53"></path>
    <path stroke="#53afff" vector-effect="non-scaling-stroke" d="   M 267.68 361.12   Q 264.98 359.52 262.08 360.40"></path>
    <path stroke="#53afff" vector-effect="non-scaling-stroke" d="   M 259.91 359.94   Q 232.88 355.64 207.60 346.37   Q 182.84 337.29 168.58 315.75   Q 161.62 305.24 158.92 294.54   Q 158.31 292.14 157.40 285.37   Q 157.33 284.88 157.39 284.62   Q 157.48 284.21 157.20 283.96   Q 156.88 283.69 156.90 283.26   Q 157.16 278.96 155.84 274.93"></path>
    <path stroke="#53afff" vector-effect="non-scaling-stroke" d="   M 155.45 269.92   Q 156.48 262.72 155.13 256.09"></path>
    <path stroke="#53afff" vector-effect="non-scaling-stroke" d="   M 155.12 188.49   Q 155.77 188.91 155.79 187.00   Q 156.15 148.13 155.46 109.18"></path>
    <path stroke="#53afff" vector-effect="non-scaling-stroke" d="   M 156.09 101.11   Q 157.47 79.84 166.59 63.62   Q 175.06 48.55 189.43 39.17   Q 200.48 31.95 213.87 27.60   Q 223.17 24.57 227.10 23.70   C 227.83 23.53 228.08 23.07 228.57 22.80   Q 229.01 22.55 229.49 22.64   Q 231.39 22.96 232.34 21.93   Q 232.71 21.53 233.25 21.65   Q 234.83 22.00 236.25 21.15   Q 236.70 20.88 237.22 20.88   L 238.34 20.88   A 0.64 0.64 0.0 0 0 238.50 20.86   L 254.72 16.76"></path>
    <path stroke="#53afff" vector-effect="non-scaling-stroke" d="   M 256.28 16.54   Q 256.75 16.80 257.50 16.70   Q 265.89 15.56 274.35 13.78"></path>
    <path stroke="#53afff" vector-effect="non-scaling-stroke" d="   M 275.67 13.51   Q 279.30 14.17 282.18 12.72"></path>
    <path stroke="#53afff" vector-effect="non-scaling-stroke" d="   M 283.74 12.57   Q 286.88 13.33 289.50 12.04"></path>
    <path stroke="#53afff" vector-effect="non-scaling-stroke" d="   M 1613.79 63.45   Q 1619.36 64.40 1624.95 63.40"></path>
    <path stroke="#53afff" vector-effect="non-scaling-stroke" d="   M 1635.96 63.99   Q 1646.99 64.92 1653.11 66.95   Q 1665.37 70.99 1671.37 84.48   Q 1672.06 86.01 1672.65 87.56   Q 1673.14 88.85 1673.52 90.69   Q 1674.16 93.74 1674.82 96.69"></path>
    <path stroke="#53afff" vector-effect="non-scaling-stroke" d="   M 1674.81 124.56   L 1673.39 133.77"></path>
    <path stroke="#53afff" vector-effect="non-scaling-stroke" d="   M 1673.05 134.21   Q 1672.56 134.43 1672.48 134.71   Q 1669.96 143.23 1664.60 148.34   Q 1655.06 157.44 1640.75 158.00   Q 1631.04 158.38 1605.89 158.35"></path>
    <path stroke="#53afff" vector-effect="non-scaling-stroke" d="   M 1603.47 158.06   Q 1598.34 157.09 1593.60 155.68   Q 1590.76 154.83 1587.77 153.11   Q 1585.01 151.53 1582.22 149.91"></path>
    <path stroke="#53afff" vector-effect="non-scaling-stroke" d="   M 1579.94 147.47   Q 1572.21 136.18 1571.29 122.41"></path>
    <path stroke="#53afff" vector-effect="non-scaling-stroke" d="   M 1570.99 105.76   Q 1571.53 102.87 1571.91 95.44   Q 1572.29 88.06 1576.82 79.86   Q 1579.12 75.69 1582.26 73.26   Q 1588.08 68.75 1596.72 65.63"></path>
    <path stroke="#53afff" vector-effect="non-scaling-stroke" d="   M 1101.84 241.51   Q 1098.54 240.87 1095.30 241.95"></path>
    <path stroke="#53afff" vector-effect="non-scaling-stroke" d="   M 1089.11 242.47   Q 1082.82 242.31 1076.55 244.00"></path>
    <path stroke="#53afff" vector-effect="non-scaling-stroke" d="   M 1073.78 244.49   Q 1071.19 243.68 1069.16 245.26"></path>
    <path stroke="#53afff" vector-effect="non-scaling-stroke" d="   M 1067.60 245.44   Q 1063.45 245.37 1059.46 246.69   Q 1059.23 246.76 1059.10 246.92   Q 1058.92 247.17 1058.99 247.36"></path>
    <path stroke="#53afff" vector-effect="non-scaling-stroke" d="   M 1057.41 247.67   Q 1055.22 247.52 1051.32 248.63   Q 1035.11 253.21 1028.70 255.66   Q 1023.64 257.59 1021.53 261.75   Q 1021.36 262.07 1021.36 262.50   Q 1021.36 262.90 1021.42 263.24"></path>
    <path stroke="#53afff" vector-effect="non-scaling-stroke" d="   M 1021.06 264.23   Q 1020.31 264.32 1020.09 265.38   Q 1019.13 270.25 1019.12 276.49   Q 1019.02 342.07 1019.10 427.06   C 1019.10 432.35 1019.55 436.33 1022.68 440.13   Q 1026.20 444.40 1031.81 447.00   Q 1039.01 450.34 1046.87 451.37"></path>
    <path stroke="#53afff" vector-effect="non-scaling-stroke" d="   M 1048.55 451.76   Q 1050.21 452.63 1054.93 453.67   Q 1070.22 457.05 1081.54 457.56"></path>
    <path stroke="#53afff" vector-effect="non-scaling-stroke" d="   M 1083.85 457.78   Q 1090.17 459.40 1096.76 458.55"></path>
    <path stroke="#53afff" vector-effect="non-scaling-stroke" d="   M 1104.21 458.98   Q 1114.07 460.54 1123.89 459.39"></path>
    <path stroke="#53afff" vector-effect="non-scaling-stroke" d="   M 1152.40 459.37   Q 1161.89 460.52 1171.38 459.02"></path>
    <path stroke="#53afff" vector-effect="non-scaling-stroke" d="   M 1178.39 458.63   Q 1185.20 459.53 1191.69 457.81"></path>
    <path stroke="#53afff" vector-effect="non-scaling-stroke" d="   M 1195.11 457.39   Q 1197.39 457.99 1199.77 457.47   Q 1201.93 456.99 1203.82 456.93   Q 1206.55 456.84 1208.75 455.62"></path>
    <path stroke="#53afff" vector-effect="non-scaling-stroke" d="   M 1213.95 454.73   Q 1233.45 452.69 1247.89 444.89   Q 1254.78 441.17 1256.41 433.98   Q 1256.87 432.00 1256.87 420.98   Q 1256.87 310.83 1256.87 275.59   Q 1256.87 273.83 1256.63 271.44   Q 1256.31 268.21 1256.39 267.25   Q 1256.43 266.78 1256.15 266.34   Q 1256.01 266.11 1255.35 263.87   Q 1254.44 260.72 1252.36 258.73   Q 1250.63 257.07 1247.40 255.80   Q 1228.36 248.32 1208.21 245.39"></path>
    <path stroke="#53afff" vector-effect="non-scaling-stroke" d="   M 1199.43 244.01   Q 1193.70 242.49 1187.75 242.09   C 1186.43 242.00 1185.14 242.36 1183.77 242.35"></path>
    <path stroke="#53afff" vector-effect="non-scaling-stroke" d="   M 1183.16 242.18   Q 1178.58 240.82 1173.89 241.50"></path>
    <path stroke="#53afff" vector-effect="non-scaling-stroke" d="   M 1167.67 240.99   Q 1137.37 239.01 1107.07 241.07"></path>
    <path stroke="#53afff" vector-effect="non-scaling-stroke" d="   M 333.78 79.58   Q 326.82 78.69 319.91 80.25"></path>
    <path stroke="#53afff" vector-effect="non-scaling-stroke" d="   M 316.85 80.45   Q 313.05 79.76 309.36 81.16"></path>
    <path stroke="#53afff" vector-effect="non-scaling-stroke" d="   M 307.00 81.34   Q 288.28 83.01 269.97 87.14   Q 263.58 88.59 261.15 89.66   Q 248.08 95.44 245.08 109.50   Q 244.49 112.23 244.24 112.95   Q 243.84 114.10 244.62 114.54"></path>
    <path stroke="#53afff" vector-effect="non-scaling-stroke" d="   M 244.04 117.48   Q 243.12 123.53 243.11 129.71   Q 243.02 231.03 243.12 244.25   Q 243.22 256.54 243.48 266.26   Q 243.95 283.29 259.49 288.50   C 260.14 288.71 260.89 288.60 261.48 288.63   Q 262.01 288.65 262.91 289.03   Q 264.52 289.72 266.52 289.25"></path>
    <path stroke="#53afff" vector-effect="non-scaling-stroke" d="   M 275.87 290.91   Q 282.40 292.79 289.31 292.63"></path>
    <path stroke="#53afff" vector-effect="non-scaling-stroke" d="   M 291.90 292.76   Q 296.18 294.10 300.62 293.49"></path>
    <path stroke="#53afff" vector-effect="non-scaling-stroke" d="   M 305.13 293.86   Q 315.06 295.56 325.15 294.44"></path>
    <path stroke="#53afff" vector-effect="non-scaling-stroke" d="   M 334.11 294.45   Q 343.87 295.59 353.49 293.84"></path>
    <path stroke="#53afff" vector-effect="non-scaling-stroke" d="   M 369.21 292.51   Q 372.80 293.52 375.67 291.79"></path>
    <path stroke="#53afff" vector-effect="non-scaling-stroke" d="   M 395.90 289.45   Q 403.03 289.96 409.67 287.77"></path>
    <path stroke="#53afff" vector-effect="non-scaling-stroke" d="   M 461.44 104.25   Q 461.95 100.93 459.48 98.00   C 456.37 94.30 452.37 91.85 447.57 89.91   Q 431.93 83.61 415.21 82.29"></path>
    <path stroke="#53afff" vector-effect="non-scaling-stroke" d="   M 411.84 82.04   Q 408.39 80.89 404.90 81.51"></path>
    <path stroke="#53afff" vector-effect="non-scaling-stroke" d="   M 397.15 81.03   Q 392.52 79.52 387.65 80.47"></path>
    <path stroke="#53afff" vector-effect="non-scaling-stroke" d="   M 384.09 80.23   Q 375.89 78.57 367.59 79.62"></path>
  </g>
  <path fill="#8dcaff" d="   M 24.00 8.21   L 20.01 9.04   Q 19.58 9.13 19.30 9.46   Q 19.20 9.58 19.09 9.69   A 0.53 0.53 0.0 0 1 18.66 9.87   Q 18.16 9.83 18.15 9.59   Q 18.01 9.04 17.76 9.03   Q 16.13 8.98 14.12 8.99   Q 11.74 9.00 13.73 7.69   Q 17.82 4.99 22.89 4.31   Q 23.41 4.24 23.49 4.75   L 24.00 8.21   Z"></path>
  <path fill="#8dcaff" d="   M 66.46 9.92   Q 62.97 9.39 59.51 8.73   Q 59.19 8.67 59.03 8.52   Q 58.79 8.31 58.74 8.05   L 59.29 4.76   Q 59.38 4.25 59.88 4.33   Q 67.53 5.51 73.90 7.93   Q 76.55 8.93 73.71 8.97   L 66.57 9.06   A 0.46 0.46 0.0 0 0 66.12 9.63   Q 66.16 9.76 66.46 9.92   Z"></path>
  <path fill="#8dcaff" d="   M 664.72 9.43   L 656.56 8.15   L 657.09 4.74   Q 657.17 4.20 657.72 4.28   Q 665.37 5.43 672.65 8.16   Q 673.44 8.45 672.60 8.55   L 664.72 9.43   Z"></path>
  <path fill="#8dcaff" d="   M 618.48 8.13   Q 613.23 10.38 610.71 12.47   Q 607.05 15.51 606.01 21.73   Q 605.43 25.14 605.68 34.31   Q 605.84 39.92 605.84 46.79   Q 605.88 236.11 605.84 413.22   Q 605.83 434.87 606.05 440.49   Q 606.07 441.10 605.47 441.74   Q 605.03 439.28 605.03 438.25   Q 605.03 231.00 605.01 23.75   C 605.01 17.67 607.51 14.53 612.35 10.30   Q 612.75 9.96 613.27 9.96   Q 613.62 9.95 613.95 9.68   A 0.36 0.36 0.0 0 0 613.72 9.03   L 609.98 8.99   Q 608.32 8.97 609.66 7.99   Q 612.82 5.68 616.82 4.52   Q 617.31 4.38 617.56 4.81   Q 618.29 6.06 618.48 8.13   Z"></path>
  <path fill="#8dcaff" d="   M 363.15 9.59   L 335.15 9.37   L 291.48 8.92   Q 290.96 8.91 291.42 8.69   Q 292.64 8.10 294.02 7.99   Q 349.88 3.47 405.96 8.00   Q 407.03 8.08 409.03 8.71   Q 409.72 8.93 409.00 8.97   C 407.28 9.08 405.86 8.84 404.38 8.86   Q 388.32 9.08 369.25 9.01   Q 366.22 9.00 363.15 9.59   Z"></path>
  <path fill="#1993ff" d="   M 618.48 8.13   L 656.56 8.15   L 664.72 9.43   Q 665.84 10.09 667.27 10.17   Q 676.35 14.15 678.86 15.63   Q 696.54 25.97 699.62 47.19   Q 700.62 54.09 701.15 56.05   L 701.58 59.54   L 701.31 59.92   A 1.12 1.12 0.0 0 0 701.11 60.56   Q 701.06 371.77 701.20 420.01   Q 701.22 428.02 702.40 432.87   Q 704.89 443.09 715.42 447.00   Q 720.11 448.73 725.12 449.39   Q 725.81 449.19 726.69 449.76   Q 726.68 450.28 727.74 450.56   Q 735.74 452.67 743.98 453.48   Q 744.93 453.19 745.87 453.75   Q 746.89 455.06 749.13 454.32   Q 750.75 454.23 752.06 454.78   Q 760.08 457.03 768.34 456.61   Q 769.54 456.29 770.94 456.71   Q 777.04 458.27 783.17 457.39   Q 787.62 457.48 792.22 457.73   Q 797.46 458.02 801.28 458.01   Q 815.89 457.97 830.50 457.79   Q 836.60 457.72 842.47 457.44   Q 848.70 458.35 854.82 456.69   L 857.82 456.43   Q 862.19 457.62 865.65 455.60   Q 884.83 453.80 903.77 449.42   Q 914.10 447.52 920.88 439.66   Q 923.51 436.60 923.58 432.25   Q 924.18 394.94 923.36 361.91   Q 923.43 355.47 923.69 348.97   Q 924.00 341.34 924.00 336.02   Q 924.01 313.24 924.00 290.46   Q 923.99 287.26 923.72 282.54   Q 923.49 278.52 923.44 274.61   Q 924.46 268.51 923.49 262.30   L 924.08 255.23   Q 927.25 233.86 939.55 219.01   Q 951.36 204.75 968.24 197.08   Q 974.99 194.01 981.89 191.29   Q 982.86 190.90 982.36 190.69   L 983.42 190.26   Q 983.31 191.12 984.80 190.60   Q 998.20 185.96 1010.89 183.63   C 1011.74 183.47 1012.73 182.88 1013.50 182.88   Q 1016.30 182.87 1017.35 182.05   Q 1017.77 181.73 1018.29 181.76   Q 1020.53 181.91 1022.15 181.34   C 1024.15 180.64 1026.54 181.13 1028.47 179.90   Q 1028.90 179.63 1029.41 179.70   Q 1031.99 180.07 1034.60 178.99   A 2.08 2.08 0.0 0 1 1035.54 178.84   Q 1038.46 179.04 1040.75 177.94   Q 1041.20 177.72 1041.70 177.78   Q 1045.22 178.20 1048.07 176.45   Q 1047.93 176.57 1048.27 176.54   Q 1051.82 177.56 1054.62 175.70   Q 1055.30 175.29 1056.19 175.51   Q 1059.88 176.31 1063.24 174.71   Q 1063.68 174.34 1064.66 174.48   Q 1068.73 175.52 1071.64 173.71   L 1104.67 171.43   Q 1112.33 172.62 1119.65 171.25   L 1140.92 171.22   Q 1146.53 172.18 1152.23 171.87   Q 1152.38 171.87 1155.28 171.97   Q 1156.94 172.02 1158.34 171.34   L 1188.91 172.74   Q 1192.89 174.22 1197.32 173.33   L 1203.78 173.88   Q 1206.86 175.29 1210.12 174.46   Q 1212.18 174.28 1214.10 174.84   Q 1224.90 177.08 1235.85 177.42   Q 1237.11 177.16 1238.18 177.86   L 1263.10 182.45   Q 1263.84 182.18 1264.63 182.70   Q 1277.16 186.23 1289.40 190.11   Q 1301.21 193.85 1312.16 199.51   Q 1322.23 204.71 1328.74 210.56   Q 1346.80 226.76 1351.09 252.73   Q 1352.04 256.65 1352.04 263.00   Q 1351.97 345.50 1352.01 428.00   Q 1352.01 429.23 1352.56 433.95   Q 1352.38 438.12 1355.92 440.59   Q 1356.72 440.88 1357.34 441.68   Q 1357.50 442.74 1359.89 443.88   Q 1371.20 449.31 1381.00 452.21   Q 1385.32 453.48 1387.89 453.29   L 1398.89 454.83   Q 1402.03 456.17 1405.36 455.46   L 1410.36 455.89   Q 1414.14 457.13 1417.90 456.46   L 1422.73 456.70   Q 1428.52 458.18 1434.36 457.44   Q 1438.45 457.52 1442.62 457.75   Q 1447.90 458.04 1450.89 458.02   Q 1461.80 457.97 1472.70 458.03   C 1484.84 458.11 1497.51 457.24 1509.88 456.39   Q 1511.21 457.04 1514.26 456.61   Q 1516.33 456.32 1516.77 456.22   C 1519.17 455.66 1521.41 455.99 1523.70 455.30   Q 1524.30 455.12 1526.85 454.94   Q 1528.79 454.80 1529.93 453.76   L 1537.42 452.43   Q 1545.40 451.39 1553.15 449.27   Q 1560.55 447.24 1560.63 447.22   Q 1564.48 445.94 1567.61 443.61   Q 1573.57 439.18 1573.56 432.52   Q 1573.63 431.08 1573.78 429.67   Q 1573.95 428.07 1573.95 426.83   Q 1574.03 350.87 1574.02 274.99   Q 1574.58 269.38 1574.78 263.79   Q 1575.05 256.21 1575.88 252.65   Q 1580.22 234.09 1597.03 223.78   Q 1599.93 222.00 1610.01 217.87   Q 1615.63 216.07 1623.00 216.00   Q 1638.56 215.85 1648.72 216.20   Q 1658.87 215.96 1665.25 220.99   Q 1668.82 223.80 1670.78 230.45   Q 1671.59 234.41 1671.13 240.25   Q 1670.71 245.55 1671.19 260.16   Q 1671.36 265.24 1671.25 269.97   Q 1671.18 272.83 1671.16 279.75   Q 1671.05 318.51 1670.97 357.21   Q 1670.19 361.35 1670.88 365.72   L 1670.96 434.95   Q 1669.69 453.78 1662.05 469.70   Q 1657.41 479.37 1651.05 486.31   C 1639.77 498.62 1624.40 506.13 1608.12 510.60   Q 1579.08 518.58 1549.79 522.82   Q 1549.20 522.91 1549.04 523.42   Q 1547.52 523.80 1547.38 523.43   Q 1540.43 523.32 1533.83 525.16   Q 1533.10 525.66 1531.70 525.51   Q 1527.06 524.87 1524.51 525.86   Q 1523.14 526.39 1522.06 526.22   Q 1520.17 525.91 1520.14 525.91   Q 1516.58 526.00 1513.34 527.07   L 1507.44 527.42   Q 1500.85 526.86 1494.41 528.02   L 1483.25 528.55   L 1442.83 528.48   Q 1438.72 528.94 1434.81 528.05   Q 1426.46 526.94 1418.10 527.43   L 1412.61 527.17   Q 1409.02 525.30 1405.38 526.58   L 1390.41 525.02   Q 1384.64 523.09 1378.35 523.41   Q 1376.98 523.96 1376.10 523.01   Q 1340.20 517.37 1305.48 507.26   Q 1304.44 506.96 1304.13 507.40   Q 1302.87 507.67 1301.80 507.35   L 1268.36 517.07   Q 1267.58 517.76 1266.39 517.55   Q 1257.51 518.49 1248.91 521.29   Q 1248.04 521.85 1247.62 521.48   Q 1242.63 521.35 1238.10 523.08   Q 1237.08 523.64 1235.49 523.57   Q 1232.98 522.89 1230.87 524.16   Q 1229.78 524.66 1228.63 524.42   Q 1225.64 523.74 1222.93 525.18   Q 1221.63 525.66 1220.35 525.53   Q 1217.11 524.79 1214.11 526.20   Q 1212.90 526.78 1211.64 526.41   Q 1207.62 525.41 1204.06 527.16   Q 1202.91 527.59 1201.26 527.43   Q 1196.22 526.71 1191.40 528.17   Q 1189.25 528.79 1187.05 528.45   Q 1181.02 527.78 1175.07 529.15   L 1169.46 529.39   L 1151.21 529.84   L 1122.01 529.84   L 1109.90 529.57   L 1100.00 529.11   Q 1094.53 527.59 1089.06 528.45   L 1082.18 527.91   Q 1078.81 526.57 1075.31 527.52   Q 1072.98 527.68 1070.71 527.08   Q 1067.90 525.28 1064.54 526.45   Q 1063.90 526.79 1063.02 526.36   Q 1057.19 525.29 1038.39 522.62   Q 1014.01 519.15 976.95 508.04   Q 974.14 507.20 972.25 507.29   Q 969.45 507.42 967.36 508.07   Q 931.91 519.04 895.44 523.74   Q 895.21 523.77 895.08 523.92   Q 894.92 524.11 894.97 524.33   L 892.65 524.44   Q 889.33 523.62 886.37 525.17   Q 884.59 525.74 882.86 525.54   Q 879.07 524.87 875.88 526.24   L 854.87 527.52   Q 846.81 526.84 838.87 528.08   L 828.21 528.56   Q 810.30 527.53 792.43 528.48   Q 788.85 528.98 785.33 528.02   Q 776.64 527.26 767.92 526.92   Q 767.84 526.92 766.21 527.04   Q 764.98 527.13 763.18 526.65   Q 759.08 525.57 753.74 526.48   L 749.11 526.14   Q 745.92 524.72 742.09 525.09   Q 741.60 525.14 741.14 524.96   Q 740.52 524.71 740.50 524.71   Q 707.82 520.95 681.98 515.16   Q 666.34 511.66 652.06 505.28   Q 636.36 498.26 624.84 486.23   Q 615.95 476.94 610.71 462.98   Q 609.53 459.84 608.10 453.86   Q 607.03 449.38 605.82 444.91   L 605.47 441.74   Q 606.07 441.10 606.05 440.49   Q 605.83 434.87 605.84 413.22   Q 605.88 236.11 605.84 46.79   Q 605.84 39.92 605.68 34.31   Q 605.43 25.14 606.01 21.73   Q 607.05 15.51 610.71 12.47   Q 613.23 10.38 618.48 8.13   Z   M 1107.07 241.07   Q 1104.59 241.90 1101.84 241.51   Q 1098.54 240.87 1095.30 241.95   Q 1092.26 242.72 1089.11 242.47   Q 1082.82 242.31 1076.55 244.00   Q 1075.48 244.57 1073.78 244.49   Q 1071.19 243.68 1069.16 245.26   Q 1068.29 245.68 1067.60 245.44   Q 1063.45 245.37 1059.46 246.69   Q 1059.23 246.76 1059.10 246.92   Q 1058.92 247.17 1058.99 247.36   Q 1058.09 247.82 1057.41 247.67   Q 1055.22 247.52 1051.32 248.63   Q 1035.11 253.21 1028.70 255.66   Q 1023.64 257.59 1021.53 261.75   Q 1021.36 262.07 1021.36 262.50   Q 1021.36 262.90 1021.42 263.24   Q 1021.37 263.82 1021.06 264.23   Q 1020.31 264.32 1020.09 265.38   Q 1019.13 270.25 1019.12 276.49   Q 1019.02 342.07 1019.10 427.06   C 1019.10 432.35 1019.55 436.33 1022.68 440.13   Q 1026.20 444.40 1031.81 447.00   Q 1039.01 450.34 1046.87 451.37   Q 1047.89 451.22 1048.55 451.76   Q 1050.21 452.63 1054.93 453.67   Q 1070.22 457.05 1081.54 457.56   Q 1083.02 457.13 1083.85 457.78   Q 1090.17 459.40 1096.76 458.55   L 1104.21 458.98   Q 1114.07 460.54 1123.89 459.39   Q 1138.14 460.18 1152.40 459.37   Q 1161.89 460.52 1171.38 459.02   L 1178.39 458.63   Q 1185.20 459.53 1191.69 457.81   Q 1193.14 457.27 1195.11 457.39   Q 1197.39 457.99 1199.77 457.47   Q 1201.93 456.99 1203.82 456.93   Q 1206.55 456.84 1208.75 455.62   L 1213.95 454.73   Q 1233.45 452.69 1247.89 444.89   Q 1254.78 441.17 1256.41 433.98   Q 1256.87 432.00 1256.87 420.98   Q 1256.87 310.83 1256.87 275.59   Q 1256.87 273.83 1256.63 271.44   Q 1256.31 268.21 1256.39 267.25   Q 1256.43 266.78 1256.15 266.34   Q 1256.01 266.11 1255.35 263.87   Q 1254.44 260.72 1252.36 258.73   Q 1250.63 257.07 1247.40 255.80   Q 1228.36 248.32 1208.21 245.39   L 1199.43 244.01   Q 1193.70 242.49 1187.75 242.09   C 1186.43 242.00 1185.14 242.36 1183.77 242.35   Q 1183.06 242.51 1183.16 242.18   Q 1178.58 240.82 1173.89 241.50   Q 1170.67 241.87 1167.67 240.99   Q 1137.37 239.01 1107.07 241.07   Z"></path>
  <path fill="#1993ff" d="   M 58.74 8.05   Q 58.79 8.31 59.03 8.52   Q 59.19 8.67 59.51 8.73   Q 62.97 9.39 66.46 9.92   Q 66.63 9.98 66.79 10.03   Q 66.86 10.18 66.88 10.35   Q 66.91 10.62 67.18 10.65   Q 67.72 10.71 67.73 10.71   Q 95.73 18.15 102.32 46.08   Q 102.54 46.98 103.01 50.87   Q 103.31 53.33 104.13 55.62   Q 104.76 58.14 104.55 60.63   Q 104.08 64.92 104.09 72.72   Q 104.23 163.84 104.12 505.74   Q 104.12 507.04 105.00 506.81   L 104.18 513.18   Q 103.38 515.52 102.63 517.78   Q 101.67 520.70 100.56 522.13   Q 98.17 525.19 94.48 526.53   Q 93.31 526.95 89.99 527.23   Q 87.65 527.42 85.48 528.03   L 77.62 528.48   Q 69.46 527.55 61.40 528.49   Q 58.88 528.94 56.58 527.97   Q 41.61 526.67 30.31 519.66   Q 18.24 512.16 12.13 497.00   L 9.55 488.72   L 8.25 480.15   L 8.24 23.26   Q 9.25 16.41 15.46 10.98   Q 16.22 10.08 18.15 9.59   Q 18.16 9.83 18.66 9.87   A 0.53 0.53 0.0 0 0 19.09 9.69   Q 19.20 9.58 19.30 9.46   Q 19.58 9.13 20.01 9.04   L 24.00 8.21   L 58.74 8.05   Z"></path>
  <path fill="#1993ff" d="   M 363.15 9.59   Q 374.58 10.16 385.94 10.05   Q 389.22 10.02 392.48 10.67   Q 394.87 11.15 397.34 11.01   Q 399.54 10.89 402.17 11.12   Q 406.65 11.51 410.94 11.96   Q 411.72 12.50 414.00 12.68   Q 416.25 12.86 417.10 12.46   Q 418.22 12.20 418.86 12.72   Q 422.26 13.99 425.81 13.41   Q 426.53 13.25 427.73 13.51   Q 427.58 13.82 427.63 13.99   Q 427.67 14.15 427.98 14.18   Q 453.12 17.20 466.39 20.12   Q 474.23 21.85 478.09 22.36   Q 479.78 22.44 479.84 23.02   Q 502.51 29.20 518.86 39.90   Q 546.73 58.14 550.56 93.46   Q 551.09 95.77 551.09 99.00   Q 550.98 237.53 551.01 376.07   Q 551.01 380.47 551.27 384.92   Q 551.52 389.37 551.77 393.79   Q 551.51 393.78 551.33 393.98   Q 551.20 394.12 551.20 394.39   Q 550.70 410.29 551.53 426.34   L 551.21 445.20   Q 550.15 448.11 550.03 451.25   Q 549.89 454.93 549.40 456.66   Q 547.45 463.57 544.51 470.29   Q 537.34 486.69 523.26 497.49   C 511.01 506.90 495.71 513.33 480.26 517.79   Q 477.83 518.49 471.27 519.96   Q 467.18 520.89 462.17 521.67   Q 455.04 522.79 447.90 524.18   Q 446.26 524.81 444.90 524.54   Q 442.48 523.81 440.58 525.12   L 436.52 525.52   Q 433.83 524.81 431.59 526.07   Q 429.42 526.70 427.12 526.49   Q 422.82 525.45 418.69 527.20   Q 417.21 527.70 415.66 527.43   Q 410.19 526.61 405.09 528.18   Q 401.20 528.66 398.50 528.70   Q 382.37 528.91 366.25 529.76   Q 359.23 530.13 333.50 528.80   Q 326.76 527.48 320.06 528.46   L 312.13 527.95   Q 308.48 526.48 304.86 527.62   L 277.17 525.12   Q 270.46 523.10 263.35 523.52   Q 261.15 523.79 259.41 522.93   Q 255.42 522.19 243.41 520.30   Q 238.85 519.57 233.91 516.99   Q 229.33 514.60 227.59 510.96   Q 225.25 506.05 225.59 501.80   Q 225.97 496.92 228.21 488.79   Q 230.91 478.93 236.67 471.88   Q 237.19 471.24 239.51 469.32   Q 241.13 467.98 242.07 466.40   Q 247.47 462.90 255.50 463.00   Q 269.18 463.17 274.07 463.64   Q 277.73 465.69 281.97 464.44   L 286.86 464.84   Q 290.97 466.23 295.09 465.49   Q 297.85 465.21 300.34 465.88   Q 307.75 467.31 315.09 466.73   Q 318.08 466.35 320.70 466.97   Q 333.04 468.62 345.38 467.39   Q 359.52 468.11 373.61 467.39   Q 384.81 468.63 395.88 466.96   Q 398.08 466.28 400.63 466.57   Q 404.89 467.40 408.85 465.89   Q 410.26 465.21 412.14 465.43   Q 415.05 466.36 417.38 464.75   L 435.86 461.38   Q 441.13 460.92 447.36 458.60   Q 452.40 456.72 455.10 453.66   Q 456.01 451.99 457.54 451.16   Q 460.96 448.09 461.88 443.27   Q 462.07 442.29 461.53 442.24   Q 461.46 441.57 461.77 440.96   Q 461.92 440.93 462.05 440.87   Q 462.28 440.78 462.31 440.53   Q 462.69 437.07 462.43 431.81   Q 462.20 427.09 462.55 420.94   Q 462.89 415.09 462.90 410.12   Q 462.93 398.44 462.72 375.25   Q 462.70 373.75 462.02 374.21   L 461.99 354.30   A 2.67 2.64 22.4 0 0 461.20 352.42   Q 460.68 351.91 459.24 352.14   Q 456.88 352.51 454.92 352.56   Q 451.45 351.72 448.32 353.10   L 443.62 353.51   Q 438.94 352.80 435.00 354.35   L 420.91 355.57   Q 416.64 354.78 412.63 356.33   Q 411.79 356.63 411.15 356.38   Q 406.68 355.44 402.58 357.13   Q 400.60 357.73 398.39 357.49   Q 394.65 356.80 391.13 358.17   Q 389.17 358.84 387.13 358.49   Q 386.16 357.93 384.84 358.07   Q 383.68 358.19 382.61 358.28   Q 381.28 358.38 380.36 359.11   Q 378.75 359.62 376.82 359.44   Q 372.21 358.87 367.90 360.25   Q 366.25 360.88 365.16 360.43   Q 361.58 359.62 358.31 361.11   Q 356.96 361.71 354.86 361.47   Q 349.91 360.73 345.33 362.24   Q 343.86 362.70 342.34 362.40   Q 337.41 361.84 332.21 363.03   L 323.07 363.60   Q 310.97 362.82 298.92 363.58   L 287.64 362.93   Q 284.05 361.67 280.11 362.40   Q 278.69 362.82 277.42 362.15   Q 274.06 360.72 270.86 361.53   Q 269.04 361.79 267.68 361.12   Q 264.98 359.52 262.08 360.40   Q 260.35 360.77 259.91 359.94   Q 232.88 355.64 207.60 346.37   Q 182.84 337.29 168.58 315.75   Q 161.62 305.24 158.92 294.54   Q 158.31 292.14 157.40 285.37   Q 157.33 284.88 157.39 284.62   Q 157.48 284.21 157.20 283.96   Q 156.88 283.69 156.90 283.26   Q 157.16 278.96 155.84 274.93   L 155.45 269.92   Q 156.48 262.72 155.13 256.09   L 155.12 188.49   Q 155.77 188.91 155.79 187.00   Q 156.15 148.13 155.46 109.18   L 156.09 101.11   Q 157.47 79.84 166.59 63.62   Q 175.06 48.55 189.43 39.17   Q 200.48 31.95 213.87 27.60   Q 223.17 24.57 227.10 23.70   C 227.83 23.53 228.08 23.07 228.57 22.80   Q 229.01 22.55 229.49 22.64   Q 231.39 22.96 232.34 21.93   Q 232.71 21.53 233.25 21.65   Q 234.83 22.00 236.25 21.15   Q 236.70 20.88 237.22 20.88   L 238.34 20.88   A 0.64 0.64 0.0 0 0 238.50 20.86   L 254.72 16.76   Q 255.21 16.40 256.28 16.54   Q 256.75 16.80 257.50 16.70   Q 265.89 15.56 274.35 13.78   Q 274.62 13.28 275.67 13.51   Q 279.30 14.17 282.18 12.72   Q 282.79 12.37 283.74 12.57   Q 286.88 13.33 289.50 12.04   Q 291.39 11.84 293.50 11.49   Q 295.49 11.16 297.51 11.15   Q 301.87 11.14 306.20 10.69   Q 311.21 10.17 314.85 10.16   Q 324.98 10.16 335.15 9.37   L 363.15 9.59   Z   M 333.78 79.58   Q 326.82 78.69 319.91 80.25   Q 318.54 80.77 316.85 80.45   Q 313.05 79.76 309.36 81.16   Q 308.32 81.71 307.00 81.34   Q 288.28 83.01 269.97 87.14   Q 263.58 88.59 261.15 89.66   Q 248.08 95.44 245.08 109.50   Q 244.49 112.23 244.24 112.95   Q 243.84 114.10 244.62 114.54   Q 244.65 116.32 244.04 117.48   Q 243.12 123.53 243.11 129.71   Q 243.02 231.03 243.12 244.25   Q 243.22 256.54 243.48 266.26   Q 243.95 283.29 259.49 288.50   C 260.14 288.71 260.89 288.60 261.48 288.63   Q 262.01 288.65 262.91 289.03   Q 264.52 289.72 266.52 289.25   L 275.87 290.91   Q 282.40 292.79 289.31 292.63   Q 290.57 292.26 291.90 292.76   Q 296.18 294.10 300.62 293.49   Q 303.09 293.19 305.13 293.86   Q 315.06 295.56 325.15 294.44   L 334.11 294.45   Q 343.87 295.59 353.49 293.84   L 369.21 292.51   Q 372.80 293.52 375.67 291.79   L 395.90 289.45   Q 403.03 289.96 409.67 287.77   L 460.27 281.87   A 1.96 1.96 0.0 0 0 462.00 279.92   Q 462.00 195.05 462.03 110.60   C 462.03 108.45 461.70 106.37 461.44 104.25   Q 461.95 100.93 459.48 98.00   C 456.37 94.30 452.37 91.85 447.57 89.91   Q 431.93 83.61 415.21 82.29   Q 413.88 83.06 411.84 82.04   Q 408.39 80.89 404.90 81.51   L 397.15 81.03   Q 392.52 79.52 387.65 80.47   Q 385.86 80.93 384.09 80.23   Q 375.89 78.57 367.59 79.62   Q 350.70 78.61 333.78 79.58   Z"></path>
  <path fill="#8dcaff" d="   M 104.13 55.62   Q 103.31 53.33 103.01 50.87   Q 102.54 46.98 102.32 46.08   Q 95.73 18.15 67.73 10.71   Q 67.72 10.71 67.18 10.65   Q 66.91 10.62 66.88 10.35   Q 66.86 10.18 66.79 10.03   C 68.81 9.78 69.48 10.56 71.09 10.91   Q 72.55 11.22 73.28 11.64   Q 73.71 11.89 79.85 14.94   Q 91.96 20.98 98.22 32.98   Q 103.77 43.62 104.13 55.62   Z"></path>
  <path fill="#8dcaff" d="   M 701.15 56.05   Q 700.62 54.09 699.62 47.19   Q 696.54 25.97 678.86 15.63   Q 676.35 14.15 667.27 10.17   Q 672.61 11.41 678.21 14.54   Q 695.48 24.21 699.67 43.33   Q 700.83 48.63 701.15 56.05   Z"></path>
  <path fill="#8dcaff" d="   M 15.46 10.98   Q 9.25 16.41 8.24 23.26   L 4.81 22.78   Q 4.27 22.71 4.35 22.16   Q 5.13 17.32 7.67 13.66   Q 8.99 11.76 8.97 14.10   L 8.96 16.60   A 0.39 0.36 -15.8 0 0 9.53 16.90   Q 11.10 16.00 11.08 15.00   Q 11.07 14.45 11.42 14.02   Q 13.16 11.89 15.46 10.98   Z"></path>
  <path fill="#8dcaff" d="   M 417.10 12.46   Q 416.25 12.86 414.00 12.68   Q 411.72 12.50 410.94 11.96   Q 414.09 11.64 417.10 12.46   Z"></path>
  <path fill="#8dcaff" d="   M 289.50 12.04   Q 286.88 13.33 283.74 12.57   Q 286.36 11.76 289.50 12.04   Z"></path>
  <path fill="#8dcaff" d="   M 282.18 12.72   Q 279.30 14.17 275.67 13.51   L 282.18 12.72   Z"></path>
  <path fill="#8dcaff" d="   M 425.81 13.41   Q 422.26 13.99 418.86 12.72   Q 422.42 12.36 425.81 13.41   Z"></path>
  <path fill="#8dcaff" d="   M 274.35 13.78   Q 265.89 15.56 257.50 16.70   Q 256.75 16.80 256.28 16.54   Q 256.59 16.16 257.20 16.05   Q 265.63 14.58 274.35 13.78   Z"></path>
  <path fill="#8dcaff" d="   M 478.09 22.36   Q 474.23 21.85 466.39 20.12   Q 453.12 17.20 427.98 14.18   Q 427.67 14.15 427.63 13.99   Q 427.58 13.82 427.73 13.51   Q 438.85 14.88 449.95 16.52   Q 464.15 18.62 478.09 22.36   Z"></path>
  <path fill="#8dcaff" d="   M 254.72 16.76   L 238.50 20.86   A 0.64 0.64 0.0 0 1 238.34 20.88   L 237.22 20.88   Q 236.70 20.88 236.25 21.15   Q 234.83 22.00 233.25 21.65   Q 232.71 21.53 232.34 21.93   Q 231.39 22.96 229.49 22.64   Q 229.01 22.55 228.57 22.80   C 228.08 23.07 227.83 23.53 227.10 23.70   Q 223.17 24.57 213.87 27.60   Q 200.48 31.95 189.43 39.17   Q 175.06 48.55 166.59 63.62   Q 157.47 79.84 156.09 101.11   Q 155.93 92.47 158.58 81.79   Q 165.85 52.57 191.50 37.01   Q 204.34 29.22 222.70 24.25   Q 243.61 18.59 254.72 16.76   Z"></path>
  <path fill="#8dcaff" d="   M 550.56 93.46   Q 546.73 58.14 518.86 39.90   Q 502.51 29.20 479.84 23.02   Q 497.67 26.82 513.65 35.85   Q 526.53 43.13 535.95 54.56   Q 543.31 63.48 547.27 75.23   Q 550.42 84.57 550.56 93.46   Z"></path>
  <path fill="#8dcaff" d="   M 725.12 449.39   Q 720.11 448.73 715.42 447.00   Q 704.89 443.09 702.40 432.87   Q 701.22 428.02 701.20 420.01   Q 701.06 371.77 701.11 60.56   A 1.12 1.12 0.0 0 1 701.31 59.92   L 701.58 59.54   Q 701.99 64.19 701.99 65.75   Q 701.98 245.75 701.99 425.75   Q 701.99 426.57 702.30 429.14   Q 703.83 441.68 715.57 446.08   Q 720.15 447.80 725.12 449.39   Z"></path>
  <path fill="#8dcaff" d="   M 104.55 60.63   Q 105.04 64.86 105.03 72.24   Q 104.90 171.09 105.00 506.81   Q 104.12 507.04 104.12 505.74   Q 104.23 163.84 104.09 72.72   Q 104.08 64.92 104.55 60.63   Z"></path>
  <path fill="#1993ff" d="   M 1613.79 63.45   Q 1619.36 64.40 1624.95 63.40   L 1635.96 63.99   Q 1646.99 64.92 1653.11 66.95   Q 1665.37 70.99 1671.37 84.48   Q 1672.06 86.01 1672.65 87.56   Q 1673.14 88.85 1673.52 90.69   Q 1674.16 93.74 1674.82 96.69   L 1674.81 124.56   L 1673.39 133.77   Q 1673.15 134.39 1673.05 134.21   Q 1672.56 134.43 1672.48 134.71   Q 1669.96 143.23 1664.60 148.34   Q 1655.06 157.44 1640.75 158.00   Q 1631.04 158.38 1605.89 158.35   Q 1604.17 158.83 1603.47 158.06   Q 1598.34 157.09 1593.60 155.68   Q 1590.76 154.83 1587.77 153.11   Q 1585.01 151.53 1582.22 149.91   Q 1580.70 148.70 1579.94 147.47   Q 1572.21 136.18 1571.29 122.41   L 1570.99 105.76   Q 1571.53 102.87 1571.91 95.44   Q 1572.29 88.06 1576.82 79.86   Q 1579.12 75.69 1582.26 73.26   Q 1588.08 68.75 1596.72 65.63   Q 1604.80 63.63 1613.79 63.45   Z"></path>
  <path fill="#8dcaff" d="   M 1624.95 63.40   Q 1619.36 64.40 1613.79 63.45   L 1624.95 63.40   Z"></path>
  <path fill="#8dcaff" d="   M 1674.82 96.69   Q 1674.16 93.74 1673.52 90.69   Q 1673.14 88.85 1672.65 87.56   Q 1672.06 86.01 1671.37 84.48   Q 1665.37 70.99 1653.11 66.95   Q 1646.99 64.92 1635.96 63.99   Q 1646.13 63.72 1653.98 66.53   Q 1664.81 70.41 1670.86 81.60   Q 1671.39 82.59 1672.17 85.04   Q 1672.70 86.72 1673.51 87.90   Q 1673.91 88.49 1673.92 87.77   L 1674.04 82.48   A 0.39 0.37 80.0 0 1 1674.27 82.13   Q 1674.54 82.02 1674.76 82.16   Q 1674.94 82.29 1675.03 82.50   Q 1677.79 88.78 1678.72 95.58   Q 1678.79 96.11 1678.26 96.18   L 1674.82 96.69   Z"></path>
  <path fill="#8dcaff" d="   M 1596.72 65.63   Q 1588.08 68.75 1582.26 73.26   Q 1579.12 75.69 1576.82 79.86   Q 1572.29 88.06 1571.91 95.44   Q 1571.53 102.87 1570.99 105.76   Q 1570.30 94.96 1573.21 85.98   Q 1578.68 69.08 1596.72 65.63   Z"></path>
  <path fill="#8dcaff" d="   M 333.78 79.58   L 319.91 80.25   Q 326.82 78.69 333.78 79.58   Z"></path>
  <path fill="#8dcaff" d="   M 384.09 80.23   L 367.59 79.62   Q 375.89 78.57 384.09 80.23   Z"></path>
  <path fill="#8dcaff" d="   M 316.85 80.45   L 309.36 81.16   Q 313.05 79.76 316.85 80.45   Z"></path>
  <path fill="#8dcaff" d="   M 397.15 81.03   L 387.65 80.47   Q 392.52 79.52 397.15 81.03   Z"></path>
  <path fill="#8dcaff" d="   M 307.00 81.34   Q 288.55 84.11 270.43 87.62   Q 265.18 88.64 260.36 90.94   Q 251.29 95.26 247.48 104.20   Q 245.55 108.72 244.62 114.54   Q 243.84 114.10 244.24 112.95   Q 244.49 112.23 245.08 109.50   Q 248.08 95.44 261.15 89.66   Q 263.58 88.59 269.97 87.14   Q 288.28 83.01 307.00 81.34   Z"></path>
  <path fill="#8dcaff" d="   M 411.84 82.04   L 404.90 81.51   Q 408.39 80.89 411.84 82.04   Z"></path>
  <path fill="#8dcaff" d="   M 461.44 104.25   Q 460.55 99.75 457.11 96.65   C 454.10 93.93 451.61 92.16 447.67 90.71   Q 432.01 84.96 415.21 82.29   Q 431.93 83.61 447.57 89.91   C 452.37 91.85 456.37 94.30 459.48 98.00   Q 461.95 100.93 461.44 104.25   Z"></path>
  <path fill="#8dcaff" d="   M 155.12 188.49   L 155.46 109.18   Q 156.15 148.13 155.79 187.00   Q 155.77 188.91 155.12 188.49   Z"></path>
  <path fill="#8dcaff" d="   M 244.04 117.48   Q 244.18 120.67 244.10 123.82   Q 243.97 129.07 243.97 130.18   Q 243.97 209.27 244.05 266.26   Q 244.06 274.69 249.06 281.21   Q 250.92 283.63 253.62 285.15   Q 259.54 288.47 266.52 289.25   Q 264.52 289.72 262.91 289.03   Q 262.01 288.65 261.48 288.63   C 260.89 288.60 260.14 288.71 259.49 288.50   Q 243.95 283.29 243.48 266.26   Q 243.22 256.54 243.12 244.25   Q 243.02 231.03 243.11 129.71   Q 243.12 123.53 244.04 117.48   Z"></path>
  <path fill="#8dcaff" d="   M 1579.94 147.47   Q 1570.40 136.80 1571.29 122.41   Q 1572.21 136.18 1579.94 147.47   Z"></path>
  <path fill="#8dcaff" d="   M 1673.39 133.77   L 1674.81 124.56   L 1678.26 125.06   A 0.57 0.57 0.0 0 1 1678.74 125.69   Q 1678.10 131.17 1676.20 136.96   Q 1675.33 139.60 1674.28 141.07   Q 1673.90 141.60 1673.93 140.96   Q 1674.08 137.47 1673.87 134.38   Q 1673.84 133.91 1673.39 133.77   Z"></path>
  <path fill="#8dcaff" d="   M 1673.05 134.21   Q 1673.11 134.94 1672.86 135.67   Q 1667.08 152.56 1649.99 157.27   Q 1645.42 158.53 1639.50 158.89   Q 1622.72 159.91 1605.89 158.35   Q 1631.04 158.38 1640.75 158.00   Q 1655.06 157.44 1664.60 148.34   Q 1669.96 143.23 1672.48 134.71   Q 1672.56 134.43 1673.05 134.21   Z"></path>
  <path fill="#8dcaff" d="   M 1603.47 158.06   Q 1590.79 157.82 1582.22 149.91   Q 1585.01 151.53 1587.77 153.11   Q 1590.76 154.83 1593.60 155.68   Q 1598.34 157.09 1603.47 158.06   Z"></path>
  <path fill="#8dcaff" d="   M 1119.65 171.25   Q 1112.33 172.62 1104.67 171.43   Q 1112.10 170.57 1119.65 171.25   Z"></path>
  <path fill="#8dcaff" d="   M 1158.34 171.34   Q 1156.94 172.02 1155.28 171.97   Q 1152.38 171.87 1152.23 171.87   Q 1146.53 172.18 1140.92 171.22   L 1158.34 171.34   Z"></path>
  <path fill="#8dcaff" d="   M 1197.32 173.33   Q 1192.89 174.22 1188.91 172.74   L 1197.32 173.33   Z"></path>
  <path fill="#8dcaff" d="   M 1071.64 173.71   Q 1068.73 175.52 1064.66 174.48   L 1071.64 173.71   Z"></path>
  <path fill="#8dcaff" d="   M 1210.12 174.46   Q 1206.86 175.29 1203.78 173.88   L 1210.12 174.46   Z"></path>
  <path fill="#8dcaff" d="   M 1063.24 174.71   Q 1059.88 176.31 1056.19 175.51   L 1063.24 174.71   Z"></path>
  <path fill="#8dcaff" d="   M 1235.85 177.42   Q 1224.90 177.08 1214.10 174.84   Q 1225.07 175.29 1235.85 177.42   Z"></path>
  <path fill="#8dcaff" d="   M 1054.62 175.70   Q 1051.82 177.56 1048.27 176.54   L 1054.62 175.70   Z"></path>
  <path fill="#8dcaff" d="   M 1048.07 176.45   Q 1045.22 178.20 1041.70 177.78   Q 1041.20 177.72 1040.75 177.94   Q 1038.46 179.04 1035.54 178.84   A 2.08 2.08 0.0 0 0 1034.60 178.99   Q 1031.99 180.07 1029.41 179.70   Q 1028.90 179.63 1028.47 179.90   C 1026.54 181.13 1024.15 180.64 1022.15 181.34   Q 1020.53 181.91 1018.29 181.76   Q 1017.77 181.73 1017.35 182.05   Q 1016.30 182.87 1013.50 182.88   C 1012.73 182.88 1011.74 183.47 1010.89 183.63   Q 998.20 185.96 984.80 190.60   Q 983.31 191.12 983.42 190.26   Q 995.00 186.27 1003.57 184.34   Q 1023.37 179.88 1048.07 176.45   Z"></path>
  <path fill="#8dcaff" d="   M 1263.10 182.45   L 1238.18 177.86   Q 1250.87 178.93 1263.10 182.45   Z"></path>
  <path fill="#8dcaff" d="   M 1351.09 252.73   Q 1346.80 226.76 1328.74 210.56   Q 1322.23 204.71 1312.16 199.51   Q 1301.21 193.85 1289.40 190.11   Q 1277.16 186.23 1264.63 182.70   Q 1291.48 188.44 1313.03 198.97   Q 1318.49 201.64 1324.64 206.25   Q 1330.54 210.68 1334.72 215.41   Q 1348.73 231.27 1351.09 252.73   Z"></path>
  <path fill="#8dcaff" d="   M 982.36 190.69   Q 982.86 190.90 981.89 191.29   Q 974.99 194.01 968.24 197.08   Q 951.36 204.75 939.55 219.01   Q 927.25 233.86 924.08 255.23   Q 927.15 224.89 951.47 206.20   Q 964.88 195.90 982.36 190.69   Z"></path>
  <path fill="#8dcaff" d="   M 1670.78 230.45   Q 1668.82 223.80 1665.25 220.99   Q 1658.87 215.96 1648.72 216.20   Q 1655.80 215.36 1662.26 218.47   Q 1665.57 220.07 1667.57 222.18   Q 1670.29 225.05 1670.78 230.45   Z"></path>
  <path fill="#8dcaff" d="   M 1610.01 217.87   Q 1599.93 222.00 1597.03 223.78   Q 1580.22 234.09 1575.88 252.65   Q 1575.05 256.21 1574.78 263.79   Q 1574.58 269.38 1574.02 274.99   C 1573.93 268.00 1573.60 260.49 1574.86 254.09   Q 1579.41 231.05 1601.72 220.51   Q 1606.39 218.31 1610.01 217.87   Z"></path>
  <ellipse fill="#8dcaff" cx="0.00" cy="0.00" transform="translate(1674.54,246.83) rotate(90.1)" rx="16.08" ry="0.65"></ellipse>
  <path fill="#8dcaff" d="   M 1167.67 240.99   L 1107.07 241.07   Q 1137.37 239.01 1167.67 240.99   Z"></path>
  <path fill="#8dcaff" d="   M 1101.84 241.51   L 1095.30 241.95   Q 1098.54 240.87 1101.84 241.51   Z"></path>
  <path fill="#8dcaff" d="   M 1183.16 242.18   L 1173.89 241.50   Q 1178.58 240.82 1183.16 242.18   Z"></path>
  <path fill="#8dcaff" d="   M 1199.43 244.01   L 1183.77 242.35   C 1185.14 242.36 1186.43 242.00 1187.75 242.09   Q 1193.70 242.49 1199.43 244.01   Z"></path>
  <path fill="#8dcaff" d="   M 1089.11 242.47   L 1076.55 244.00   Q 1082.82 242.31 1089.11 242.47   Z"></path>
  <path fill="#8dcaff" d="   M 1073.78 244.49   L 1069.16 245.26   Q 1071.19 243.68 1073.78 244.49   Z"></path>
  <path fill="#8dcaff" d="   M 1067.60 245.44   L 1058.99 247.36   Q 1058.92 247.17 1059.10 246.92   Q 1059.23 246.76 1059.46 246.69   Q 1063.45 245.37 1067.60 245.44   Z"></path>
  <path fill="#8dcaff" d="   M 1213.95 454.73   Q 1227.19 451.80 1231.76 450.55   C 1238.31 448.77 1246.63 445.92 1251.69 440.97   Q 1254.32 438.39 1255.45 435.08   Q 1255.99 433.53 1255.99 428.35   Q 1256.06 337.39 1256.02 271.75   Q 1256.02 269.21 1254.98 264.57   Q 1254.30 261.48 1251.71 259.11   Q 1249.97 257.52 1246.33 256.18   Q 1227.79 249.35 1208.21 245.39   Q 1228.36 248.32 1247.40 255.80   Q 1250.63 257.07 1252.36 258.73   Q 1254.44 260.72 1255.35 263.87   Q 1256.01 266.11 1256.15 266.34   Q 1256.43 266.78 1256.39 267.25   Q 1256.31 268.21 1256.63 271.44   Q 1256.87 273.83 1256.87 275.59   Q 1256.87 310.83 1256.87 420.98   Q 1256.87 432.00 1256.41 433.98   Q 1254.78 441.17 1247.89 444.89   Q 1233.45 452.69 1213.95 454.73   Z"></path>
  <path fill="#8dcaff" d="   M 1057.41 247.67   Q 1039.57 251.95 1027.16 257.12   Q 1023.36 258.71 1021.42 263.24   Q 1021.36 262.90 1021.36 262.50   Q 1021.36 262.07 1021.53 261.75   Q 1023.64 257.59 1028.70 255.66   Q 1035.11 253.21 1051.32 248.63   Q 1055.22 247.52 1057.41 247.67   Z"></path>
  <path fill="#8dcaff" d="   M 155.45 269.92   L 155.13 256.09   Q 156.48 262.72 155.45 269.92   Z"></path>
  <path fill="#8dcaff" d="   M 923.49 262.30   Q 924.46 268.51 923.44 274.61   Q 922.75 268.37 923.49 262.30   Z"></path>
  <path fill="#8dcaff" d="   M 1021.06 264.23   Q 1020.02 268.93 1020.01 272.75   Q 1019.89 415.36 1020.12 431.76   Q 1020.18 435.83 1022.48 438.80   C 1024.50 441.41 1026.76 443.38 1029.87 444.95   Q 1037.86 448.99 1046.87 451.37   Q 1039.01 450.34 1031.81 447.00   Q 1026.20 444.40 1022.68 440.13   C 1019.55 436.33 1019.10 432.35 1019.10 427.06   Q 1019.02 342.07 1019.12 276.49   Q 1019.13 270.25 1020.09 265.38   Q 1020.31 264.32 1021.06 264.23   Z"></path>
  <path fill="#8dcaff" d="   M 259.91 359.94   Q 233.43 357.02 208.69 347.60   Q 197.91 343.50 190.74 338.88   Q 167.97 324.23 159.36 298.68   Q 156.25 289.47 155.84 274.93   Q 157.16 278.96 156.90 283.26   Q 156.88 283.69 157.20 283.96   Q 157.48 284.21 157.39 284.62   Q 157.33 284.88 157.40 285.37   Q 158.31 292.14 158.92 294.54   Q 161.62 305.24 168.58 315.75   Q 182.84 337.29 207.60 346.37   Q 232.88 355.64 259.91 359.94   Z"></path>
  <path fill="#8dcaff" d="   M 409.67 287.77   Q 403.03 289.96 395.90 289.45   L 409.67 287.77   Z"></path>
  <path fill="#8dcaff" d="   M 289.31 292.63   Q 282.40 292.79 275.87 290.91   L 289.31 292.63   Z"></path>
  <path fill="#8dcaff" d="   M 375.67 291.79   Q 372.80 293.52 369.21 292.51   L 375.67 291.79   Z"></path>
  <path fill="#8dcaff" d="   M 300.62 293.49   Q 296.18 294.10 291.90 292.76   L 300.62 293.49   Z"></path>
  <path fill="#8dcaff" d="   M 325.15 294.44   Q 315.06 295.56 305.13 293.86   L 325.15 294.44   Z"></path>
  <path fill="#8dcaff" d="   M 353.49 293.84   Q 343.87 295.59 334.11 294.45   L 353.49 293.84   Z"></path>
  <path fill="#8dcaff" d="   M 454.92 352.56   Q 451.65 353.40 448.32 353.10   Q 451.45 351.72 454.92 352.56   Z"></path>
  <path fill="#8dcaff" d="   M 443.62 353.51   L 435.00 354.35   Q 438.94 352.80 443.62 353.51   Z"></path>
  <path fill="#8dcaff" d="   M 420.91 355.57   L 412.63 356.33   Q 416.64 354.78 420.91 355.57   Z"></path>
  <path fill="#8dcaff" d="   M 411.15 356.38   L 402.58 357.13   Q 406.68 355.44 411.15 356.38   Z"></path>
  <path fill="#8dcaff" d="   M 398.39 357.49   L 391.13 358.17   Q 394.65 356.80 398.39 357.49   Z"></path>
  <path fill="#8dcaff" d="   M 1670.97 357.21   L 1670.88 365.72   Q 1670.19 361.35 1670.97 357.21   Z"></path>
  <path fill="#8dcaff" d="   M 387.13 358.49   Q 383.78 359.37 380.36 359.11   Q 381.28 358.38 382.61 358.28   Q 383.68 358.19 384.84 358.07   Q 386.16 357.93 387.13 358.49   Z"></path>
  <path fill="#8dcaff" d="   M 376.82 359.44   L 367.90 360.25   Q 372.21 358.87 376.82 359.44   Z"></path>
  <path fill="#8dcaff" d="   M 267.68 361.12   Q 264.78 361.38 262.08 360.40   Q 264.98 359.52 267.68 361.12   Z"></path>
  <path fill="#8dcaff" d="   M 365.16 360.43   Q 361.77 361.47 358.31 361.11   Q 361.58 359.62 365.16 360.43   Z"></path>
  <path fill="#8dcaff" d="   M 277.42 362.15   L 270.86 361.53   Q 274.06 360.72 277.42 362.15   Z"></path>
  <path fill="#8dcaff" d="   M 354.86 361.47   L 345.33 362.24   Q 349.91 360.73 354.86 361.47   Z"></path>
  <path fill="#8dcaff" d="   M 287.64 362.93   L 280.11 362.40   Q 284.05 361.67 287.64 362.93   Z"></path>
  <path fill="#8dcaff" d="   M 342.34 362.40   L 332.21 363.03   Q 337.41 361.84 342.34 362.40   Z"></path>
  <path fill="#8dcaff" d="   M 903.77 449.42   Q 907.27 448.04 910.65 446.55   Q 914.63 444.79 916.59 443.00   Q 919.38 440.46 921.45 437.93   Q 922.91 436.15 922.89 433.00   Q 922.74 397.50 923.36 361.91   Q 924.18 394.94 923.58 432.25   Q 923.51 436.60 920.88 439.66   Q 914.10 447.52 903.77 449.42   Z"></path>
  <path fill="#8dcaff" d="   M 323.07 363.60   Q 310.98 364.36 298.92 363.58   Q 310.97 362.82 323.07 363.60   Z"></path>
  <path fill="#8dcaff" d="   M 1674.04 433.38   A 0.13 0.13 0.0 0 1 1673.91 433.25   L 1673.98 394.44   A 27.48 0.47 -89.9 0 1 1674.50 366.96   L 1674.74 366.96   A 27.48 0.47 -89.9 0 1 1675.16 394.44   L 1675.09 433.25   A 0.13 0.13 0.0 0 1 1674.96 433.38   L 1674.04 433.38   Z"></path>
  <path fill="#8dcaff" d="   M 461.77 440.96   L 462.02 374.21   Q 462.70 373.75 462.72 375.25   Q 462.93 398.44 462.90 410.12   Q 462.89 415.09 462.55 420.94   Q 462.20 427.09 462.43 431.81   Q 462.69 437.07 462.31 440.53   Q 462.28 440.78 462.05 440.87   Q 461.92 440.93 461.77 440.96   Z"></path>
  <path fill="#8dcaff" d="   M 551.77 393.79   Q 552.54 410.04 551.53 426.34   Q 550.70 410.29 551.20 394.39   Q 551.20 394.12 551.33 393.98   Q 551.51 393.78 551.77 393.79   Z"></path>
  <path fill="#8dcaff" d="   M 1573.56 432.52   Q 1573.57 439.18 1567.61 443.61   Q 1564.48 445.94 1560.63 447.22   Q 1560.55 447.24 1553.15 449.27   Q 1545.40 451.39 1537.42 452.43   Q 1548.16 449.65 1558.75 447.00   Q 1562.98 445.94 1567.36 442.86   Q 1571.91 439.65 1573.56 432.52   Z"></path>
  <path fill="#8dcaff" d="   M 1352.56 433.95   L 1355.92 440.59   Q 1352.38 438.12 1352.56 433.95   Z"></path>
  <path fill="#8dcaff" d="   M 1670.96 434.95   Q 1671.07 444.63 1668.33 455.06   Q 1663.98 471.64 1653.81 484.18   Q 1647.85 491.54 1639.06 497.57   Q 1626.20 506.39 1611.20 510.40   Q 1589.81 516.11 1577.01 518.77   Q 1566.82 520.89 1549.04 523.42   Q 1549.20 522.91 1549.79 522.82   Q 1579.08 518.58 1608.12 510.60   C 1624.40 506.13 1639.77 498.62 1651.05 486.31   Q 1657.41 479.37 1662.05 469.70   Q 1669.69 453.78 1670.96 434.95   Z"></path>
  <path fill="#8dcaff" d="   M 1357.34 441.68   Q 1371.80 449.48 1387.89 453.29   Q 1385.32 453.48 1381.00 452.21   Q 1371.20 449.31 1359.89 443.88   Q 1357.50 442.74 1357.34 441.68   Z"></path>
  <path fill="#8dcaff" d="   M 461.53 442.24   Q 462.07 442.29 461.88 443.27   Q 460.96 448.09 457.54 451.16   L 461.53 442.24   Z"></path>
  <path fill="#8dcaff" d="   M 749.11 526.14   Q 710.57 522.88 674.48 514.09   Q 669.54 512.88 663.04 510.50   Q 657.12 508.34 651.96 505.96   Q 637.24 499.19 627.99 490.53   Q 608.74 472.51 605.82 444.91   Q 607.03 449.38 608.10 453.86   Q 609.53 459.84 610.71 462.98   Q 615.95 476.94 624.84 486.23   Q 636.36 498.26 652.06 505.28   Q 666.34 511.66 681.98 515.16   Q 707.82 520.95 740.50 524.71   Q 740.52 524.71 741.14 524.96   Q 741.60 525.14 742.09 525.09   Q 745.92 524.72 749.11 526.14   Z"></path>
  <path fill="#8dcaff" d="   M 551.21 445.20   Q 550.89 459.30 544.38 472.42   Q 534.12 493.10 514.32 504.31   Q 509.11 507.27 498.78 511.99   Q 487.89 516.97 475.02 519.82   Q 461.61 522.79 447.90 524.18   Q 455.04 522.79 462.17 521.67   Q 467.18 520.89 471.27 519.96   Q 477.83 518.49 480.26 517.79   C 495.71 513.33 511.01 506.90 523.26 497.49   Q 537.34 486.69 544.51 470.29   Q 547.45 463.57 549.40 456.66   Q 549.89 454.93 550.03 451.25   Q 550.15 448.11 551.21 445.20   Z"></path>
  <path fill="#8dcaff" d="   M 743.98 453.48   Q 735.74 452.67 727.74 450.56   Q 726.68 450.28 726.69 449.76   L 743.98 453.48   Z"></path>
  <path fill="#8dcaff" d="   M 1048.55 451.76   Q 1064.95 455.42 1081.54 457.56   Q 1070.22 457.05 1054.93 453.67   Q 1050.21 452.63 1048.55 451.76   Z"></path>
  <path fill="#8dcaff" d="   M 455.10 453.66   Q 452.40 456.72 447.36 458.60   Q 441.13 460.92 435.86 461.38   Q 446.31 458.85 455.10 453.66   Z"></path>
  <path fill="#8dcaff" d="   M 749.13 454.32   Q 746.89 455.06 745.87 453.75   Q 747.51 453.68 749.13 454.32   Z"></path>
  <path fill="#8dcaff" d="   M 1529.93 453.76   Q 1528.79 454.80 1526.85 454.94   Q 1524.30 455.12 1523.70 455.30   C 1521.41 455.99 1519.17 455.66 1516.77 456.22   Q 1516.33 456.32 1514.26 456.61   Q 1511.21 457.04 1509.88 456.39   L 1529.93 453.76   Z"></path>
  <path fill="#8dcaff" d="   M 768.34 456.61   Q 760.08 457.03 752.06 454.78   L 768.34 456.61   Z"></path>
  <path fill="#8dcaff" d="   M 1405.36 455.46   Q 1402.03 456.17 1398.89 454.83   L 1405.36 455.46   Z"></path>
  <path fill="#8dcaff" d="   M 865.65 455.60   Q 862.19 457.62 857.82 456.43   L 865.65 455.60   Z"></path>
  <path fill="#8dcaff" d="   M 1208.75 455.62   Q 1206.55 456.84 1203.82 456.93   Q 1201.93 456.99 1199.77 457.47   Q 1197.39 457.99 1195.11 457.39   L 1208.75 455.62   Z"></path>
  <path fill="#8dcaff" d="   M 1417.90 456.46   Q 1414.14 457.13 1410.36 455.89   L 1417.90 456.46   Z"></path>
  <path fill="#8dcaff" d="   M 783.17 457.39   Q 777.04 458.27 770.94 456.71   L 783.17 457.39   Z"></path>
  <path fill="#8dcaff" d="   M 854.82 456.69   Q 848.70 458.35 842.47 457.44   L 854.82 456.69   Z"></path>
  <path fill="#8dcaff" d="   M 1434.36 457.44   Q 1428.52 458.18 1422.73 456.70   L 1434.36 457.44   Z"></path>
  <path fill="#8dcaff" d="   M 1096.76 458.55   Q 1090.17 459.40 1083.85 457.78   L 1096.76 458.55   Z"></path>
  <path fill="#8dcaff" d="   M 1191.69 457.81   Q 1185.20 459.53 1178.39 458.63   L 1191.69 457.81   Z"></path>
  <path fill="#8dcaff" d="   M 1123.89 459.39   Q 1114.07 460.54 1104.21 458.98   L 1123.89 459.39   Z"></path>
  <path fill="#8dcaff" d="   M 1171.38 459.02   Q 1161.89 460.52 1152.40 459.37   L 1171.38 459.02   Z"></path>
  <path fill="#8dcaff" d="   M 281.97 464.44   Q 277.73 465.69 274.07 463.64   L 281.97 464.44   Z"></path>
  <path fill="#8dcaff" d="   M 295.09 465.49   Q 290.97 466.23 286.86 464.84   Q 291.05 464.49 295.09 465.49   Z"></path>
  <path fill="#8dcaff" d="   M 417.38 464.75   Q 415.05 466.36 412.14 465.43   L 417.38 464.75   Z"></path>
  <path fill="#8dcaff" d="   M 315.09 466.73   Q 307.75 467.31 300.34 465.88   L 315.09 466.73   Z"></path>
  <path fill="#8dcaff" d="   M 408.85 465.89   Q 404.89 467.40 400.63 466.57   L 408.85 465.89   Z"></path>
  <path fill="#8dcaff" d="   M 242.07 466.40   Q 241.13 467.98 239.51 469.32   Q 237.19 471.24 236.67 471.88   Q 230.91 478.93 228.21 488.79   Q 225.97 496.92 225.59 501.80   Q 225.25 506.05 227.59 510.96   Q 229.33 514.60 233.91 516.99   Q 238.85 519.57 243.41 520.30   Q 255.42 522.19 259.41 522.93   Q 249.57 522.49 240.19 520.36   Q 232.70 518.67 228.39 513.65   Q 226.65 511.62 225.28 506.40   Q 224.51 503.44 225.29 498.64   Q 227.09 487.66 231.49 478.24   Q 235.05 470.60 242.07 466.40   Z"></path>
  <path fill="#8dcaff" d="   M 345.38 467.39   Q 333.04 468.62 320.70 466.97   L 345.38 467.39   Z"></path>
  <path fill="#8dcaff" d="   M 395.88 466.96   Q 384.81 468.63 373.61 467.39   L 395.88 466.96   Z"></path>
  <path fill="#8dcaff" d="   M 8.25 480.15   L 9.55 488.72   Q 8.70 493.85 8.91 496.48   Q 9.36 502.00 7.60 496.80   Q 5.26 489.94 4.37 481.31   Q 4.31 480.75 4.87 480.67   L 8.25 480.15   Z"></path>
  <path fill="#8dcaff" d="   M 56.58 527.97   Q 44.22 527.95 33.40 522.34   Q 17.60 514.14 12.13 497.00   Q 18.24 512.16 30.31 519.66   Q 41.61 526.67 56.58 527.97   Z"></path>
  <path fill="#8dcaff" d="   M 1063.02 526.36   Q 1020.12 522.30 979.13 509.39   Q 977.90 509.00 973.63 507.88   Q 972.46 507.57 971.33 507.80   Q 970.65 507.94 969.06 508.42   Q 947.34 515.01 925.90 519.21   Q 913.40 521.66 911.33 522.07   Q 906.42 523.04 894.97 524.33   Q 894.92 524.11 895.08 523.92   Q 895.21 523.77 895.44 523.74   Q 931.91 519.04 967.36 508.07   Q 969.45 507.42 972.25 507.29   Q 974.14 507.20 976.95 508.04   Q 1014.01 519.15 1038.39 522.62   Q 1057.19 525.29 1063.02 526.36   Z"></path>
  <path fill="#8dcaff" d="   M 1301.80 507.35   Q 1285.49 513.68 1268.36 517.07   L 1301.80 507.35   Z"></path>
  <path fill="#8dcaff" d="   M 1376.10 523.01   Q 1339.50 518.70 1304.13 507.40   Q 1304.44 506.96 1305.48 507.26   Q 1340.20 517.37 1376.10 523.01   Z"></path>
  <path fill="#8dcaff" d="   M 104.18 513.18   Q 103.56 525.25 92.23 527.70   Q 90.71 528.03 85.48 528.03   Q 87.65 527.42 89.99 527.23   Q 93.31 526.95 94.48 526.53   Q 98.17 525.19 100.56 522.13   Q 101.67 520.70 102.63 517.78   Q 103.38 515.52 104.18 513.18   Z"></path>
  <path fill="#8dcaff" d="   M 1266.39 517.55   Q 1257.86 520.27 1248.91 521.29   Q 1257.51 518.49 1266.39 517.55   Z"></path>
  <path fill="#8dcaff" d="   M 1247.62 521.48   Q 1242.96 523.00 1238.10 523.08   Q 1242.63 521.35 1247.62 521.48   Z"></path>
  <path fill="#8dcaff" d="   M 1390.41 525.02   L 1378.35 523.41   Q 1384.64 523.09 1390.41 525.02   Z"></path>
  <path fill="#8dcaff" d="   M 277.17 525.12   L 263.35 523.52   Q 270.46 523.10 277.17 525.12   Z"></path>
  <path fill="#8dcaff" d="   M 1235.49 523.57   Q 1233.25 524.24 1230.87 524.16   Q 1232.98 522.89 1235.49 523.57   Z"></path>
  <path fill="#8dcaff" d="   M 1547.38 523.43   Q 1540.67 525.11 1533.83 525.16   Q 1540.43 523.32 1547.38 523.43   Z"></path>
  <path fill="#8dcaff" d="   M 892.65 524.44   Q 889.57 525.39 886.37 525.17   Q 889.33 523.62 892.65 524.44   Z"></path>
  <path fill="#8dcaff" d="   M 1228.63 524.42   Q 1225.85 525.35 1222.93 525.18   Q 1225.64 523.74 1228.63 524.42   Z"></path>
  <path fill="#8dcaff" d="   M 444.90 524.54   Q 442.78 525.30 440.58 525.12   Q 442.48 523.81 444.90 524.54   Z"></path>
  <path fill="#8dcaff" d="   M 436.52 525.52   Q 434.13 526.28 431.59 526.07   Q 433.83 524.81 436.52 525.52   Z"></path>
  <path fill="#8dcaff" d="   M 882.86 525.54   L 875.88 526.24   Q 879.07 524.87 882.86 525.54   Z"></path>
  <path fill="#8dcaff" d="   M 1220.35 525.53   Q 1217.25 526.37 1214.11 526.20   Q 1217.11 524.79 1220.35 525.53   Z"></path>
  <path fill="#8dcaff" d="   M 1531.70 525.51   L 1513.34 527.07   Q 1516.58 526.00 1520.14 525.91   Q 1520.17 525.91 1522.06 526.22   Q 1523.14 526.39 1524.51 525.86   Q 1527.06 524.87 1531.70 525.51   Z"></path>
  <path fill="#8dcaff" d="   M 427.12 526.49   L 418.69 527.20   Q 422.82 525.45 427.12 526.49   Z"></path>
  <path fill="#8dcaff" d="   M 785.33 528.02   Q 769.59 528.19 753.74 526.48   Q 759.08 525.57 763.18 526.65   Q 764.98 527.13 766.21 527.04   Q 767.84 526.92 767.92 526.92   Q 776.64 527.26 785.33 528.02   Z"></path>
  <path fill="#8dcaff" d="   M 1070.71 527.08   L 1064.54 526.45   Q 1067.90 525.28 1070.71 527.08   Z"></path>
  <path fill="#8dcaff" d="   M 1211.64 526.41   L 1204.06 527.16   Q 1207.62 525.41 1211.64 526.41   Z"></path>
  <path fill="#8dcaff" d="   M 1412.61 527.17   L 1405.38 526.58   Q 1409.02 525.30 1412.61 527.17   Z"></path>
  <path fill="#8dcaff" d="   M 415.66 527.43   L 405.09 528.18   Q 410.19 526.61 415.66 527.43   Z"></path>
  <path fill="#8dcaff" d="   M 1082.18 527.91   L 1075.31 527.52   Q 1078.81 526.57 1082.18 527.91   Z"></path>
  <path fill="#8dcaff" d="   M 1201.26 527.43   L 1191.40 528.17   Q 1196.22 526.71 1201.26 527.43   Z"></path>
  <path fill="#8dcaff" d="   M 1507.44 527.42   L 1494.41 528.02   Q 1500.85 526.86 1507.44 527.42   Z"></path>
  <path fill="#8dcaff" d="   M 312.13 527.95   L 304.86 527.62   Q 308.48 526.48 312.13 527.95   Z"></path>
  <path fill="#8dcaff" d="   M 854.87 527.52   L 838.87 528.08   Q 846.81 526.84 854.87 527.52   Z"></path>
  <path fill="#8dcaff" d="   M 1434.81 528.05   L 1418.10 527.43   Q 1426.46 526.94 1434.81 528.05   Z"></path>
  <path fill="#8dcaff" d="   M 77.62 528.48   Q 69.50 529.31 61.40 528.49   Q 69.46 527.55 77.62 528.48   Z"></path>
  <path fill="#8dcaff" d="   M 333.50 528.80   L 320.06 528.46   Q 326.76 527.48 333.50 528.80   Z"></path>
  <path fill="#8dcaff" d="   M 828.21 528.56   Q 810.31 529.46 792.43 528.48   Q 810.30 527.53 828.21 528.56   Z"></path>
  <path fill="#8dcaff" d="   M 1100.00 529.11   L 1089.06 528.45   Q 1094.53 527.59 1100.00 529.11   Z"></path>
  <path fill="#8dcaff" d="   M 1187.05 528.45   L 1175.07 529.15   Q 1181.02 527.78 1187.05 528.45   Z"></path>
  <path fill="#8dcaff" d="   M 1483.25 528.55   Q 1463.03 529.53 1442.83 528.48   L 1483.25 528.55   Z"></path>
  <path fill="#8dcaff" d="   M 1169.46 529.39   Q 1160.33 530.66 1151.21 529.84   L 1169.46 529.39   Z"></path>
  <path fill="#8dcaff" d="   M 1122.01 529.84   Q 1116.10 530.65 1109.90 529.57   L 1122.01 529.84   Z"></path>
  <rect fill="#8dcaff" x="1124.37" y="533.16" width="28.42" height="0.60" rx="0.28"></rect>
</svg>
