<?xml version="1.0" encoding="UTF-8" standalone="no"?>
<svg xmlns="http://www.w3.org/2000/svg" version="1.1" viewBox="0.00 0.00 256.00 256.00">
  <g stroke-width="2.00" fill="none" stroke-linecap="butt">
    <path stroke="#8cb7f7" vector-effect="non-scaling-stroke" d="   M 150.47 17.36   Q 148.46 16.55 147.19 16.35   Q 113.25 10.80 82.39 24.41   Q 63.47 32.75 48.93 46.94   Q 30.44 64.99 21.64 89.10   Q 18.17 98.61 16.52 108.41   Q 9.60 149.62 30.70 186.04   Q 34.81 193.13 39.79 197.20   Q 51.03 206.38 65.50 205.42   C 76.35 204.70 85.21 200.23 92.48 192.23   C 102.94 180.73 103.37 167.24 98.83 153.09   Q 96.96 147.25 91.45 131.91   Q 84.38 112.21 82.42 93.91   Q 80.77 78.56 83.78 64.57   Q 87.13 48.93 94.36 38.60   Q 104.22 24.50 121.87 19.67   Q 135.49 15.93 150.61 17.45   Q 150.62 17.45 150.62 17.43   Q 150.62 17.43 150.62 17.42   Q 150.63 17.38 150.60 17.37   Q 150.56 17.37 150.52 17.37   Q 150.50 17.37 150.47 17.36"></path>
    <path stroke="#8cb7f7" vector-effect="non-scaling-stroke" d="   M 221.88 191.39   Q 241.26 162.11 241.12 127.74   C 240.95 84.29 216.67 45.73 177.89 26.39   Q 171.34 23.12 163.59 24.87   Q 151.59 27.57 146.64 37.47   Q 142.98 44.78 144.35 52.98   Q 145.74 61.27 152.85 67.47   Q 152.93 67.55 168.66 80.55   Q 180.42 90.28 190.40 104.40   Q 195.43 111.50 198.96 121.12   Q 203.78 134.24 204.60 148.02   Q 205.24 158.63 203.52 167.95   Q 199.03 192.38 181.43 211.72   Q 174.22 219.65 163.07 225.32   C 142.28 235.91 118.12 239.76 95.45 234.24   Q 78.21 230.04 62.38 219.97   Q 62.25 219.88 62.22 219.88   Q 62.22 219.88 62.14 219.88   Q 62.07 219.88 62.14 219.94   C 74.16 228.68 87.91 234.96 102.37 238.23   Q 143.96 247.63 182.55 227.27   Q 184.23 226.38 185.26 226.66   Q 223.11 236.76 225.41 237.37   A 1.14 1.14 0.0 0 0 226.84 236.14   Q 224.04 211.84 221.60 193.70   Q 221.39 192.14 221.88 191.39"></path>
  </g>
  <path fill="#fefefe" d="   M 185.10 233.26   C 125.63 265.23 52.16 242.30 21.48 182.59   C 0.88 142.48 4.59 94.06 31.13 57.64   C 67.99 7.04 137.87 -6.99 191.16 26.27   C 248.63 62.13 265.16 138.04 227.54 194.62   Q 227.22 195.10 227.30 195.67   Q 231.61 225.99 232.91 234.84   C 233.43 238.30 233.16 240.99 230.21 242.79   Q 227.85 244.22 224.64 243.36   Q 198.36 236.28 186.52 233.10   A 1.94 1.93 -51.6 0 0 185.10 233.26   Z   M 150.47 17.36   Q 148.46 16.55 147.19 16.35   Q 113.25 10.80 82.39 24.41   Q 63.47 32.75 48.93 46.94   Q 30.44 64.99 21.64 89.10   Q 18.17 98.61 16.52 108.41   Q 9.60 149.62 30.70 186.04   Q 34.81 193.13 39.79 197.20   Q 51.03 206.38 65.50 205.42   C 76.35 204.70 85.21 200.23 92.48 192.23   C 102.94 180.73 103.37 167.24 98.83 153.09   Q 96.96 147.25 91.45 131.91   Q 84.38 112.21 82.42 93.91   Q 80.77 78.56 83.78 64.57   Q 87.13 48.93 94.36 38.60   Q 104.22 24.50 121.87 19.67   Q 135.49 15.93 150.61 17.45   Q 150.62 17.45 150.62 17.43   Q 150.62 17.43 150.62 17.42   Q 150.63 17.38 150.60 17.37   Q 150.56 17.37 150.52 17.37   Q 150.50 17.37 150.47 17.36   Z   M 221.88 191.39   Q 241.26 162.11 241.12 127.74   C 240.95 84.29 216.67 45.73 177.89 26.39   Q 171.34 23.12 163.59 24.87   Q 151.59 27.57 146.64 37.47   Q 142.98 44.78 144.35 52.98   Q 145.74 61.27 152.85 67.47   Q 152.93 67.55 168.66 80.55   Q 180.42 90.28 190.40 104.40   Q 195.43 111.50 198.96 121.12   Q 203.78 134.24 204.60 148.02   Q 205.24 158.63 203.52 167.95   Q 199.03 192.38 181.43 211.72   Q 174.22 219.65 163.07 225.32   C 142.28 235.91 118.12 239.76 95.45 234.24   Q 78.21 230.04 62.38 219.97   Q 62.25 219.88 62.22 219.88   Q 62.22 219.88 62.14 219.88   Q 62.07 219.88 62.14 219.94   C 74.16 228.68 87.91 234.96 102.37 238.23   Q 143.96 247.63 182.55 227.27   Q 184.23 226.38 185.26 226.66   Q 223.11 236.76 225.41 237.37   A 1.14 1.14 0.0 0 0 226.84 236.14   Q 224.04 211.84 221.60 193.70   Q 221.39 192.14 221.88 191.39   Z"></path>
  <path fill="#196fef" d="   M 150.52 17.37   Q 150.56 17.37 150.60 17.37   Q 150.63 17.38 150.62 17.42   Q 150.62 17.43 150.62 17.43   Q 150.62 17.45 150.61 17.45   Q 135.49 15.93 121.87 19.67   Q 104.22 24.50 94.36 38.60   Q 87.13 48.93 83.78 64.57   Q 80.77 78.56 82.42 93.91   Q 84.38 112.21 91.45 131.91   Q 96.96 147.25 98.83 153.09   C 103.37 167.24 102.94 180.73 92.48 192.23   C 85.21 200.23 76.35 204.70 65.50 205.42   Q 51.03 206.38 39.79 197.20   Q 34.81 193.13 30.70 186.04   Q 9.60 149.62 16.52 108.41   Q 18.17 98.61 21.64 89.10   Q 30.44 64.99 48.93 46.94   Q 63.47 32.75 82.39 24.41   Q 113.25 10.80 147.19 16.35   Q 148.46 16.55 150.47 17.36   Q 150.50 17.37 150.52 17.37   Z"></path>
  <path fill="#196fef" d="   M 221.88 191.39   Q 221.39 192.14 221.60 193.70   Q 224.04 211.84 226.84 236.14   A 1.14 1.14 0.0 0 1 225.41 237.37   Q 223.11 236.76 185.26 226.66   Q 184.23 226.38 182.55 227.27   Q 143.96 247.63 102.37 238.23   C 87.91 234.96 74.16 228.68 62.14 219.94   Q 62.07 219.88 62.14 219.88   Q 62.22 219.88 62.22 219.88   Q 62.25 219.88 62.38 219.97   Q 78.21 230.04 95.45 234.24   C 118.12 239.76 142.28 235.91 163.07 225.32   Q 174.22 219.65 181.43 211.72   Q 199.03 192.38 203.52 167.95   Q 205.24 158.63 204.60 148.02   Q 203.78 134.24 198.96 121.12   Q 195.43 111.50 190.40 104.40   Q 180.42 90.28 168.66 80.55   Q 152.93 67.55 152.85 67.47   Q 145.74 61.27 144.35 52.98   Q 142.98 44.78 146.64 37.47   Q 151.59 27.57 163.59 24.87   Q 171.34 23.12 177.89 26.39   C 216.67 45.73 240.95 84.29 241.12 127.74   Q 241.26 162.11 221.88 191.39   Z"></path>
</svg>
