<?xml version="1.0" encoding="UTF-8" standalone="no"?>
<!DOCTYPE svg PUBLIC "-//W3C//DTD SVG 1.1//EN" "http://www.w3.org/Graphics/SVG/1.1/DTD/svg11.dtd">
<svg xmlns="http://www.w3.org/2000/svg" version="1.1" viewBox="0.00 0.00 1100.00 400.00">
<path fill="#000000" d="
  M 449.36 122.02
  C 445.38 141.56 426.44 151.75 407.95 144.49
  Q 397.19 140.27 392.69 129.54
  C 383.62 107.93 400.23 84.47 423.92 87.51
  C 437.83 89.30 446.85 98.33 449.32 111.96
  Q 449.54 113.15 449.78 111.96
  Q 450.18 109.95 450.82 108.04
  C 455.29 94.54 468.18 85.82 482.30 87.44
  C 494.90 88.88 505.16 96.48 507.95 108.85
  Q 508.32 110.50 508.71 112.15
  Q 508.94 113.16 509.12 112.13
  C 510.26 105.66 513.64 99.15 518.40 95.04
  Q 532.50 82.85 550.65 89.66
  C 560.69 93.42 566.86 102.71 568.08 113.28
  C 570.58 135.09 550.86 151.40 530.06 145.65
  Q 512.72 140.86 509.17 122.24
  Q 508.92 120.92 508.65 122.24
  C 505.16 139.51 488.89 150.24 471.57 145.88
  Q 453.56 141.35 449.77 122.03
  Q 449.57 121.00 449.36 122.02
  Z"
/>
<path fill="#000000" d="
  M 923.83 121.55
  C 920.04 142.58 898.11 152.78 879.53 143.06
  Q 868.05 137.05 865.21 123.08
  C 862.65 110.51 868.13 97.86 879.20 91.27
  C 888.68 85.64 901.11 85.88 910.40 91.43
  Q 921.50 98.05 923.88 112.39
  Q 924.05 113.41 924.22 112.39
  Q 926.36 99.82 936.48 92.60
  C 951.45 81.90 974.62 87.37 981.26 105.24
  Q 986.24 118.66 980.17 130.57
  C 973.50 143.66 958.85 149.45 944.72 145.41
  Q 927.77 140.56 924.18 121.55
  Q 924.00 120.59 923.83 121.55
  Z"
/>
<path fill="#000000" d="
  M 351.38 243.34
  Q 352.82 245.49 355.75 245.49
  Q 467.85 245.42 582.21 245.50
  C 585.12 245.50 587.68 247.95 587.75 250.80
  Q 587.80 253.07 587.57 255.36
  Q 585.09 279.76 571.64 300.20
  C 569.21 303.89 566.37 304.76 561.80 304.76
  Q 527.93 304.76 494.00 304.81
  Q 493.25 304.81 492.50 304.81
  Q 413.14 305.02 320.75 305.00
  C 308.16 304.99 296.96 296.60 292.78 284.57
  Q 291.15 279.89 291.17 269.46
  Q 291.30 190.10 291.24 114.21
  C 291.23 109.06 294.51 105.70 299.26 104.14
  Q 321.18 96.95 345.36 88.83
  C 349.13 87.56 351.01 90.60 351.01 93.88
  Q 351.00 167.86 350.99 242.08
  Q 350.99 242.77 351.38 243.34
  Z"
/>
<path fill="#000000" d="
  M 844.78 244.84
  C 844.27 218.83 827.65 196.79 802.99 188.99
  C 776.81 180.70 748.23 192.26 734.55 215.69
  Q 731.13 221.55 727.78 231.82
  Q 721.63 250.62 714.73 271.34
  C 711.29 281.67 707.39 289.69 700.47 297.97
  C 696.69 302.50 693.99 305.02 687.94 305.02
  Q 661.00 305.02 636.32 304.95
  C 623.58 304.91 612.72 295.98 608.83 284.09
  Q 607.43 279.83 607.43 268.85
  Q 607.47 192.61 607.47 114.35
  C 607.47 109.63 610.56 105.89 614.97 104.43
  Q 638.38 96.70 661.15 89.08
  C 664.49 87.96 667.25 89.62 667.25 93.50
  Q 667.26 165.95 667.24 241.72
  A 3.80 3.80 0.0 0 0 671.07 245.52
  Q 682.43 245.43 693.25 245.55
  C 697.80 245.60 701.66 243.34 703.20 238.90
  Q 706.69 228.78 709.51 219.93
  Q 712.95 209.10 716.65 201.59
  C 731.46 171.44 760.34 151.38 793.78 147.22
  Q 804.00 145.95 814.00 146.91
  Q 851.97 150.56 877.86 178.03
  C 906.68 208.61 912.45 255.21 892.75 292.16
  Q 886.63 303.64 878.45 312.18
  C 876.70 313.99 874.14 313.42 872.36 312.02
  Q 867.30 308.01 860.69 306.17
  Q 856.29 304.94 849.04 304.95
  Q 788.70 305.01 724.70 305.00
  Q 723.92 305.00 723.40 304.49
  C 722.41 303.51 722.59 302.34 723.29 301.29
  Q 731.00 289.67 734.38 279.81
  Q 738.80 266.90 743.47 252.71
  C 744.94 248.27 748.34 245.49 752.88 245.49
  Q 800.90 245.42 844.12 245.50
  Q 844.79 245.51 844.78 244.84
  Z"
/>
<path fill="#f11d21" d="
  M 125.13 97.82
  Q 145.50 109.67 165.65 121.21
  C 171.54 124.59 171.85 132.69 165.80 136.18
  Q 116.71 164.46 69.89 191.56
  C 64.79 194.52 57.43 191.94 56.97 185.52
  Q 56.87 184.10 56.85 182.71
  Q 56.60 154.81 56.83 128.59
  Q 56.89 122.16 63.13 118.61
  Q 83.45 107.06 103.93 94.95
  C 107.96 92.57 112.57 90.86 116.84 93.17
  Q 121.02 95.42 125.13 97.82
  Z"
/>
<path fill="#000000" d="
  M 982.68 243.61
  A 3.47 3.42 -28.4 0 0 983.25 241.75
  Q 983.28 197.34 983.22 154.39
  C 983.21 148.68 986.18 145.59 991.35 143.86
  Q 1014.49 136.10 1037.53 128.46
  A 4.02 4.01 80.9 0 1 1042.81 132.29
  Q 1042.63 200.40 1042.83 270.08
  Q 1042.86 280.40 1041.29 284.86
  C 1037.93 294.37 1030.10 301.69 1020.39 304.08
  Q 1016.26 305.09 1008.05 305.06
  Q 974.55 304.93 942.99 305.00
  Q 942.24 305.00 941.50 304.98
  Q 923.92 304.45 908.60 304.81
  C 906.73 304.86 905.17 303.33 906.40 301.52
  Q 922.73 277.71 923.87 248.82
  C 923.95 246.68 926.07 245.48 928.05 245.48
  Q 952.63 245.47 978.54 245.47
  C 980.15 245.48 981.73 245.01 982.68 243.61
  Z"
/>
<path fill="#f11d21" d="
  M 123.29 214.32
  C 123.34 218.89 127.57 221.53 131.61 219.19
  Q 145.02 211.43 159.03 203.33
  C 162.87 201.11 162.11 195.90 158.54 193.88
  Q 152.31 190.36 146.11 186.70
  C 142.24 184.41 141.20 179.06 143.52 175.29
  Q 144.72 173.35 147.15 171.96
  Q 171.42 158.06 194.03 144.87
  Q 200.06 141.35 205.60 144.47
  Q 224.02 154.85 239.64 164.14
  C 243.07 166.18 244.55 169.74 244.55 173.56
  Q 244.58 200.05 244.56 224.46
  C 244.55 228.50 242.30 232.15 238.94 234.08
  Q 177.60 269.37 117.82 303.98
  C 112.97 306.79 109.27 305.51 104.57 302.79
  Q 83.15 290.42 61.72 278.07
  C 58.87 276.42 56.92 272.60 56.91 269.22
  Q 56.85 248.70 56.90 230.69
  C 56.91 225.59 59.49 222.54 63.76 220.11
  Q 84.71 208.17 110.38 193.19
  C 116.60 189.56 123.43 194.10 123.32 201.08
  Q 123.21 207.80 123.29 214.32
  Z"
/>
</svg>
