<?xml version="1.0" encoding="UTF-8" standalone="no"?>
<!DOCTYPE svg PUBLIC "-//W3C//DTD SVG 1.1//EN" "http://www.w3.org/Graphics/SVG/1.1/DTD/svg11.dtd">
<svg xmlns="http://www.w3.org/2000/svg" version="1.1" viewBox="0.00 0.00 450.00 450.00">
<g stroke-width="2.00" fill="none" stroke-linecap="butt">
<path stroke="#f5913f" vector-effect="non-scaling-stroke" d="
  M 310.85 205.58
  L 309.52 195.07"
/>
<path stroke="#fbb03d" vector-effect="non-scaling-stroke" d="
  M 309.52 195.07
  Q 310.27 195.83 309.88 194.05
  Q 306.71 179.38 297.23 167.81
  Q 296.61 167.05 296.04 166.76"
/>
<path stroke="#fbb03d" vector-effect="non-scaling-stroke" d="
  M 186.89 110.87
  Q 191.34 98.60 199.63 89.21
  Q 200.81 87.87 204.42 84.91
  Q 206.89 82.89 209.07 80.34"
/>
<path stroke="#f9a33d" vector-effect="non-scaling-stroke" d="
  M 309.52 195.07
  Q 305.98 179.86 295.97 167.77"
/>
<path stroke="#fdb837" vector-effect="non-scaling-stroke" d="
  M 181.99 188.13
  Q 178.85 191.81 177.50 196.51
  Q 176.73 199.18 175.61 200.66
  Q 173.75 203.11 172.47 205.76
  C 171.20 208.39 168.80 210.40 166.88 212.60
  Q 164.75 215.06 162.10 216.66
  Q 153.62 221.78 142.98 221.52"
/>
<path stroke="#f89939" vector-effect="non-scaling-stroke" d="
  M 158.20 232.73
  Q 158.85 232.57 159.51 232.62
  Q 159.75 232.64 159.53 232.54
  Q 159.48 232.52 159.49 232.46
  Q 159.52 232.30 159.68 232.36
  Q 160.93 232.83 162.20 232.95"
/>
<path stroke="#f9a33d" vector-effect="non-scaling-stroke" d="
  M 162.20 232.95
  C 171.65 235.59 181.48 236.91 191.19 234.80
  Q 191.58 234.72 191.74 234.51
  Q 191.99 234.19 191.77 233.80"
/>
<path stroke="#fdb837" vector-effect="non-scaling-stroke" d="
  M 191.52 233.48
  Q 185.99 234.86 180.25 234.78
  Q 171.51 234.66 163.15 232.20
  A 0.83 0.82 -60.6 0 0 162.30 232.44
  Q 162.07 232.70 162.20 232.95"
/>
</g>
<path fill="#f79e3f" d="
  M 310.85 205.58
  L 309.52 195.07
  Q 310.27 195.83 309.88 194.05
  Q 306.71 179.38 297.23 167.81
  Q 296.61 167.05 296.04 166.76
  C 293.79 164.61 291.50 162.18 288.99 160.48
  Q 284.14 157.20 278.76 153.50
  C 276.99 152.28 275.11 151.54 273.42 150.23
  Q 271.55 148.77 269.44 147.47
  Q 263.67 143.91 257.68 140.40
  Q 256.55 139.74 255.19 139.16
  C 253.35 138.39 252.33 136.81 250.53 136.06
  Q 249.21 135.51 247.93 134.66
  Q 243.11 131.46 237.79 128.80
  Q 231.88 125.84 227.32 123.25
  Q 222.58 120.56 217.35 118.00
  Q 217.15 117.91 208.49 113.53
  Q 200.74 109.61 194.50 108.43
  Q 191.75 107.91 186.89 110.87
  Q 191.34 98.60 199.63 89.21
  Q 200.81 87.87 204.42 84.91
  Q 206.89 82.89 209.07 80.34
  Q 210.60 80.12 212.07 79.41
  Q 215.24 77.87 218.40 76.31
  Q 221.32 74.86 224.54 74.71
  Q 227.47 74.57 230.74 75.81
  Q 241.13 79.75 253.30 86.39
  Q 274.20 97.78 293.93 110.54
  Q 300.96 115.08 305.95 119.71
  Q 308.95 122.49 309.89 126.14
  C 310.29 127.72 311.00 129.26 311.09 130.90
  Q 311.36 135.48 311.55 140.14
  Q 311.57 140.63 311.82 141.05
  Q 311.95 141.27 311.96 141.54
  Q 312.27 151.27 312.39 160.90
  Q 312.39 161.44 312.69 161.91
  Q 312.80 162.10 312.90 162.30
  Q 312.99 162.50 312.99 162.72
  Q 313.02 172.18 313.02 182.01
  C 313.02 183.08 312.26 183.32 312.27 184.36
  Q 312.34 190.63 312.07 196.29
  Q 312.05 196.76 311.74 197.13
  A 1.18 1.12 -24.1 0 0 311.48 197.76
  L 310.85 205.58
  Z"
/>
<path fill="#fec13b" d="
  M 209.07 80.34
  Q 206.89 82.89 204.42 84.91
  Q 200.81 87.87 199.63 89.21
  Q 191.34 98.60 186.89 110.87
  Q 186.39 111.11 185.83 111.90
  Q 185.38 112.51 185.30 113.24
  C 185.12 114.81 184.26 115.92 184.10 117.53
  Q 183.39 124.74 183.19 133.19
  Q 183.15 135.17 182.65 137.14
  Q 182.12 139.24 182.78 141.15
  Q 182.95 141.65 182.66 142.10
  Q 182.33 142.59 182.32 143.00
  Q 181.65 165.98 181.99 188.13
  Q 178.85 191.81 177.50 196.51
  Q 176.73 199.18 175.61 200.66
  Q 173.75 203.11 172.47 205.76
  C 171.20 208.39 168.80 210.40 166.88 212.60
  Q 164.75 215.06 162.10 216.66
  Q 153.62 221.78 142.98 221.52
  C 142.07 219.45 140.78 217.74 140.37 215.52
  Q 140.07 213.90 139.48 212.40
  Q 138.99 211.17 138.91 210.00
  Q 138.63 206.05 138.49 201.92
  C 138.46 201.10 138.01 200.58 137.99 199.71
  Q 137.83 192.41 137.66 185.56
  C 137.63 184.33 136.99 183.57 136.99 182.26
  Q 136.95 172.17 136.98 162.44
  Q 136.99 160.79 137.44 159.27
  Q 138.19 156.74 137.24 154.46
  Q 136.94 153.72 137.40 153.02
  Q 137.71 152.56 137.71 151.99
  Q 137.80 145.85 137.97 139.23
  C 138.04 136.50 138.84 134.10 138.87 131.33
  Q 138.90 129.00 139.81 126.78
  Q 140.58 124.86 140.89 122.86
  Q 140.97 122.32 141.36 121.92
  C 147.30 115.87 154.23 111.23 161.21 106.64
  Q 165.70 103.68 171.50 100.36
  Q 175.02 98.34 178.50 95.96
  Q 181.83 93.69 185.61 91.85
  C 193.35 88.06 200.78 83.26 209.07 80.34
  Z"
/>
<path fill="#fec13b" d="
  M 296.04 166.76
  Q 296.61 167.05 297.23 167.81
  Q 306.71 179.38 309.88 194.05
  Q 310.27 195.83 309.52 195.07
  Q 305.98 179.86 295.97 167.77
  L 296.04 166.76
  Z"
/>
<path fill="#f3843e" d="
  M 295.97 167.77
  Q 305.98 179.86 309.52 195.07
  L 310.85 205.58
  Q 309.92 210.44 309.40 215.88
  C 309.03 219.81 300.61 226.19 296.50 229.03
  Q 283.15 238.26 260.42 251.15
  Q 247.24 258.62 232.80 264.86
  C 229.95 266.09 225.82 267.77 222.88 267.09
  Q 218.95 266.19 209.40 261.76
  Q 190.82 253.14 166.75 238.25
  Q 161.09 234.76 158.20 232.73
  Q 158.85 232.57 159.51 232.62
  Q 159.75 232.64 159.53 232.54
  Q 159.48 232.52 159.49 232.46
  Q 159.52 232.30 159.68 232.36
  Q 160.93 232.83 162.20 232.95
  C 171.65 235.59 181.48 236.91 191.19 234.80
  Q 191.58 234.72 191.74 234.51
  Q 191.99 234.19 191.77 233.80
  Q 192.12 234.58 193.50 234.19
  C 196.64 233.29 199.63 232.33 202.66 230.89
  Q 246.78 209.92 284.93 183.33
  Q 292.55 178.02 294.31 175.23
  Q 296.11 172.36 295.61 168.75
  Q 295.52 168.11 295.97 167.77
  Z"
/>
<path fill="#fcae33" d="
  M 181.99 188.13
  C 182.58 192.49 182.44 196.89 182.85 200.94
  C 183.29 205.24 182.98 209.70 183.61 213.89
  C 184.14 217.37 183.67 220.80 184.64 224.12
  C 185.67 227.63 187.09 232.02 191.08 232.77
  Q 191.41 232.83 191.48 233.17
  Q 191.50 233.30 191.52 233.48
  Q 185.99 234.86 180.25 234.78
  Q 171.51 234.66 163.15 232.20
  A 0.83 0.82 -60.6 0 0 162.30 232.44
  Q 162.07 232.70 162.20 232.95
  Q 160.93 232.83 159.68 232.36
  Q 159.52 232.30 159.49 232.46
  Q 159.48 232.52 159.53 232.54
  Q 159.75 232.64 159.51 232.62
  Q 158.85 232.57 158.20 232.73
  L 142.98 221.52
  Q 153.62 221.78 162.10 216.66
  Q 164.75 215.06 166.88 212.60
  C 168.80 210.40 171.20 208.39 172.47 205.76
  Q 173.75 203.11 175.61 200.66
  Q 176.73 199.18 177.50 196.51
  Q 178.85 191.81 181.99 188.13
  Z"
/>
<path fill="#fec13b" d="
  M 191.52 233.48
  Q 191.66 233.58 191.77 233.80
  Q 191.99 234.19 191.74 234.51
  Q 191.58 234.72 191.19 234.80
  C 181.48 236.91 171.65 235.59 162.20 232.95
  Q 162.07 232.70 162.30 232.44
  A 0.83 0.82 -60.6 0 1 163.15 232.20
  Q 171.51 234.66 180.25 234.78
  Q 185.99 234.86 191.52 233.48
  Z"
/>
<circle fill="#000000" cx="333.77" cy="293.27" r="7.45"/>
<path fill="#000000" d="
  M 109.90 350.26
  C 108.32 350.67 106.64 351.58 104.96 351.43
  Q 104.42 351.38 104.02 351.02
  C 97.34 345.06 92.69 338.05 94.41 328.74
  Q 95.48 322.93 99.30 318.55
  Q 103.78 313.41 110.30 311.92
  C 123.69 308.84 135.61 318.62 136.03 332.23
  C 136.17 336.75 138.71 340.32 143.09 341.94
  Q 149.91 344.47 154.98 338.25
  C 157.21 335.52 157.09 331.30 156.86 327.99
  C 156.76 326.58 157.13 325.37 157.25 323.99
  A 0.73 0.73 0.0 0 1 158.03 323.32
  C 160.49 323.49 166.92 324.85 167.31 327.86
  Q 167.59 330.00 167.62 332.27
  C 167.69 338.45 172.72 343.24 178.97 342.56
  C 192.16 341.10 191.00 321.47 177.06 321.86
  Q 166.92 322.14 158.25 321.72
  Q 156.96 321.66 157.00 320.38
  Q 157.15 315.79 160.16 311.69
  Q 160.53 311.17 161.17 311.18
  Q 167.60 311.18 173.49 311.04
  C 180.66 310.86 187.89 312.18 192.93 317.45
  Q 198.24 323.00 198.67 330.96
  Q 198.85 334.20 200.05 336.88
  C 201.91 341.03 206.46 343.22 210.82 342.52
  Q 215.60 341.75 218.26 337.28
  Q 219.72 334.84 219.64 331.21
  Q 219.46 322.03 219.69 313.00
  Q 219.73 311.46 221.27 311.53
  Q 225.16 311.71 228.96 314.13
  Q 229.49 314.47 229.65 315.08
  Q 230.09 316.74 230.12 318.48
  Q 230.23 323.52 230.09 328.53
  Q 229.92 334.07 231.26 336.78
  C 233.94 342.22 240.71 344.37 246.08 341.07
  C 249.77 338.80 251.39 334.64 251.02 330.48
  Q 250.81 328.21 250.85 325.94
  Q 251.15 306.85 251.08 287.52
  Q 251.07 286.14 252.45 286.07
  C 254.34 285.97 261.62 287.57 261.63 290.65
  Q 261.65 310.58 261.65 332.36
  Q 261.65 335.84 263.82 338.55
  Q 267.97 343.73 274.50 342.29
  C 279.68 341.14 282.42 336.71 282.34 331.40
  Q 282.21 322.19 282.40 313.07
  A 1.51 1.50 -0.0 0 1 283.88 311.60
  C 286.28 311.56 291.21 312.62 292.38 315.37
  Q 292.83 316.42 292.87 317.65
  Q 293.05 323.40 292.89 328.43
  C 292.63 336.56 295.36 342.63 304.23 342.59
  Q 309.27 342.58 314.29 342.62
  A 0.67 0.67 0.0 0 0 314.91 341.67
  Q 314.67 341.14 314.23 340.78
  Q 313.82 340.45 313.83 339.93
  Q 313.92 335.75 313.84 331.69
  C 313.68 323.09 317.21 315.64 324.85 311.47
  Q 334.41 306.26 344.52 311.30
  C 354.39 316.22 357.60 327.00 355.25 337.25
  Q 353.37 345.41 345.52 350.34
  C 342.15 352.45 338.10 353.22 334.18 353.19
  Q 319.09 353.10 304.56 353.19
  Q 294.65 353.25 288.16 346.70
  A 0.61 0.61 0.0 0 0 287.31 346.69
  C 284.60 349.33 281.08 351.61 277.42 352.46
  Q 265.47 355.24 256.68 346.73
  A 0.66 0.65 44.7 0 0 255.77 346.73
  Q 250.71 351.74 244.45 352.83
  Q 233.76 354.71 225.48 346.87
  A 0.82 0.81 44.7 0 0 224.35 346.87
  Q 216.24 354.56 205.45 352.81
  Q 199.16 351.79 194.31 346.92
  A 0.97 0.97 0.0 0 0 192.96 346.91
  C 190.39 349.39 187.42 351.28 183.95 352.26
  Q 172.57 355.47 163.44 347.48
  Q 163.14 347.22 162.93 346.88
  A 0.80 0.80 0.0 0 0 161.69 346.76
  C 153.43 355.12 140.18 355.37 131.71 347.07
  A 1.15 1.15 0.0 0 0 130.09 347.08
  Q 121.02 356.28 111.86 365.32
  Q 110.15 367.00 107.85 366.30
  Q 104.58 365.30 101.67 363.11
  A 1.73 1.73 0.0 0 1 101.49 360.51
  L 110.56 351.42
  Q 112.37 349.61 109.90 350.26
  Z
  M 323.17 338.93
  Q 320.03 340.94 316.77 340.87
  Q 316.13 340.85 316.07 341.49
  L 316.02 341.99
  Q 315.96 342.61 316.58 342.61
  Q 324.89 342.61 333.89 342.62
  Q 343.21 342.63 345.31 333.77
  Q 345.74 331.97 345.05 327.28
  Q 344.98 326.78 344.64 326.42
  Q 344.24 325.99 344.22 325.36
  A 1.73 1.70 26.6 0 0 343.90 324.43
  Q 340.48 319.66 334.97 319.60
  C 329.81 319.55 325.51 323.27 324.72 328.32
  Q 324.19 331.65 324.39 335.24
  Q 324.47 336.73 323.83 338.17
  Q 323.62 338.65 323.17 338.93
  Z
  M 120.29 323.44
  Q 115.37 320.50 110.47 323.12
  Q 104.33 326.41 104.64 333.22
  Q 104.78 336.27 106.68 338.49
  Q 110.05 342.41 114.79 346.24
  Q 115.41 346.74 115.96 346.16
  Q 119.23 342.73 122.38 339.61
  Q 125.80 336.22 125.41 331.42
  Q 125.00 326.26 120.29 323.44
  Z"
/>
<path fill="#000000" d="
  M 212.11 370.75
  A 0.58 0.52 -34.3 0 0 211.04 370.61
  Q 208.81 375.29 203.85 375.46
  C 199.26 375.62 196.04 371.55 196.51 367.16
  C 196.98 362.68 201.19 359.84 205.51 360.79
  Q 209.13 361.58 211.01 365.57
  A 0.45 0.45 0.0 0 0 211.83 365.56
  C 215.46 357.55 226.77 359.78 226.21 368.67
  Q 225.93 373.13 221.55 374.93
  C 217.28 376.69 214.82 374.62 212.28 371.61
  Q 212.08 371.37 212.10 371.06
  L 212.11 370.75
  Z"
/>
<path fill="#000000" d="
  M 273.92 364.38
  A 1.28 1.28 0.0 0 0 276.18 364.36
  C 278.53 359.89 284.57 359.39 287.89 362.87
  C 295.56 370.92 282.00 381.58 276.00 371.43
  A 0.98 0.98 0.0 0 0 274.30 371.45
  C 271.54 376.39 264.85 376.98 261.61 372.47
  C 255.43 363.85 268.96 355.31 273.92 364.38
  Z"
/>
</svg>
