<?xml version="1.0" encoding="UTF-8" standalone="no"?>
<!DOCTYPE svg PUBLIC "-//W3C//DTD SVG 1.1//EN" "http://www.w3.org/Graphics/SVG/1.1/DTD/svg11.dtd">
<svg xmlns="http://www.w3.org/2000/svg" version="1.1" viewBox="0.00 0.00 1080.00 1080.00">
<path fill="#ea1c31" d="
  M 604.39 207.05
  A 0.83 0.83 0.0 0 0 605.19 207.92
  C 608.54 208.04 611.55 207.95 614.85 208.96
  C 617.70 209.83 620.99 209.49 624.22 210.00
  Q 681.74 219.10 723.88 258.55
  Q 727.28 261.74 731.35 266.24
  Q 736.86 272.34 738.44 274.29
  Q 771.86 315.32 778.77 367.86
  C 779.18 370.99 779.00 374.01 779.53 376.97
  Q 780.54 382.64 780.55 389.00
  Q 780.63 434.49 780.51 479.01
  C 780.49 485.50 780.57 491.73 779.84 497.97
  C 779.21 503.42 779.15 508.84 778.32 514.31
  Q 772.39 553.11 750.83 586.39
  Q 747.78 591.10 741.00 600.17
  Q 732.54 611.50 721.49 621.48
  Q 706.34 635.15 691.27 644.33
  Q 665.05 660.32 633.63 666.15
  C 630.32 666.76 627.16 666.86 623.90 667.46
  C 618.97 668.37 614.08 667.76 609.17 668.67
  Q 603.97 669.62 599.00 669.62
  Q 545.45 669.58 495.89 669.67
  Q 490.62 669.68 486.41 668.84
  C 482.08 667.99 477.86 668.21 473.54 667.43
  Q 405.04 655.18 361.21 602.18
  Q 332.71 567.73 323.39 521.10
  Q 323.09 519.62 322.60 514.92
  C 322.31 512.06 321.48 509.44 321.37 506.66
  C 321.01 497.46 319.75 488.81 319.75 479.43
  Q 319.77 439.30 319.79 399.56
  C 319.79 390.10 321.24 380.60 321.29 371.20
  C 321.32 367.75 322.37 364.55 322.60 361.07
  Q 322.73 359.00 323.10 356.95
  Q 329.37 322.08 348.88 292.15
  C 373.59 254.23 411.29 225.64 455.20 214.28
  C 462.78 212.32 470.46 211.14 478.23 209.83
  C 480.59 209.43 482.81 209.66 485.17 208.95
  C 488.50 207.93 492.24 208.41 495.49 207.07
  A 0.77 0.77 0.0 0 0 495.73 205.81
  Q 483.40 193.66 471.17 181.35
  C 466.89 177.04 462.76 168.87 464.77 162.81
  C 468.16 152.55 478.04 146.21 488.52 150.86
  Q 492.84 152.78 496.13 156.08
  Q 520.46 180.52 545.50 205.53
  C 549.85 209.87 553.55 206.87 557.23 203.18
  Q 596.53 163.72 635.28 124.98
  C 639.17 121.10 642.55 118.07 647.73 116.73
  Q 650.10 116.13 653.13 116.27
  C 658.01 116.49 662.14 119.68 665.31 123.35
  C 671.92 130.99 669.23 141.25 662.72 147.76
  Q 634.01 176.50 605.02 205.61
  Q 604.43 206.20 604.39 207.05
  Z
  M 405.29 487.26
  C 405.45 512.97 415.25 536.45 432.92 554.60
  Q 454.88 577.16 486.20 582.75
  C 491.47 583.69 497.19 583.88 502.51 583.89
  Q 547.72 583.98 602.25 583.87
  Q 611.35 583.85 620.64 581.57
  C 655.91 572.93 685.08 544.42 692.64 508.43
  C 693.35 505.04 693.59 501.52 694.12 498.08
  Q 694.66 494.52 694.75 489.92
  Q 694.87 483.57 695.49 474.79
  Q 696.50 460.57 695.99 445.32
  Q 695.58 433.31 695.49 425.54
  C 695.37 414.38 695.58 403.48 695.18 392.27
  Q 694.85 383.11 694.29 378.70
  Q 690.98 352.77 675.35 331.64
  C 661.84 313.37 641.51 300.28 619.14 295.88
  Q 615.70 295.20 612.50 294.67
  C 605.98 293.59 599.50 294.36 592.90 293.42
  Q 588.19 292.74 583.69 292.72
  Q 552.18 292.60 519.99 292.72
  Q 513.03 292.75 506.68 293.55
  C 500.15 294.37 493.74 293.81 487.17 294.80
  Q 453.70 299.85 431.55 323.91
  Q 405.35 352.38 405.19 392.45
  Q 405.00 442.05 405.29 487.26
  Z"
/>
<path fill="#ea1c31" d="
  M 512.12 362.28
  L 622.92 426.36
  A 14.37 14.37 0.0 0 1 622.92 451.24
  L 512.12 515.32
  A 14.37 14.37 0.0 0 1 490.56 502.88
  L 490.56 374.72
  A 14.37 14.37 0.0 0 1 512.12 362.28
  Z"
/>
<path fill="#231f20" d="
  M 248.33 736.41
  Q 248.90 736.53 249.33 736.96
  Q 249.65 737.27 249.87 737.65
  Q 250.50 738.72 251.24 739.73
  Q 252.83 741.88 253.19 744.51
  Q 253.27 745.08 253.67 745.48
  Q 254.09 745.92 254.09 746.50
  Q 254.04 760.29 254.04 775.00
  C 254.05 779.98 253.20 786.27 253.15 791.84
  C 253.03 806.15 253.24 820.08 252.65 834.92
  Q 252.24 845.36 252.22 855.32
  Q 252.21 857.56 252.70 859.48
  C 253.50 862.69 252.36 866.12 253.64 869.08
  Q 254.39 870.82 254.04 872.83
  Q 253.87 873.82 254.35 874.69
  Q 255.41 876.61 255.03 878.93
  A 2.25 2.22 -56.6 0 0 255.33 880.45
  Q 256.37 882.12 256.00 884.19
  Q 255.85 885.04 256.39 885.72
  Q 256.94 886.43 256.97 887.33
  Q 257.00 888.41 257.65 889.56
  Q 260.56 894.66 266.38 896.79
  Q 267.22 897.10 268.13 897.13
  Q 268.90 897.16 269.54 897.68
  Q 270.03 898.09 270.67 898.02
  C 273.44 897.73 275.32 899.09 278.08 899.04
  Q 281.76 898.97 285.34 898.98
  C 287.43 898.99 288.64 897.69 290.87 898.04
  Q 291.51 898.14 292.01 897.74
  C 292.96 896.99 293.84 897.11 294.93 896.75
  C 298.77 895.48 301.73 893.84 305.01 891.71
  Q 307.85 889.85 309.91 887.83
  Q 313.68 884.14 317.24 880.43
  C 317.90 879.74 317.95 878.85 318.68 878.10
  Q 321.84 874.83 325.07 871.65
  C 326.25 870.47 327.73 870.04 329.02 869.04
  C 329.75 868.46 330.38 868.53 331.26 868.54
  Q 331.76 868.55 332.18 868.28
  Q 333.68 867.31 336.08 867.55
  C 337.77 867.72 338.36 868.88 340.31 868.54
  Q 341.07 868.41 341.57 869.01
  Q 342.16 869.72 343.09 869.55
  Q 343.95 869.40 344.48 870.09
  Q 344.86 870.58 345.48 870.57
  Q 346.06 870.56 346.58 870.82
  L 352.67 873.78
  Q 352.92 873.90 353.13 874.09
  Q 353.24 874.18 353.35 874.27
  Q 353.50 874.39 353.68 874.37
  Q 354.59 874.31 355.09 875.07
  A 0.76 0.75 -23.5 0 0 355.89 875.38
  Q 356.60 875.21 356.94 875.88
  A 0.91 0.91 0.0 0 0 357.64 876.37
  Q 357.76 876.38 357.89 876.38
  Q 357.99 876.38 358.09 876.43
  Q 376.64 886.53 396.59 896.05
  Q 396.78 896.14 396.98 896.06
  Q 397.12 896.01 397.24 896.07
  Q 403.68 899.20 411.37 902.04
  Q 411.95 902.26 412.42 902.64
  Q 412.97 903.09 413.70 902.89
  Q 414.29 902.73 414.66 903.21
  C 415.00 903.65 415.35 903.89 415.93 903.89
  Q 418.24 903.88 420.60 903.89
  Q 421.11 903.90 421.55 903.64
  Q 423.46 902.55 425.46 901.64
  Q 427.24 900.83 428.74 897.67
  Q 428.97 897.18 429.40 896.84
  Q 431.31 895.33 432.30 893.51
  C 433.56 891.20 435.89 889.73 437.40 887.61
  C 440.06 883.87 443.98 880.09 447.08 877.41
  Q 448.51 876.18 450.89 875.12
  Q 452.61 874.35 454.12 874.40
  Q 456.02 874.47 457.80 874.40
  Q 458.33 874.37 458.69 874.76
  Q 459.26 875.35 460.10 875.45
  Q 460.69 875.52 461.11 875.94
  L 469.88 884.64
  A 1.87 1.81 73.4 0 0 470.75 885.13
  C 471.95 885.42 472.51 886.45 473.58 887.03
  Q 475.25 887.94 477.00 888.32
  Q 477.37 888.40 477.66 888.62
  Q 477.80 888.72 477.91 888.86
  Q 478.19 889.23 478.66 889.18
  Q 479.83 889.06 480.72 889.79
  Q 481.31 890.26 482.05 890.18
  C 484.45 889.89 485.81 891.06 488.13 891.11
  Q 506.04 891.50 523.79 891.16
  A 1.25 1.25 0.0 0 1 524.85 893.10
  Q 523.77 894.71 523.93 896.61
  Q 523.98 897.25 523.61 897.77
  Q 522.79 898.89 522.96 900.39
  Q 523.04 901.01 522.67 901.53
  Q 521.83 902.73 522.04 904.28
  Q 522.12 904.88 521.80 905.39
  L 521.27 906.22
  A 1.49 1.48 -32.8 0 0 521.06 907.17
  Q 521.18 908.23 520.83 909.23
  Q 520.52 910.13 520.27 911.10
  Q 517.89 920.32 515.72 929.63
  Q 514.47 934.99 513.11 939.70
  Q 512.96 940.22 512.42 940.22
  Q 507.20 940.17 502.25 940.27
  C 500.01 940.32 498.03 941.13 495.83 941.16
  Q 490.97 941.22 486.28 941.21
  Q 481.49 941.20 476.75 940.68
  Q 469.11 939.85 462.05 938.51
  Q 458.51 937.83 451.02 935.31
  C 449.51 934.80 447.37 935.09 446.20 936.33
  Q 438.46 944.55 428.14 948.34
  Q 427.71 948.50 427.39 948.83
  Q 427.02 949.23 426.48 949.13
  Q 424.81 948.81 423.75 949.79
  A 1.01 1.01 0.0 0 1 422.99 950.06
  C 420.55 949.91 418.84 951.00 416.36 951.08
  Q 410.90 951.26 406.82 950.91
  Q 399.64 950.28 390.30 947.14
  Q 381.31 944.12 372.30 940.48
  Q 371.22 940.04 370.21 939.45
  Q 369.74 939.17 369.21 939.27
  Q 368.46 939.42 368.01 938.80
  Q 367.61 938.26 366.95 938.29
  Q 366.20 938.33 365.73 937.75
  Q 365.36 937.29 364.77 937.30
  L 363.99 937.32
  Q 363.37 937.33 363.04 936.81
  Q 362.67 936.21 361.98 936.34
  Q 361.43 936.46 361.09 936.01
  Q 360.35 935.06 359.22 935.37
  A 0.78 0.77 68.3 0 1 358.35 934.99
  Q 357.89 934.16 356.97 934.36
  Q 356.42 934.48 356.13 934.00
  Q 355.58 933.06 354.53 933.34
  Q 353.97 933.49 353.66 933.00
  Q 353.16 932.20 352.17 932.35
  Q 351.46 932.46 351.06 931.88
  Q 350.59 931.19 349.76 931.37
  Q 349.11 931.51 348.69 931.00
  L 348.50 930.76
  Q 348.10 930.28 347.48 930.39
  Q 346.63 930.56 346.20 929.84
  Q 345.95 929.41 345.45 929.43
  L 345.01 929.44
  Q 344.49 929.45 344.13 929.09
  Q 343.39 928.32 342.36 928.42
  Q 341.85 928.46 341.48 928.10
  C 339.46 926.12 336.38 928.80 335.33 930.55
  C 334.05 932.70 331.56 935.27 329.46 936.62
  Q 327.46 937.91 325.83 939.71
  Q 325.53 940.04 325.10 940.14
  C 323.80 940.44 323.24 941.55 322.06 942.15
  Q 319.73 943.34 317.37 944.89
  Q 316.96 945.17 316.47 945.15
  Q 315.66 945.11 315.25 945.80
  A 0.79 0.78 22.7 0 1 314.39 946.15
  Q 313.37 945.90 312.81 946.77
  A 0.91 0.91 0.0 0 1 311.81 947.16
  Q 310.90 946.93 310.32 947.65
  Q 309.80 948.29 309.00 948.12
  Q 307.81 947.87 307.16 948.75
  A 0.99 0.98 -65.8 0 1 306.20 949.12
  Q 304.33 948.78 302.93 949.72
  Q 302.26 950.17 301.46 950.10
  Q 298.82 949.85 296.39 950.99
  A 2.00 1.97 39.3 0 1 295.08 951.11
  Q 293.97 950.84 293.25 951.58
  Q 292.92 951.91 292.46 951.96
  C 291.01 952.09 289.96 952.70 288.41 952.67
  Q 282.84 952.58 278.10 952.72
  Q 273.45 952.86 267.93 951.72
  Q 258.36 949.75 249.23 947.02
  Q 248.50 946.80 247.89 946.40
  Q 247.28 946.00 246.53 946.15
  Q 245.95 946.26 245.55 945.82
  Q 244.95 945.17 244.07 945.18
  Q 243.45 945.19 243.02 944.74
  Q 242.36 944.07 241.38 944.15
  Q 240.99 944.19 240.67 943.94
  Q 240.57 943.85 240.49 943.74
  Q 240.41 943.62 240.28 943.57
  Q 229.52 938.84 221.31 930.62
  Q 218.74 928.04 216.42 924.71
  Q 213.13 920.01 212.28 918.08
  Q 210.68 914.46 209.04 911.20
  Q 208.82 910.76 208.86 910.27
  Q 208.95 909.17 208.13 908.42
  A 0.93 0.93 0.0 0 1 207.86 907.55
  Q 208.09 906.38 207.37 905.51
  Q 206.91 904.96 206.91 904.24
  L 206.91 902.32
  Q 206.91 901.79 206.50 901.46
  Q 205.78 900.88 205.89 900.00
  Q 206.18 897.61 205.56 895.47
  Q 204.97 893.48 204.95 891.33
  Q 204.58 836.35 204.78 818.64
  Q 205.03 797.30 204.71 778.50
  Q 204.69 777.44 204.31 776.39
  C 203.64 774.58 204.12 772.57 203.68 770.68
  Q 203.17 768.49 203.15 766.86
  Q 202.95 751.93 203.12 736.76
  Q 203.12 736.20 203.68 736.20
  Q 225.02 736.17 246.48 736.22
  Q 247.40 736.23 248.33 736.41
  Z"
/>
<path fill="#231f20" d="
  M 874.80 891.56
  Q 879.99 890.79 885.58 891.21
  Q 886.79 891.31 886.50 892.49
  L 875.09 938.72
  Q 874.91 939.42 874.20 939.31
  Q 873.04 939.14 872.16 939.82
  A 1.74 1.72 -63.8 0 1 871.15 940.17
  Q 866.76 940.21 862.32 940.28
  C 860.59 940.31 859.18 941.15 857.52 941.16
  Q 846.41 941.25 834.58 941.19
  Q 832.06 941.18 829.49 940.56
  C 827.26 940.01 824.71 940.26 822.35 940.06
  Q 807.23 938.75 794.27 935.68
  Q 792.17 935.19 789.99 935.31
  A 1.23 1.23 0.0 0 0 789.17 935.67
  C 787.20 937.61 784.90 940.50 782.45 941.78
  C 781.15 942.47 780.43 943.52 779.08 944.21
  Q 775.35 946.12 771.70 947.92
  Q 771.23 948.15 770.71 948.16
  Q 769.92 948.18 769.47 948.81
  Q 769.15 949.26 768.62 949.13
  Q 767.19 948.79 766.29 949.75
  Q 765.95 950.11 765.46 950.06
  Q 763.60 949.88 761.97 950.48
  Q 760.51 951.01 758.81 951.00
  Q 754.30 950.98 749.54 951.05
  Q 747.66 951.07 746.19 950.52
  C 744.66 949.95 742.88 950.19 741.24 949.76
  Q 731.93 947.35 723.09 943.91
  Q 722.58 943.72 722.16 943.40
  Q 721.73 943.08 721.17 943.18
  Q 720.60 943.28 720.25 942.83
  Q 719.59 942.01 718.50 942.20
  A 0.89 0.89 0.0 0 1 717.63 941.84
  Q 717.09 941.08 716.12 941.20
  Q 715.59 941.27 715.29 940.82
  Q 714.82 940.12 713.97 940.23
  Q 713.47 940.29 713.04 940.03
  Q 712.86 939.91 712.73 939.74
  A 1.04 1.04 0.0 0 0 711.72 939.31
  Q 710.88 939.43 710.44 938.77
  Q 710.07 938.21 709.42 938.32
  Q 708.62 938.46 708.19 937.82
  Q 707.79 937.22 707.09 937.35
  Q 706.13 937.52 705.60 936.74
  Q 705.30 936.30 704.77 936.36
  Q 703.91 936.45 703.46 935.79
  Q 703.13 935.30 702.55 935.33
  L 701.99 935.36
  Q 701.41 935.39 701.04 934.94
  Q 700.55 934.33 699.78 934.38
  Q 699.16 934.43 698.79 933.93
  Q 698.27 933.23 697.37 933.41
  Q 696.86 933.51 696.59 933.07
  L 696.39 932.72
  Q 696.10 932.25 695.57 932.37
  Q 694.53 932.61 693.91 931.84
  Q 693.54 931.38 692.95 931.44
  Q 692.13 931.52 691.64 930.86
  A 1.08 1.08 0.0 0 0 690.84 930.43
  L 690.01 930.39
  Q 689.46 930.37 689.14 929.92
  Q 688.76 929.37 688.09 929.51
  Q 687.45 929.65 687.10 929.10
  Q 686.58 928.29 685.58 928.45
  Q 685.00 928.55 684.54 928.18
  Q 683.41 927.26 681.47 927.23
  Q 680.78 927.23 680.31 927.72
  Q 675.11 933.14 670.36 937.52
  Q 667.21 940.42 661.27 942.96
  Q 660.75 943.18 660.20 943.28
  Q 659.71 943.36 659.46 943.78
  A 0.83 0.81 -69.7 0 1 658.61 944.18
  Q 657.72 944.03 657.19 944.76
  A 1.01 1.00 19.8 0 1 656.28 945.18
  C 655.16 945.08 654.52 945.78 653.51 946.12
  C 647.21 948.26 640.77 950.74 634.25 952.10
  C 629.18 953.15 623.37 952.66 618.10 952.69
  Q 612.84 952.73 607.27 951.38
  Q 596.91 948.87 587.88 945.75
  Q 585.15 944.81 582.61 943.57
  Q 579.49 942.05 576.19 940.40
  A 1.83 0.28 36.4 0 1 576.02 940.31
  Q 554.05 927.32 548.73 901.59
  C 547.57 895.96 546.62 889.97 546.61 884.17
  Q 546.55 860.06 546.23 838.50
  Q 546.03 824.96 545.81 811.75
  Q 545.28 781.44 545.71 745.28
  Q 545.72 744.61 546.18 744.13
  Q 546.51 743.79 546.49 743.30
  C 546.42 740.96 548.13 740.42 548.82 738.52
  A 1.45 1.44 -7.1 0 1 549.36 737.83
  C 550.37 737.13 551.52 736.17 552.82 736.18
  Q 569.45 736.23 587.35 736.17
  Q 589.17 736.17 590.78 737.38
  Q 593.44 739.36 594.90 742.30
  Q 595.78 744.07 595.72 746.08
  C 595.66 747.86 596.39 749.38 596.38 751.32
  Q 596.32 765.35 595.96 785.25
  Q 595.94 786.27 595.92 787.25
  Q 595.53 812.86 595.66 836.50
  Q 595.70 844.35 595.09 851.94
  C 594.61 857.90 594.65 863.50 594.61 869.27
  Q 594.60 871.06 595.24 872.59
  Q 595.96 874.33 595.58 876.28
  Q 595.48 876.82 595.86 877.21
  Q 596.94 878.33 596.59 880.02
  Q 596.44 880.78 597.06 881.24
  Q 597.96 881.90 597.56 883.10
  A 0.86 0.85 25.6 0 0 597.91 884.09
  L 598.22 884.27
  Q 598.76 884.61 598.60 885.23
  Q 598.43 885.92 599.06 886.20
  Q 599.56 886.43 599.56 886.98
  L 599.55 887.48
  Q 599.54 888.09 600.12 888.26
  Q 600.56 888.40 600.55 888.87
  Q 600.53 889.48 600.92 889.95
  Q 605.15 895.07 609.85 897.76
  Q 610.33 898.03 610.88 897.99
  Q 611.88 897.91 612.54 898.53
  Q 613.05 899.01 613.75 899.00
  C 615.06 898.97 616.31 898.90 617.59 899.30
  Q 620.01 900.06 622.46 899.54
  Q 625.52 898.90 628.63 899.01
  Q 629.34 899.03 629.95 898.68
  Q 631.40 897.86 633.04 898.03
  A 1.93 1.91 -60.6 0 0 634.41 897.64
  Q 635.42 896.86 636.73 897.02
  A 0.97 0.96 -67.0 0 0 637.61 896.66
  Q 637.98 896.21 638.56 896.14
  Q 639.27 896.06 639.95 895.78
  Q 649.79 891.75 656.73 883.40
  C 657.53 882.44 657.73 881.14 658.82 880.54
  A 1.38 1.35 83.2 0 0 659.47 879.70
  Q 659.71 878.76 660.32 878.05
  Q 660.90 877.38 661.41 876.56
  Q 666.02 869.28 670.21 861.76
  Q 671.02 860.29 671.94 858.92
  Q 672.57 857.98 673.01 856.97
  Q 673.44 855.96 674.05 855.02
  Q 675.74 852.40 677.05 849.98
  Q 686.03 833.44 695.71 817.62
  Q 696.45 816.42 697.35 815.42
  C 698.26 814.42 698.48 813.25 699.45 812.31
  C 702.98 808.86 706.25 804.99 710.43 802.20
  Q 715.66 798.73 721.81 796.16
  Q 722.50 795.87 723.26 795.85
  Q 723.94 795.83 724.32 795.24
  Q 724.66 794.71 725.27 794.87
  Q 726.60 795.21 727.48 794.28
  A 1.34 1.33 -63.0 0 1 728.69 793.88
  Q 730.34 794.19 731.58 793.25
  Q 731.94 792.98 732.38 792.96
  Q 739.46 792.67 747.83 792.93
  C 749.89 792.99 751.30 794.10 753.47 793.92
  Q 753.99 793.88 754.37 794.22
  Q 755.34 795.09 756.72 794.88
  Q 757.28 794.80 757.69 795.18
  Q 758.61 796.02 759.83 795.87
  Q 760.33 795.81 760.62 796.22
  Q 761.11 796.90 761.94 796.89
  Q 762.49 796.88 762.99 797.11
  Q 769.05 799.96 772.20 801.76
  Q 781.72 807.20 789.31 815.30
  C 790.61 816.68 791.36 818.16 792.58 819.54
  C 794.28 821.46 795.45 823.56 796.82 825.69
  Q 799.50 829.87 800.78 834.38
  Q 800.91 834.84 801.28 835.15
  Q 801.97 835.70 801.81 836.63
  Q 801.70 837.23 802.14 837.67
  Q 802.87 838.39 802.78 839.53
  Q 802.74 839.98 803.07 840.30
  Q 804.01 841.20 803.64 842.56
  A 1.13 1.12 28.4 0 0 803.98 843.68
  L 804.39 844.03
  A 1.10 1.10 0.0 0 1 804.73 845.09
  Q 804.38 846.61 805.25 847.68
  A 2.15 2.15 0.0 0 1 805.69 849.42
  Q 805.39 851.11 806.37 852.41
  Q 806.83 853.02 806.71 853.77
  Q 806.26 856.45 807.46 858.64
  Q 807.78 859.22 807.71 859.89
  Q 807.35 863.18 807.99 866.17
  Q 808.94 870.59 808.61 874.80
  Q 808.53 875.75 809.30 876.39
  Q 809.73 876.74 809.69 877.30
  L 809.59 878.52
  Q 809.55 879.09 810.07 879.33
  Q 810.67 879.61 810.58 880.30
  Q 810.50 880.89 811.00 881.23
  Q 811.59 881.63 811.63 882.37
  Q 811.67 882.95 812.07 883.36
  Q 814.95 886.33 818.89 887.93
  Q 819.53 888.19 820.25 888.22
  Q 821.04 888.26 821.54 888.89
  Q 821.86 889.29 822.36 889.19
  Q 823.88 888.91 824.92 889.81
  Q 825.51 890.32 826.28 890.18
  Q 828.16 889.83 829.51 890.91
  A 1.27 1.26 -29.5 0 0 830.49 891.18
  Q 832.67 890.84 834.54 891.67
  C 837.04 892.79 839.95 891.76 842.85 892.66
  Q 844.43 893.15 846.16 893.14
  Q 851.49 893.11 856.87 893.13
  C 859.16 893.14 861.36 892.06 863.35 892.15
  Q 869.17 892.39 874.80 891.56
  Z
  M 714.49 873.62
  Q 712.69 876.56 711.34 879.76
  A 1.18 1.18 0.0 0 1 710.81 880.35
  L 710.52 880.52
  Q 709.94 880.84 710.52 881.17
  Q 722.59 888.07 729.70 891.81
  Q 736.25 895.26 743.17 898.09
  Q 743.73 898.32 744.19 898.70
  Q 744.69 899.12 745.31 899.02
  A 1.41 1.38 -34.8 0 1 746.21 899.17
  Q 748.70 900.55 751.13 901.03
  Q 751.56 901.12 751.89 901.43
  Q 752.62 902.15 753.70 901.91
  Q 754.24 901.79 754.64 902.16
  Q 755.82 903.20 757.52 902.87
  Q 758.08 902.76 758.41 903.22
  C 758.77 903.73 759.14 903.88 759.75 903.89
  Q 761.50 903.91 763.20 903.86
  Q 763.75 903.85 764.14 903.47
  Q 764.56 903.07 765.14 902.93
  A 4.32 3.96 -5.5 0 0 768.42 899.28
  Q 768.43 899.22 768.48 899.20
  Q 769.58 898.79 769.39 897.69
  Q 769.17 896.42 770.01 895.52
  Q 770.46 895.04 770.40 894.38
  Q 770.12 890.94 771.02 887.85
  Q 771.75 885.34 770.78 882.57
  C 770.22 880.96 770.32 879.25 770.40 877.58
  Q 770.43 876.95 770.04 876.45
  Q 769.01 875.13 769.43 873.42
  A 0.76 0.76 0.0 0 0 769.02 872.55
  Q 768.18 872.15 768.35 871.16
  Q 768.43 870.64 768.21 870.15
  Q 765.90 864.99 763.19 860.58
  A 9.12 8.58 54.5 0 0 762.44 859.53
  Q 758.88 855.17 754.69 851.51
  Q 750.34 847.70 742.24 844.30
  Q 741.52 844.00 740.73 843.86
  Q 739.87 843.72 739.06 843.43
  Q 735.37 842.10 732.25 844.44
  Q 729.69 846.37 727.92 849.53
  Q 727.08 851.02 726.21 852.49
  Q 724.12 855.98 722.22 859.57
  Q 721.08 861.73 719.81 863.86
  Q 718.52 865.99 717.44 868.24
  Q 716.12 870.97 714.49 873.62
  Z"
/>
<path fill="#231f20" d="
  M 827.65 801.67
  Q 827.56 801.58 827.47 801.49
  A 1.03 1.03 0.0 0 1 827.23 800.47
  Q 827.56 799.39 826.72 798.68
  Q 826.15 798.21 826.29 797.48
  Q 826.67 795.54 825.72 794.13
  A 2.36 2.32 28.7 0 1 825.33 792.84
  L 825.33 785.27
  Q 825.33 784.77 825.66 784.39
  Q 826.72 783.14 826.21 781.38
  Q 826.01 780.71 826.59 780.31
  Q 827.57 779.64 827.19 778.41
  A 0.85 0.85 0.0 0 1 827.40 777.56
  L 827.69 777.27
  Q 827.94 777.03 828.07 776.70
  Q 830.09 771.55 832.29 768.79
  Q 834.38 766.18 837.94 762.91
  Q 840.98 760.12 844.29 758.32
  Q 851.74 754.26 860.62 754.20
  C 863.11 754.18 865.51 754.83 868.03 754.66
  Q 868.48 754.63 868.84 754.90
  L 869.44 755.35
  Q 870.04 755.80 870.77 755.63
  Q 871.51 755.46 872.06 755.90
  Q 872.54 756.28 873.10 756.50
  Q 877.77 758.27 880.53 760.52
  Q 882.04 761.75 883.63 762.93
  C 885.67 764.45 886.61 766.59 888.48 768.26
  Q 888.89 768.62 889.03 769.16
  Q 889.24 770.00 889.85 770.66
  Q 890.42 771.27 890.85 772.09
  Q 892.84 775.91 894.91 780.22
  Q 896.08 782.65 896.00 785.07
  Q 895.87 789.28 896.02 793.33
  Q 896.10 795.28 895.11 797.29
  Q 893.44 800.67 891.90 804.38
  Q 889.76 809.56 885.60 814.42
  Q 881.25 819.50 874.42 822.27
  C 866.13 825.63 854.52 825.65 846.31 822.00
  Q 833.54 816.34 828.13 802.44
  Q 827.97 802.01 827.65 801.67
  Z"
/>
<path fill="#231f20" d="
  M 338.44 775.40
  L 338.44 775.05
  Q 338.43 774.53 338.86 774.23
  Q 340.72 772.93 341.65 770.96
  A 1.61 1.57 -6.8 0 1 342.16 770.33
  Q 344.08 768.83 345.86 767.36
  Q 347.83 765.73 351.40 764.43
  Q 351.88 764.25 352.23 763.88
  Q 352.89 763.20 353.77 763.52
  Q 354.29 763.70 354.73 763.38
  Q 354.93 763.24 355.05 763.04
  Q 355.39 762.49 356.02 762.50
  L 367.94 762.51
  Q 368.39 762.52 368.63 762.90
  Q 369.14 763.74 370.15 763.51
  Q 370.71 763.39 371.21 763.66
  Q 372.72 764.49 374.27 765.15
  Q 375.93 765.84 377.28 766.87
  Q 380.30 769.18 383.91 773.10
  Q 384.45 773.68 384.67 774.43
  C 384.99 775.50 385.92 776.05 386.36 777.15
  Q 386.92 778.58 387.53 779.97
  Q 388.21 781.54 388.59 783.15
  Q 391.19 794.33 385.35 804.85
  C 384.39 806.57 382.86 808.05 381.53 809.53
  Q 375.95 815.77 367.57 817.68
  Q 360.45 819.29 353.26 816.83
  Q 340.61 812.50 335.64 798.98
  Q 335.46 798.47 335.51 797.93
  Q 335.60 797.06 334.96 796.52
  Q 334.54 796.16 334.53 795.61
  L 334.45 785.20
  Q 334.45 784.63 334.79 784.17
  Q 335.72 782.93 335.52 781.38
  Q 335.42 780.69 335.99 780.29
  Q 336.66 779.82 336.48 779.00
  Q 336.37 778.50 336.86 778.32
  Q 337.52 778.06 337.38 777.33
  Q 337.28 776.85 337.66 776.53
  L 338.08 776.19
  Q 338.45 775.88 338.44 775.40
  Z"
/>
<path fill="#231f20" d="
  M 447.94 777.13
  Q 449.23 779.63 449.89 781.80
  Q 450.58 784.10 450.77 786.78
  Q 452.15 806.90 434.19 816.31
  A 1.83 1.81 33.2 0 1 433.21 816.51
  Q 432.31 816.46 431.70 817.09
  Q 431.33 817.48 430.80 817.45
  Q 429.22 817.36 427.76 817.82
  C 425.62 818.49 422.30 819.01 420.30 817.91
  C 419.02 817.20 417.58 817.91 416.49 817.40
  Q 416.22 817.27 416.02 817.04
  Q 415.67 816.62 415.13 816.57
  Q 413.92 816.47 412.38 815.72
  Q 403.22 811.27 398.96 802.87
  Q 392.93 790.97 398.41 778.28
  Q 398.83 777.32 399.53 776.53
  C 400.23 775.74 400.17 775.01 400.87 774.23
  Q 406.08 768.40 407.95 767.19
  Q 417.78 760.83 429.53 762.72
  Q 430.01 762.80 430.38 763.13
  Q 430.65 763.37 431.00 763.47
  Q 431.25 763.55 431.50 763.48
  C 432.73 763.16 433.32 764.01 434.32 764.40
  Q 438.45 766.00 440.30 767.73
  Q 442.88 770.15 445.51 773.14
  Q 446.41 774.15 447.94 777.13
  Z"
/>
<ellipse fill="#231f20" cx="0.00" cy="0.00" transform="translate(485.51,790.19) rotate(91.7)" rx="28.03" ry="27.52"/>
</svg>
