<?xml version="1.0" encoding="UTF-8" standalone="no"?>
<svg xmlns="http://www.w3.org/2000/svg" version="1.1" viewBox="0.00 0.00 1773.00 1773.00">
  <g stroke-width="2.00" fill="none" stroke-linecap="butt">
    <path stroke="#80a1cf" vector-effect="non-scaling-stroke" d="   M 453.57 545.39   Q 454.36 544.10 455.16 541.98   Q 455.59 540.83 458.90 535.42   C 459.20 534.94 459.11 534.48 459.33 534.07   Q 463.70 526.12 473.04 510.40   Q 475.85 505.69 477.88 503.17   Q 478.12 502.87 478.37 501.97   Q 478.51 501.48 478.82 501.08   Q 480.70 498.65 481.69 497.08   Q 484.25 493.02 484.28 492.98   Q 527.18 429.36 587.29 380.79   Q 629.54 346.64 677.89 320.90   Q 685.72 316.73 692.08 313.75   Q 694.70 312.52 697.04 311.26   Q 700.63 309.32 702.00 308.75   Q 706.59 306.87 712.26 304.02   Q 712.48 303.91 712.73 303.90   C 713.24 303.88 713.41 303.91 713.93 303.64   Q 716.26 302.44 723.82 299.28   Q 731.41 296.11 739.10 293.09   Q 743.20 291.47 749.59 289.31   Q 754.56 287.62 760.08 285.50   Q 760.62 285.29 762.21 284.77   Q 796.91 273.40 832.05 267.08   Q 923.87 250.56 1014.12 269.42   Q 1082.50 283.70 1142.21 313.14   C 1217.21 350.12 1280.24 405.14 1329.40 472.89   Q 1335.59 481.41 1340.73 489.29   Q 1361.69 521.44 1380.11 559.53   Q 1383.71 566.97 1384.67 569.11   Q 1402.19 608.42 1411.79 649.44   Q 1421.61 691.44 1427.30 736.62   Q 1428.98 749.94 1429.27 756.60   Q 1430.05 774.47 1428.39 795.79   Q 1424.20 849.62 1413.28 892.55   Q 1413.08 893.33 1413.22 893.91   A 0.60 0.60 0.0 0 0 1414.29 894.12   C 1418.49 888.23 1421.62 880.69 1423.98 873.21   C 1436.76 832.75 1444.70 791.27 1446.72 749.54   C 1448.78 706.96 1445.74 663.93 1436.81 622.28   Q 1429.40 587.71 1416.62 552.15   Q 1383.91 461.12 1326.11 384.17   C 1295.32 343.18 1261.78 305.04 1222.70 272.92   C 1143.48 207.82 1043.96 171.03 941.79 164.44   C 911.99 162.52 882.49 162.90 853.58 166.94   C 800.01 174.45 749.64 182.69 700.54 202.02   C 568.65 253.96 458.27 349.95 391.69 475.47   C 343.65 566.02 322.24 666.65 328.70 769.70   Q 330.47 797.88 336.82 825.32   Q 339.66 837.56 341.74 842.44   Q 343.34 846.21 347.29 844.79   Q 363.88 838.82 379.49 829.73   C 389.35 823.99 399.42 816.33 401.41 804.49   Q 401.87 801.75 401.63 795.50   Q 400.91 776.62 400.64 763.03   Q 399.59 710.15 411.67 658.18   Q 425.12 600.37 452.32 547.44   Q 452.34 547.42 453.57 545.39"></path>
    <path stroke="#80a1cf" vector-effect="non-scaling-stroke" d="   M 730.94 508.45   C 732.27 509.92 733.94 513.49 734.20 515.11   Q 736.04 526.42 738.06 537.69   C 738.62 540.79 738.66 542.95 742.05 543.11   Q 743.75 543.18 744.74 541.78   C 776.65 496.51 826.58 466.82 881.53 461.71   Q 946.98 455.63 1003.03 492.05   Q 1004.64 493.10 1005.86 492.41   A 2.09 2.08 71.2 0 0 1006.89 490.30   Q 1004.98 477.29 1003.90 466.42   Q 1003.17 459.02 1008.65 453.64   Q 1018.47 444.01 1026.21 437.22   Q 1030.69 433.29 1033.23 431.73   Q 1036.08 429.97 1037.28 432.80   Q 1043.15 446.70 1042.26 461.42   C 1041.99 465.84 1040.32 473.49 1040.36 478.81   C 1040.40 483.17 1042.17 486.97 1046.79 488.08   C 1053.64 489.74 1060.03 487.47 1062.16 480.47   Q 1062.86 478.16 1062.87 478.03   Q 1062.91 475.85 1062.64 475.44   Q 1047.94 453.18 1047.15 426.61   C 1047.05 423.33 1047.63 419.71 1050.17 417.91   Q 1062.02 409.52 1080.14 396.90   C 1082.59 395.20 1081.52 392.70 1079.16 391.49   Q 1073.37 388.50 1069.32 387.17   Q 956.05 350.15 846.57 313.09   C 843.30 311.98 840.69 310.65 837.16 311.38   Q 834.60 311.91 830.44 315.13   Q 762.10 368.11 635.53 466.76   C 634.33 467.71 633.78 469.64 635.50 470.39   Q 636.58 470.86 636.80 470.94   Q 678.22 486.54 724.65 504.10   Q 728.20 505.44 730.94 508.45"></path>
    <path stroke="#80a1cf" vector-effect="non-scaling-stroke" d="   M 957.68 793.30   C 959.77 792.41 961.67 790.44 963.50 789.12   Q 966.29 787.12 967.74 785.78   Q 977.09 777.18 981.36 771.92   Q 983.44 769.36 989.69 760.24   C 990.88 758.52 991.86 755.77 992.69 754.44   A 1.12 0.99 -77.8 0 0 991.73 752.74   C 990.42 753.04 988.60 753.82 987.27 754.82   Q 982.44 758.49 978.61 761.63   Q 972.72 766.47 969.92 768.39   C 935.84 791.82 888.95 795.93 851.11 779.53   C 827.60 769.35 805.10 754.01 788.67 734.39   C 759.92 700.10 751.93 658.87 762.84 615.18   Q 769.96 586.70 786.23 562.24   Q 802.71 537.49 826.37 521.38   Q 843.90 509.45 862.92 503.45   Q 895.83 493.07 930.07 499.44   C 950.25 503.19 969.79 510.80 989.54 518.82   C 991.74 519.71 993.78 519.77 995.29 517.93   Q 995.61 517.54 995.55 517.05   Q 995.31 515.14 993.82 513.74   C 976.92 497.81 955.44 488.16 932.56 482.81   Q 889.37 472.71 847.63 484.52   C 790.31 500.74 746.40 549.02 733.39 607.11   Q 720.06 666.58 745.99 721.32   Q 763.73 758.76 798.11 782.63   Q 800.79 784.49 813.97 792.07   C 816.60 793.58 819.12 794.27 821.73 795.63   Q 823.86 796.74 827.49 798.05   Q 829.90 798.92 839.47 802.59   C 840.51 802.99 841.44 802.73 842.30 802.99   Q 851.50 805.85 859.87 807.19   Q 876.50 809.85 883.30 810.53   Q 919.15 814.12 951.04 797.48   Q 953.77 796.06 956.22 794.20   Q 957.04 793.58 957.68 793.30"></path>
    <path stroke="#80a1cf" vector-effect="non-scaling-stroke" d="   M 1047.78 493.93   A 4.53 4.53 0.0 0 0 1044.06 498.90   L 1049.16 544.35   A 4.53 4.53 0.0 0 0 1055.93 547.77   L 1070.79 539.18   A 4.53 4.53 0.0 0 0 1072.99 534.48   L 1066.15 495.32   A 4.53 4.53 0.0 0 0 1060.91 491.64   L 1047.78 493.93"></path>
    <path stroke="#80a1cf" vector-effect="non-scaling-stroke" d="   M 1069.96 712.91   Q 1069.97 712.92 1069.98 712.94   Q 1070.02 712.99 1070.03 712.94   Q 1078.73 683.77 1078.63 653.49   C 1078.57 634.39 1074.92 615.91 1067.84 598.16   C 1062.38 584.48 1054.63 571.16 1044.18 561.14   A 1.11 1.11 0.0 0 0 1042.32 561.73   C 1041.46 566.08 1042.36 570.03 1044.07 574.66   C 1051.50 594.70 1057.88 612.75 1059.81 632.55   Q 1060.65 641.10 1059.51 652.49   Q 1056.30 684.57 1044.56 715.00   Q 1040.73 724.94 1036.25 733.18   Q 1018.92 765.07 991.83 786.80   Q 987.80 790.03 987.71 790.12   Q 987.22 790.58 985.77 791.25   C 984.20 791.96 982.72 793.61 981.18 794.50   Q 971.12 800.31 959.63 805.90   C 959.21 806.11 958.60 806.11 958.09 806.35   C 944.15 813.10 929.76 815.78 913.81 817.08   Q 884.96 819.42 856.96 813.08   C 853.29 812.25 848.03 810.08 843.51 809.50   C 840.77 809.15 836.95 806.79 833.62 805.88   Q 826.94 804.04 821.28 800.72   A 0.30 0.30 0.0 0 0 821.13 800.68   L 819.95 800.63   Q 819.49 800.61 819.10 800.38   Q 814.85 797.94 812.11 796.74   Q 808.27 795.05 804.83 793.26   Q 793.59 787.40 777.99 779.88   Q 777.44 779.62 777.06 779.66   Q 776.16 779.75 775.91 780.80   A 1.21 1.19 -61.9 0 0 776.24 781.91   Q 787.07 792.41 799.50 800.79   Q 816.86 812.49 836.19 820.81   Q 861.62 831.76 887.26 835.01   Q 922.03 839.43 954.52 828.81   Q 962.83 826.10 973.00 821.25   Q 990.55 812.87 1006.01 801.52   Q 1025.97 786.87 1040.76 768.86   Q 1046.70 761.62 1051.66 753.72   Q 1057.40 744.59 1060.89 737.49   Q 1061.06 737.14 1061.77 735.49   Q 1067.09 723.04 1069.92 712.92   Q 1069.94 712.87 1069.96 712.91"></path>
    <path stroke="#80a1cf" vector-effect="non-scaling-stroke" d="   M 944.29 616.31   C 962.15 627.16 982.04 633.60 1002.88 628.51   A 1.95 1.95 0.0 0 0 1004.01 625.49   Q 1001.46 621.87 997.28 619.95   Q 995.99 619.36 976.45 611.86   Q 964.54 607.29 953.76 600.74   Q 942.97 594.18 933.43 585.72   Q 917.78 571.83 916.66 570.95   Q 913.03 568.13 908.64 567.53   A 1.95 1.95 0.0 0 0 906.49 569.93   C 911.56 590.77 926.44 605.46 944.29 616.31"></path>
    <path stroke="#80a1cf" vector-effect="non-scaling-stroke" d="   M 1027.27 689.05   C 1004.50 685.52 982.07 679.67 961.17 669.61   Q 913.38 646.62 871.16 610.26   Q 856.92 597.99 848.39 590.09   C 845.62 587.52 843.45 585.98 840.36 584.59   A 2.29 2.18 29.7 0 0 837.62 585.27   Q 837.45 585.50 837.63 586.25   Q 837.76 586.79 837.96 587.14   Q 883.77 665.58 970.91 688.83   Q 991.19 694.25 1013.15 696.14   C 1017.03 696.47 1030.58 697.22 1032.51 694.51   Q 1034.04 692.37 1032.85 690.81   C 1031.70 689.32 1029.31 689.37 1027.27 689.05"></path>
    <path stroke="#80a1cf" vector-effect="non-scaling-stroke" d="   M 978.41 731.93   Q 992.39 734.00 1005.83 733.42   Q 1007.40 733.36 1008.79 732.24   A 1.80 1.80 0.0 0 0 1009.11 729.78   C 1007.88 728.09 1006.48 727.15 1004.35 726.59   C 978.98 719.94 951.84 712.01 927.90 701.50   C 914.62 695.67 903.96 689.42 891.55 681.59   Q 851.12 656.08 817.92 622.30   C 815.23 619.57 810.84 615.36 807.27 613.71   A 1.52 1.52 0.0 0 0 805.18 615.53   Q 810.36 632.61 820.66 648.01   C 842.46 680.59 877.17 703.33 913.45 716.05   Q 944.48 726.93 978.41 731.93"></path>
    <path stroke="#80a1cf" vector-effect="non-scaling-stroke" d="   M 623.33 1157.74   Q 623.38 1157.92 623.37 1158.13   Q 623.38 1158.12 623.38 1158.13   Q 623.44 1158.05 623.23 1157.86   Q 623.12 1157.76 623.19 1157.64   L 628.15 1149.34   Q 628.35 1149.01 628.48 1148.65   Q 628.54 1148.47 628.61 1148.35   Q 649.54 1114.29 680.48 1087.73   Q 700.22 1070.79 723.98 1054.72   C 726.50 1053.02 733.11 1051.33 733.23 1056.29   Q 741.82 1411.73 743.90 1493.25   C 744.15 1503.28 745.68 1512.93 750.34 1521.89   Q 752.30 1525.67 757.38 1532.72   Q 783.56 1569.06 809.12 1605.86   C 811.09 1608.69 813.56 1610.85 816.81 1608.57   Q 929.90 1529.55 1068.00 1433.00   Q 1071.27 1430.72 1072.65 1427.41   Q 1073.53 1425.29 1073.53 1420.48   Q 1073.50 1299.27 1073.59 1286.50   Q 1073.61 1284.58 1073.15 1282.98   A 2.46 2.46 0.0 0 0 1070.65 1281.20   C 1067.56 1281.36 1065.88 1282.84 1062.79 1285.10   Q 996.56 1333.65 900.94 1403.21   Q 899.62 1404.16 898.77 1404.19   A 2.24 2.23 89.0 0 1 896.47 1401.96   Q 895.59 1180.06 892.91 956.43   Q 892.79 946.84 892.07 943.61   C 890.63 937.14 887.25 931.07 883.45 925.80   Q 851.39 881.28 827.14 847.61   Q 824.49 843.93 820.55 844.61   Q 818.53 844.95 814.78 847.58   Q 632.58 975.00 450.33 1102.33   C 447.28 1104.47 442.65 1106.68 443.64 1109.78   C 444.36 1112.02 446.35 1114.22 447.34 1115.64   Q 520.24 1219.95 587.76 1316.51   A 1.19 1.19 0.0 0 0 589.90 1316.10   Q 590.13 1315.13 590.08 1313.89   Q 588.95 1286.31 591.82 1259.31   Q 596.50 1215.36 614.11 1175.79   C 616.62 1170.15 620.61 1162.83 622.99 1157.72   Q 623.19 1157.29 623.33 1157.74"></path>
    <path stroke="#80a1cf" vector-effect="non-scaling-stroke" d="   M 1296.19 1216.17   Q 1297.15 1214.80 1300.51 1210.00   Q 1353.88 1133.79 1369.11 1112.07   Q 1371.82 1108.21 1368.02 1105.52   Q 1238.45 1013.79 1124.01 935.39   Q 1115.85 929.80 1107.65 923.84   Q 1060.69 889.73 1043.54 877.23   Q 1015.35 856.68 1001.36 847.74   C 997.56 845.30 993.00 843.99 988.96 846.06   Q 987.54 846.79 985.05 849.95   Q 952.50 891.28 927.29 932.57   Q 924.48 937.17 922.96 942.53   Q 921.84 946.47 921.76 953.19   Q 919.54 1148.64 917.16 1347.50   Q 917.13 1350.46 917.32 1352.53   Q 917.37 1353.08 917.79 1353.44   Q 919.48 1354.90 921.51 1353.48   Q 992.94 1303.64 1064.37 1252.64   C 1070.09 1248.55 1076.17 1244.71 1076.33 1237.25   Q 1078.37 1141.15 1081.70 1058.65   C 1081.82 1055.53 1082.50 1053.06 1085.70 1052.48   Q 1087.30 1052.19 1090.27 1054.19   Q 1119.00 1073.62 1143.58 1097.15   C 1176.33 1128.50 1200.43 1167.45 1212.85 1210.93   C 1222.32 1244.10 1225.10 1279.12 1224.00 1313.25   Q 1223.97 1314.02 1224.13 1315.56   A 0.95 0.95 0.0 0 0 1225.66 1316.21   Q 1226.82 1315.30 1227.64 1314.13   Q 1264.95 1260.76 1266.09 1259.11   Q 1269.34 1254.40 1272.68 1249.74   Q 1272.79 1249.59 1296.19 1216.17"></path>
    <path stroke="#80a1cf" vector-effect="non-scaling-stroke" d="   M 854.90 409.48   C 825.79 414.40 797.47 422.48 771.30 436.02   Q 754.04 444.95 738.83 457.82   C 734.53 461.46 728.65 468.79 729.42 474.93   A 1.27 1.27 0.0 0 0 731.22 475.92   Q 733.29 474.95 734.20 474.16   C 762.67 449.51 796.21 435.40 832.58 427.85   Q 847.71 424.71 857.20 423.11   Q 866.69 421.50 882.02 419.49   C 918.85 414.66 955.16 416.96 990.15 430.87   Q 991.27 431.32 993.55 431.56   A 1.27 1.27 0.0 0 0 994.92 430.03   C 993.63 423.98 985.67 418.99 980.41 416.96   Q 961.81 409.81 942.58 407.06   C 913.41 402.87 884.01 404.56 854.90 409.48"></path>
  </g>
  <path fill="#01429e" d="   M 1657.67 1751.82   Q 1655.11 1753.43 1651.70 1754.02   Q 1651.18 1754.11 1650.85 1754.52   Q 1650.39 1755.09 1649.53 1754.88   A 0.93 0.92 27.2 0 0 1648.64 1755.16   Q 1648.06 1755.80 1646.92 1755.67   Q 1646.41 1755.61 1646.04 1755.98   L 1645.73 1756.29   Q 1645.37 1756.66 1644.89 1756.52   Q 1644.03 1756.28 1643.59 1756.81   Q 1643.29 1757.17 1642.83 1757.22   L 1641.08 1757.42   Q 1640.62 1757.47 1640.25 1757.76   Q 1639.52 1758.34 1638.02 1758.11   A 1.06 1.04 -62.7 0 0 1637.12 1758.41   L 1636.88 1758.65   A 1.10 1.08 -63.1 0 1 1635.95 1758.96   C 1634.62 1758.77 1633.70 1759.44 1632.74 1759.64   Q 1615.78 1763.26 1600.99 1764.64   C 1588.57 1765.80 1575.58 1766.27 1561.99 1766.27   Q 443.74 1766.27 204.50 1766.22   Q 178.55 1766.22 153.76 1762.23   Q 136.86 1759.51 119.26 1753.22   Q 119.10 1753.16 118.80 1753.19   Q 118.42 1753.22 118.13 1752.98   Q 116.61 1751.75 114.59 1751.52   A 1.99 1.91 -23.0 0 1 113.72 1751.19   Q 112.48 1750.33 111.24 1750.01   Q 110.02 1749.69 108.93 1749.14   C 101.64 1745.47 95.43 1742.72 89.36 1738.80   Q 69.79 1726.18 56.04 1711.29   Q 55.36 1710.55 55.18 1710.36   Q 44.45 1698.80 34.79 1683.71   Q 30.67 1677.28 30.29 1676.06   A 1.25 1.24 9.8 0 0 29.85 1675.44   Q 29.36 1675.09 28.94 1674.25   Q 26.37 1669.06 24.78 1665.83   Q 24.43 1665.13 23.47 1662.52   Q 23.14 1661.63 21.67 1659.06   A 1.39 1.31 -62.8 0 1 21.48 1658.40   Q 21.41 1656.89 20.26 1655.20   Q 20.02 1654.84 19.92 1654.42   Q 19.73 1653.55 19.67 1653.38   Q 16.44 1644.39 14.86 1637.99   Q 9.13 1614.77 7.35 1588.62   Q 6.83 1581.01 6.83 1568.61   Q 6.82 883.18 6.82 197.75   Q 6.83 174.24 12.02 146.14   Q 12.30 144.62 13.15 141.48   Q 14.12 137.84 14.17 136.79   A 1.53 1.51 64.5 0 1 14.46 135.96   L 14.74 135.56   Q 14.99 135.21 14.88 134.79   Q 14.54 133.46 15.36 132.67   A 1.07 1.06 -25.1 0 0 15.68 131.80   Q 15.66 131.55 15.64 131.41   Q 15.56 130.89 15.93 130.53   Q 16.77 129.66 16.45 128.11   Q 16.35 127.62 16.70 127.26   Q 16.78 127.18 16.94 127.02   A 0.59 0.43 87.5 0 0 17.08 126.81   L 20.52 117.27   Q 20.68 116.82 20.62 116.34   Q 20.54 115.78 21.00 115.49   Q 21.45 115.22 21.40 114.69   Q 21.31 113.70 21.58 113.32   Q 22.72 111.69 23.40 109.87   Q 24.50 106.92 24.82 106.27   Q 27.70 100.44 30.20 95.48   Q 30.74 94.39 31.82 92.94   C 32.65 91.83 32.79 90.52 33.81 89.43   Q 34.72 88.47 35.56 86.34   A 1.77 1.76 78.4 0 1 35.99 85.68   Q 36.39 85.27 36.52 85.07   Q 41.45 77.38 46.68 71.48   Q 46.85 71.30 47.00 70.81   Q 47.15 70.34 47.50 70.00   L 51.53 65.97   Q 51.86 65.63 51.98 65.18   Q 52.16 64.48 52.44 64.21   Q 56.90 59.83 64.82 51.86   C 65.55 51.12 66.37 51.18 67.02 50.51   Q 68.54 48.95 70.07 47.39   C 71.10 46.35 72.79 45.66 73.99 44.39   Q 74.73 43.60 75.47 43.07   Q 81.53 38.68 86.84 35.14   Q 88.43 34.08 88.74 33.96   Q 89.60 33.64 90.58 32.78   C 91.68 31.81 93.59 31.62 94.48 30.44   Q 94.69 30.16 94.93 30.04   Q 102.47 26.26 107.20 23.96   Q 108.10 23.52 110.89 22.43   Q 112.14 21.95 113.34 21.33   Q 114.40 20.78 115.81 20.34   Q 119.79 19.11 124.25 17.48   Q 124.72 17.31 125.21 17.31   Q 125.88 17.32 126.22 16.85   A 0.93 0.92 21.3 0 1 127.09 16.47   Q 128.26 16.62 128.74 16.02   A 0.99 0.99 0.0 0 1 129.67 15.66   Q 131.47 15.93 132.09 15.15   Q 132.44 14.72 132.99 14.81   Q 134.39 15.07 135.31 14.37   Q 135.73 14.06 136.25 14.06   C 137.53 14.06 138.67 13.56 139.56 13.35   Q 167.74 6.79 199.50 6.79   Q 883.25 6.80 1566.99 6.80   Q 1576.80 6.80 1596.49 8.16   Q 1617.01 9.57 1636.11 14.17   Q 1636.21 14.19 1637.63 14.71   Q 1638.29 14.95 1639.31 14.88   Q 1639.82 14.84 1640.18 15.20   Q 1640.81 15.81 1641.55 15.68   Q 1642.05 15.59 1642.44 15.92   Q 1643.47 16.81 1644.86 16.42   Q 1645.41 16.27 1645.75 16.74   Q 1646.27 17.48 1647.49 17.33   Q 1648.05 17.27 1648.45 17.67   L 1648.68 17.90   A 0.91 0.89 -28.0 0 0 1649.50 18.14   Q 1650.31 17.96 1650.87 18.54   Q 1651.22 18.90 1651.71 18.94   Q 1653.59 19.09 1655.27 20.38   Q 1655.68 20.70 1656.19 20.66   C 1656.78 20.62 1657.03 20.62 1657.60 21.00   C 1659.10 22.00 1660.88 22.27 1662.25 22.96   Q 1670.89 27.32 1677.22 30.45   Q 1678.28 30.98 1679.16 31.83   C 1679.70 32.35 1680.95 32.73 1682.08 33.38   Q 1688.47 37.09 1696.85 43.47   C 1698.67 44.85 1699.74 46.10 1701.35 47.02   Q 1703.15 48.04 1704.82 50.28   C 1705.24 50.84 1706.56 51.07 1707.26 51.78   Q 1713.63 58.13 1719.97 64.48   Q 1721.23 65.74 1722.42 67.54   Q 1723.07 68.50 1725.19 70.43   Q 1725.55 70.76 1725.75 71.21   Q 1726.24 72.35 1728.29 74.46   Q 1730.15 76.37 1739.63 90.79   C 1740.08 91.46 1740.58 93.20 1741.43 94.16   Q 1742.11 94.94 1742.38 95.48   Q 1748.17 107.07 1750.44 111.54   C 1750.75 112.17 1750.63 113.08 1750.94 113.51   Q 1751.93 114.87 1752.23 116.12   Q 1752.61 117.69 1753.23 118.74   Q 1754.07 120.15 1754.07 121.53   Q 1754.07 121.76 1754.25 121.90   Q 1754.37 122.00 1754.46 122.24   Q 1760.74 140.32 1763.54 161.69   Q 1763.55 161.78 1763.89 166.34   Q 1764.09 168.97 1764.34 169.84   C 1765.20 172.87 1764.45 176.46 1765.02 179.00   Q 1765.75 182.23 1765.60 184.61   C 1765.36 188.14 1766.27 193.31 1766.25 197.21   Q 1765.94 255.72 1766.46 1558.50   Q 1766.47 1580.71 1764.10 1604.96   Q 1762.11 1625.37 1756.53 1644.50   Q 1755.77 1647.11 1755.01 1649.08   Q 1754.87 1649.44 1754.89 1649.84   Q 1754.92 1650.47 1754.44 1650.95   Q 1754.09 1651.30 1754.06 1651.79   Q 1753.96 1653.26 1752.78 1655.05   A 2.22 2.18 66.2 0 0 1752.44 1655.95   C 1752.19 1657.61 1750.82 1659.01 1750.72 1660.46   Q 1750.68 1660.99 1750.47 1661.40   Q 1746.09 1670.08 1742.46 1677.41   Q 1742.09 1678.15 1741.34 1678.93   C 1740.68 1679.61 1740.55 1680.61 1740.15 1681.29   Q 1733.40 1692.71 1722.45 1705.69   Q 1721.50 1706.82 1721.41 1706.91   Q 1717.26 1711.29 1707.54 1720.96   Q 1706.37 1722.13 1704.97 1723.02   C 1703.68 1723.84 1702.81 1724.96 1701.63 1725.92   Q 1684.89 1739.60 1665.47 1748.83   Q 1663.52 1749.76 1662.55 1750.05   Q 1660.62 1750.63 1659.73 1751.39   A 1.12 1.12 0.0 0 1 1658.82 1751.63   Q 1658.55 1751.58 1658.19 1751.62   Q 1657.93 1751.65 1657.67 1751.82   Z   M 453.57 545.39   Q 454.36 544.10 455.16 541.98   Q 455.59 540.83 458.90 535.42   C 459.20 534.94 459.11 534.48 459.33 534.07   Q 463.70 526.12 473.04 510.40   Q 475.85 505.69 477.88 503.17   Q 478.12 502.87 478.37 501.97   Q 478.51 501.48 478.82 501.08   Q 480.70 498.65 481.69 497.08   Q 484.25 493.02 484.28 492.98   Q 527.18 429.36 587.29 380.79   Q 629.54 346.64 677.89 320.90   Q 685.72 316.73 692.08 313.75   Q 694.70 312.52 697.04 311.26   Q 700.63 309.32 702.00 308.75   Q 706.59 306.87 712.26 304.02   Q 712.48 303.91 712.73 303.90   C 713.24 303.88 713.41 303.91 713.93 303.64   Q 716.26 302.44 723.82 299.28   Q 731.41 296.11 739.10 293.09   Q 743.20 291.47 749.59 289.31   Q 754.56 287.62 760.08 285.50   Q 760.62 285.29 762.21 284.77   Q 796.91 273.40 832.05 267.08   Q 923.87 250.56 1014.12 269.42   Q 1082.50 283.70 1142.21 313.14   C 1217.21 350.12 1280.24 405.14 1329.40 472.89   Q 1335.59 481.41 1340.73 489.29   Q 1361.69 521.44 1380.11 559.53   Q 1383.71 566.97 1384.67 569.11   Q 1402.19 608.42 1411.79 649.44   Q 1421.61 691.44 1427.30 736.62   Q 1428.98 749.94 1429.27 756.60   Q 1430.05 774.47 1428.39 795.79   Q 1424.20 849.62 1413.28 892.55   Q 1413.08 893.33 1413.22 893.91   A 0.60 0.60 0.0 0 0 1414.29 894.12   C 1418.49 888.23 1421.62 880.69 1423.98 873.21   C 1436.76 832.75 1444.70 791.27 1446.72 749.54   C 1448.78 706.96 1445.74 663.93 1436.81 622.28   Q 1429.40 587.71 1416.62 552.15   Q 1383.91 461.12 1326.11 384.17   C 1295.32 343.18 1261.78 305.04 1222.70 272.92   C 1143.48 207.82 1043.96 171.03 941.79 164.44   C 911.99 162.52 882.49 162.90 853.58 166.94   C 800.01 174.45 749.64 182.69 700.54 202.02   C 568.65 253.96 458.27 349.95 391.69 475.47   C 343.65 566.02 322.24 666.65 328.70 769.70   Q 330.47 797.88 336.82 825.32   Q 339.66 837.56 341.74 842.44   Q 343.34 846.21 347.29 844.79   Q 363.88 838.82 379.49 829.73   C 389.35 823.99 399.42 816.33 401.41 804.49   Q 401.87 801.75 401.63 795.50   Q 400.91 776.62 400.64 763.03   Q 399.59 710.15 411.67 658.18   Q 425.12 600.37 452.32 547.44   Q 452.34 547.42 453.57 545.39   Z   M 730.94 508.45   C 732.27 509.92 733.94 513.49 734.20 515.11   Q 736.04 526.42 738.06 537.69   C 738.62 540.79 738.66 542.95 742.05 543.11   Q 743.75 543.18 744.74 541.78   C 776.65 496.51 826.58 466.82 881.53 461.71   Q 946.98 455.63 1003.03 492.05   Q 1004.64 493.10 1005.86 492.41   A 2.09 2.08 71.2 0 0 1006.89 490.30   Q 1004.98 477.29 1003.90 466.42   Q 1003.17 459.02 1008.65 453.64   Q 1018.47 444.01 1026.21 437.22   Q 1030.69 433.29 1033.23 431.73   Q 1036.08 429.97 1037.28 432.80   Q 1043.15 446.70 1042.26 461.42   C 1041.99 465.84 1040.32 473.49 1040.36 478.81   C 1040.40 483.17 1042.17 486.97 1046.79 488.08   C 1053.64 489.74 1060.03 487.47 1062.16 480.47   Q 1062.86 478.16 1062.87 478.03   Q 1062.91 475.85 1062.64 475.44   Q 1047.94 453.18 1047.15 426.61   C 1047.05 423.33 1047.63 419.71 1050.17 417.91   Q 1062.02 409.52 1080.14 396.90   C 1082.59 395.20 1081.52 392.70 1079.16 391.49   Q 1073.37 388.50 1069.32 387.17   Q 956.05 350.15 846.57 313.09   C 843.30 311.98 840.69 310.65 837.16 311.38   Q 834.60 311.91 830.44 315.13   Q 762.10 368.11 635.53 466.76   C 634.33 467.71 633.78 469.64 635.50 470.39   Q 636.58 470.86 636.80 470.94   Q 678.22 486.54 724.65 504.10   Q 728.20 505.44 730.94 508.45   Z   M 957.68 793.30   C 959.77 792.41 961.67 790.44 963.50 789.12   Q 966.29 787.12 967.74 785.78   Q 977.09 777.18 981.36 771.92   Q 983.44 769.36 989.69 760.24   C 990.88 758.52 991.86 755.77 992.69 754.44   A 1.12 0.99 -77.8 0 0 991.73 752.74   C 990.42 753.04 988.60 753.82 987.27 754.82   Q 982.44 758.49 978.61 761.63   Q 972.72 766.47 969.92 768.39   C 935.84 791.82 888.95 795.93 851.11 779.53   C 827.60 769.35 805.10 754.01 788.67 734.39   C 759.92 700.10 751.93 658.87 762.84 615.18   Q 769.96 586.70 786.23 562.24   Q 802.71 537.49 826.37 521.38   Q 843.90 509.45 862.92 503.45   Q 895.83 493.07 930.07 499.44   C 950.25 503.19 969.79 510.80 989.54 518.82   C 991.74 519.71 993.78 519.77 995.29 517.93   Q 995.61 517.54 995.55 517.05   Q 995.31 515.14 993.82 513.74   C 976.92 497.81 955.44 488.16 932.56 482.81   Q 889.37 472.71 847.63 484.52   C 790.31 500.74 746.40 549.02 733.39 607.11   Q 720.06 666.58 745.99 721.32   Q 763.73 758.76 798.11 782.63   Q 800.79 784.49 813.97 792.07   C 816.60 793.58 819.12 794.27 821.73 795.63   Q 823.86 796.74 827.49 798.05   Q 829.90 798.92 839.47 802.59   C 840.51 802.99 841.44 802.73 842.30 802.99   Q 851.50 805.85 859.87 807.19   Q 876.50 809.85 883.30 810.53   Q 919.15 814.12 951.04 797.48   Q 953.77 796.06 956.22 794.20   Q 957.04 793.58 957.68 793.30   Z   M 1047.78 493.93   A 4.53 4.53 0.0 0 0 1044.06 498.90   L 1049.16 544.35   A 4.53 4.53 0.0 0 0 1055.93 547.77   L 1070.79 539.18   A 4.53 4.53 0.0 0 0 1072.99 534.48   L 1066.15 495.32   A 4.53 4.53 0.0 0 0 1060.91 491.64   L 1047.78 493.93   Z   M 1069.96 712.91   Q 1069.97 712.92 1069.98 712.94   Q 1070.02 712.99 1070.03 712.94   Q 1078.73 683.77 1078.63 653.49   C 1078.57 634.39 1074.92 615.91 1067.84 598.16   C 1062.38 584.48 1054.63 571.16 1044.18 561.14   A 1.11 1.11 0.0 0 0 1042.32 561.73   C 1041.46 566.08 1042.36 570.03 1044.07 574.66   C 1051.50 594.70 1057.88 612.75 1059.81 632.55   Q 1060.65 641.10 1059.51 652.49   Q 1056.30 684.57 1044.56 715.00   Q 1040.73 724.94 1036.25 733.18   Q 1018.92 765.07 991.83 786.80   Q 987.80 790.03 987.71 790.12   Q 987.22 790.58 985.77 791.25   C 984.20 791.96 982.72 793.61 981.18 794.50   Q 971.12 800.31 959.63 805.90   C 959.21 806.11 958.60 806.11 958.09 806.35   C 944.15 813.10 929.76 815.78 913.81 817.08   Q 884.96 819.42 856.96 813.08   C 853.29 812.25 848.03 810.08 843.51 809.50   C 840.77 809.15 836.95 806.79 833.62 805.88   Q 826.94 804.04 821.28 800.72   A 0.30 0.30 0.0 0 0 821.13 800.68   L 819.95 800.63   Q 819.49 800.61 819.10 800.38   Q 814.85 797.94 812.11 796.74   Q 808.27 795.05 804.83 793.26   Q 793.59 787.40 777.99 779.88   Q 777.44 779.62 777.06 779.66   Q 776.16 779.75 775.91 780.80   A 1.21 1.19 -61.9 0 0 776.24 781.91   Q 787.07 792.41 799.50 800.79   Q 816.86 812.49 836.19 820.81   Q 861.62 831.76 887.26 835.01   Q 922.03 839.43 954.52 828.81   Q 962.83 826.10 973.00 821.25   Q 990.55 812.87 1006.01 801.52   Q 1025.97 786.87 1040.76 768.86   Q 1046.70 761.62 1051.66 753.72   Q 1057.40 744.59 1060.89 737.49   Q 1061.06 737.14 1061.77 735.49   Q 1067.09 723.04 1069.92 712.92   Q 1069.94 712.87 1069.96 712.91   Z   M 944.29 616.31   C 962.15 627.16 982.04 633.60 1002.88 628.51   A 1.95 1.95 0.0 0 0 1004.01 625.49   Q 1001.46 621.87 997.28 619.95   Q 995.99 619.36 976.45 611.86   Q 964.54 607.29 953.76 600.74   Q 942.97 594.18 933.43 585.72   Q 917.78 571.83 916.66 570.95   Q 913.03 568.13 908.64 567.53   A 1.95 1.95 0.0 0 0 906.49 569.93   C 911.56 590.77 926.44 605.46 944.29 616.31   Z   M 1027.27 689.05   C 1004.50 685.52 982.07 679.67 961.17 669.61   Q 913.38 646.62 871.16 610.26   Q 856.92 597.99 848.39 590.09   C 845.62 587.52 843.45 585.98 840.36 584.59   A 2.29 2.18 29.7 0 0 837.62 585.27   Q 837.45 585.50 837.63 586.25   Q 837.76 586.79 837.96 587.14   Q 883.77 665.58 970.91 688.83   Q 991.19 694.25 1013.15 696.14   C 1017.03 696.47 1030.58 697.22 1032.51 694.51   Q 1034.04 692.37 1032.85 690.81   C 1031.70 689.32 1029.31 689.37 1027.27 689.05   Z   M 978.41 731.93   Q 992.39 734.00 1005.83 733.42   Q 1007.40 733.36 1008.79 732.24   A 1.80 1.80 0.0 0 0 1009.11 729.78   C 1007.88 728.09 1006.48 727.15 1004.35 726.59   C 978.98 719.94 951.84 712.01 927.90 701.50   C 914.62 695.67 903.96 689.42 891.55 681.59   Q 851.12 656.08 817.92 622.30   C 815.23 619.57 810.84 615.36 807.27 613.71   A 1.52 1.52 0.0 0 0 805.18 615.53   Q 810.36 632.61 820.66 648.01   C 842.46 680.59 877.17 703.33 913.45 716.05   Q 944.48 726.93 978.41 731.93   Z   M 623.33 1157.74   Q 623.38 1157.92 623.37 1158.13   Q 623.38 1158.12 623.38 1158.13   Q 623.44 1158.05 623.23 1157.86   Q 623.12 1157.76 623.19 1157.64   L 628.15 1149.34   Q 628.35 1149.01 628.48 1148.65   Q 628.54 1148.47 628.61 1148.35   Q 649.54 1114.29 680.48 1087.73   Q 700.22 1070.79 723.98 1054.72   C 726.50 1053.02 733.11 1051.33 733.23 1056.29   Q 741.82 1411.73 743.90 1493.25   C 744.15 1503.28 745.68 1512.93 750.34 1521.89   Q 752.30 1525.67 757.38 1532.72   Q 783.56 1569.06 809.12 1605.86   C 811.09 1608.69 813.56 1610.85 816.81 1608.57   Q 929.90 1529.55 1068.00 1433.00   Q 1071.27 1430.72 1072.65 1427.41   Q 1073.53 1425.29 1073.53 1420.48   Q 1073.50 1299.27 1073.59 1286.50   Q 1073.61 1284.58 1073.15 1282.98   A 2.46 2.46 0.0 0 0 1070.65 1281.20   C 1067.56 1281.36 1065.88 1282.84 1062.79 1285.10   Q 996.56 1333.65 900.94 1403.21   Q 899.62 1404.16 898.77 1404.19   A 2.24 2.23 89.0 0 1 896.47 1401.96   Q 895.59 1180.06 892.91 956.43   Q 892.79 946.84 892.07 943.61   C 890.63 937.14 887.25 931.07 883.45 925.80   Q 851.39 881.28 827.14 847.61   Q 824.49 843.93 820.55 844.61   Q 818.53 844.95 814.78 847.58   Q 632.58 975.00 450.33 1102.33   C 447.28 1104.47 442.65 1106.68 443.64 1109.78   C 444.36 1112.02 446.35 1114.22 447.34 1115.64   Q 520.24 1219.95 587.76 1316.51   A 1.19 1.19 0.0 0 0 589.90 1316.10   Q 590.13 1315.13 590.08 1313.89   Q 588.95 1286.31 591.82 1259.31   Q 596.50 1215.36 614.11 1175.79   C 616.62 1170.15 620.61 1162.83 622.99 1157.72   Q 623.19 1157.29 623.33 1157.74   Z   M 1296.19 1216.17   Q 1297.15 1214.80 1300.51 1210.00   Q 1353.88 1133.79 1369.11 1112.07   Q 1371.82 1108.21 1368.02 1105.52   Q 1238.45 1013.79 1124.01 935.39   Q 1115.85 929.80 1107.65 923.84   Q 1060.69 889.73 1043.54 877.23   Q 1015.35 856.68 1001.36 847.74   C 997.56 845.30 993.00 843.99 988.96 846.06   Q 987.54 846.79 985.05 849.95   Q 952.50 891.28 927.29 932.57   Q 924.48 937.17 922.96 942.53   Q 921.84 946.47 921.76 953.19   Q 919.54 1148.64 917.16 1347.50   Q 917.13 1350.46 917.32 1352.53   Q 917.37 1353.08 917.79 1353.44   Q 919.48 1354.90 921.51 1353.48   Q 992.94 1303.64 1064.37 1252.64   C 1070.09 1248.55 1076.17 1244.71 1076.33 1237.25   Q 1078.37 1141.15 1081.70 1058.65   C 1081.82 1055.53 1082.50 1053.06 1085.70 1052.48   Q 1087.30 1052.19 1090.27 1054.19   Q 1119.00 1073.62 1143.58 1097.15   C 1176.33 1128.50 1200.43 1167.45 1212.85 1210.93   C 1222.32 1244.10 1225.10 1279.12 1224.00 1313.25   Q 1223.97 1314.02 1224.13 1315.56   A 0.95 0.95 0.0 0 0 1225.66 1316.21   Q 1226.82 1315.30 1227.64 1314.13   Q 1264.95 1260.76 1266.09 1259.11   Q 1269.34 1254.40 1272.68 1249.74   Q 1272.79 1249.59 1296.19 1216.17   Z"></path>
  <path fill="#ffffff" d="   M 452.32 547.44   Q 425.12 600.37 411.67 658.18   Q 399.59 710.15 400.64 763.03   Q 400.91 776.62 401.63 795.50   Q 401.87 801.75 401.41 804.49   C 399.42 816.33 389.35 823.99 379.49 829.73   Q 363.88 838.82 347.29 844.79   Q 343.34 846.21 341.74 842.44   Q 339.66 837.56 336.82 825.32   Q 330.47 797.88 328.70 769.70   C 322.24 666.65 343.65 566.02 391.69 475.47   C 458.27 349.95 568.65 253.96 700.54 202.02   C 749.64 182.69 800.01 174.45 853.58 166.94   C 882.49 162.90 911.99 162.52 941.79 164.44   C 1043.96 171.03 1143.48 207.82 1222.70 272.92   C 1261.78 305.04 1295.32 343.18 1326.11 384.17   Q 1383.91 461.12 1416.62 552.15   Q 1429.40 587.71 1436.81 622.28   C 1445.74 663.93 1448.78 706.96 1446.72 749.54   C 1444.70 791.27 1436.76 832.75 1423.98 873.21   C 1421.62 880.69 1418.49 888.23 1414.29 894.12   A 0.60 0.60 0.0 0 1 1413.22 893.91   Q 1413.08 893.33 1413.28 892.55   Q 1424.20 849.62 1428.39 795.79   Q 1430.05 774.47 1429.27 756.60   Q 1428.98 749.94 1427.30 736.62   Q 1421.61 691.44 1411.79 649.44   Q 1402.19 608.42 1384.67 569.11   Q 1383.71 566.97 1380.11 559.53   Q 1361.69 521.44 1340.73 489.29   Q 1335.59 481.41 1329.40 472.89   C 1280.24 405.14 1217.21 350.12 1142.21 313.14   Q 1082.50 283.70 1014.12 269.42   Q 923.87 250.56 832.05 267.08   Q 796.91 273.40 762.21 284.77   Q 760.62 285.29 760.08 285.50   Q 754.56 287.62 749.59 289.31   Q 743.20 291.47 739.10 293.09   Q 731.41 296.11 723.82 299.28   Q 716.26 302.44 713.93 303.64   C 713.41 303.91 713.24 303.88 712.73 303.90   Q 712.48 303.91 712.26 304.02   Q 706.59 306.87 702.00 308.75   Q 700.63 309.32 697.04 311.26   Q 694.70 312.52 692.08 313.75   Q 685.72 316.73 677.89 320.90   Q 629.54 346.64 587.29 380.79   Q 527.18 429.36 484.28 492.98   Q 484.25 493.02 481.69 497.08   Q 480.70 498.65 478.82 501.08   Q 478.51 501.48 478.37 501.97   Q 478.12 502.87 477.88 503.17   Q 475.85 505.69 473.04 510.40   Q 463.70 526.12 459.33 534.07   C 459.11 534.48 459.20 534.94 458.90 535.42   Q 455.59 540.83 455.16 541.98   Q 454.36 544.10 453.57 545.39   Q 452.34 547.42 452.32 547.44   Z"></path>
  <path fill="#ffffff" d="   M 730.94 508.45   Q 728.20 505.44 724.65 504.10   Q 678.22 486.54 636.80 470.94   Q 636.58 470.86 635.50 470.39   C 633.78 469.64 634.33 467.71 635.53 466.76   Q 762.10 368.11 830.44 315.13   Q 834.60 311.91 837.16 311.38   C 840.69 310.65 843.30 311.98 846.57 313.09   Q 956.05 350.15 1069.32 387.17   Q 1073.37 388.50 1079.16 391.49   C 1081.52 392.70 1082.59 395.20 1080.14 396.90   Q 1062.02 409.52 1050.17 417.91   C 1047.63 419.71 1047.05 423.33 1047.15 426.61   Q 1047.94 453.18 1062.64 475.44   Q 1062.91 475.85 1062.87 478.03   Q 1062.86 478.16 1062.16 480.47   C 1060.03 487.47 1053.64 489.74 1046.79 488.08   C 1042.17 486.97 1040.40 483.17 1040.36 478.81   C 1040.32 473.49 1041.99 465.84 1042.26 461.42   Q 1043.15 446.70 1037.28 432.80   Q 1036.08 429.97 1033.23 431.73   Q 1030.69 433.29 1026.21 437.22   Q 1018.47 444.01 1008.65 453.64   Q 1003.17 459.02 1003.90 466.42   Q 1004.98 477.29 1006.89 490.30   A 2.09 2.08 71.2 0 1 1005.86 492.41   Q 1004.64 493.10 1003.03 492.05   Q 946.98 455.63 881.53 461.71   C 826.58 466.82 776.65 496.51 744.74 541.78   Q 743.75 543.18 742.05 543.11   C 738.66 542.95 738.62 540.79 738.06 537.69   Q 736.04 526.42 734.20 515.11   C 733.94 513.49 732.27 509.92 730.94 508.45   Z   M 854.90 409.48   C 825.79 414.40 797.47 422.48 771.30 436.02   Q 754.04 444.95 738.83 457.82   C 734.53 461.46 728.65 468.79 729.42 474.93   A 1.27 1.27 0.0 0 0 731.22 475.92   Q 733.29 474.95 734.20 474.16   C 762.67 449.51 796.21 435.40 832.58 427.85   Q 847.71 424.71 857.20 423.11   Q 866.69 421.50 882.02 419.49   C 918.85 414.66 955.16 416.96 990.15 430.87   Q 991.27 431.32 993.55 431.56   A 1.27 1.27 0.0 0 0 994.92 430.03   C 993.63 423.98 985.67 418.99 980.41 416.96   Q 961.81 409.81 942.58 407.06   C 913.41 402.87 884.01 404.56 854.90 409.48   Z"></path>
  <path fill="#01429e" d="   M 857.20 423.11   Q 847.71 424.71 832.58 427.85   C 796.21 435.40 762.67 449.51 734.20 474.16   Q 733.29 474.95 731.22 475.92   A 1.27 1.27 0.0 0 1 729.42 474.93   C 728.65 468.79 734.53 461.46 738.83 457.82   Q 754.04 444.95 771.30 436.02   C 797.47 422.48 825.79 414.40 854.90 409.48   C 884.01 404.56 913.41 402.87 942.58 407.06   Q 961.81 409.81 980.41 416.96   C 985.67 418.99 993.63 423.98 994.92 430.03   A 1.27 1.27 0.0 0 1 993.55 431.56   Q 991.27 431.32 990.15 430.87   C 955.16 416.96 918.85 414.66 882.02 419.49   Q 866.69 421.50 857.20 423.11   Z"></path>
  <path fill="#ffffff" d="   M 956.22 794.20   Q 953.77 796.06 951.04 797.48   Q 919.15 814.12 883.30 810.53   Q 876.50 809.85 859.87 807.19   Q 851.50 805.85 842.30 802.99   C 841.44 802.73 840.51 802.99 839.47 802.59   Q 829.90 798.92 827.49 798.05   Q 823.86 796.74 821.73 795.63   C 819.12 794.27 816.60 793.58 813.97 792.07   Q 800.79 784.49 798.11 782.63   Q 763.73 758.76 745.99 721.32   Q 720.06 666.58 733.39 607.11   C 746.40 549.02 790.31 500.74 847.63 484.52   Q 889.37 472.71 932.56 482.81   C 955.44 488.16 976.92 497.81 993.82 513.74   Q 995.31 515.14 995.55 517.05   Q 995.61 517.54 995.29 517.93   C 993.78 519.77 991.74 519.71 989.54 518.82   C 969.79 510.80 950.25 503.19 930.07 499.44   Q 895.83 493.07 862.92 503.45   Q 843.90 509.45 826.37 521.38   Q 802.71 537.49 786.23 562.24   Q 769.96 586.70 762.84 615.18   C 751.93 658.87 759.92 700.10 788.67 734.39   C 805.10 754.01 827.60 769.35 851.11 779.53   C 888.95 795.93 935.84 791.82 969.92 768.39   Q 972.72 766.47 978.61 761.63   Q 982.44 758.49 987.27 754.82   C 988.60 753.82 990.42 753.04 991.73 752.74   A 1.12 0.99 -77.8 0 1 992.69 754.44   C 991.86 755.77 990.88 758.52 989.69 760.24   Q 983.44 769.36 981.36 771.92   Q 977.09 777.18 967.74 785.78   Q 966.29 787.12 963.50 789.12   C 961.67 790.44 959.77 792.41 957.68 793.30   Q 957.04 793.58 956.22 794.20   Z"></path>
  <path fill="#ffffff" d="   M 1047.78 493.93   L 1060.91 491.64   A 4.53 4.53 0.0 0 1 1066.15 495.32   L 1072.99 534.48   A 4.53 4.53 0.0 0 1 1070.79 539.18   L 1055.93 547.77   A 4.53 4.53 0.0 0 1 1049.16 544.35   L 1044.06 498.90   A 4.53 4.53 0.0 0 1 1047.78 493.93   Z"></path>
  <path fill="#ffffff" d="   M 1069.92 712.92   Q 1067.09 723.04 1061.77 735.49   Q 1061.06 737.14 1060.89 737.49   Q 1057.40 744.59 1051.66 753.72   Q 1046.70 761.62 1040.76 768.86   Q 1025.97 786.87 1006.01 801.52   Q 990.55 812.87 973.00 821.25   Q 962.83 826.10 954.52 828.81   Q 922.03 839.43 887.26 835.01   Q 861.62 831.76 836.19 820.81   Q 816.86 812.49 799.50 800.79   Q 787.07 792.41 776.24 781.91   A 1.21 1.19 -61.9 0 1 775.91 780.80   Q 776.16 779.75 777.06 779.66   Q 777.44 779.62 777.99 779.88   Q 793.59 787.40 804.83 793.26   Q 808.27 795.05 812.11 796.74   Q 814.85 797.94 819.10 800.38   Q 819.49 800.61 819.95 800.63   L 821.13 800.68   A 0.30 0.30 0.0 0 1 821.28 800.72   Q 826.94 804.04 833.62 805.88   C 836.95 806.79 840.77 809.15 843.51 809.50   C 848.03 810.08 853.29 812.25 856.96 813.08   Q 884.96 819.42 913.81 817.08   C 929.76 815.78 944.15 813.10 958.09 806.35   C 958.60 806.11 959.21 806.11 959.63 805.90   Q 971.12 800.31 981.18 794.50   C 982.72 793.61 984.20 791.96 985.77 791.25   Q 987.22 790.58 987.71 790.12   Q 987.80 790.03 991.83 786.80   Q 1018.92 765.07 1036.25 733.18   Q 1040.73 724.94 1044.56 715.00   Q 1056.30 684.57 1059.51 652.49   Q 1060.65 641.10 1059.81 632.55   C 1057.88 612.75 1051.50 594.70 1044.07 574.66   C 1042.36 570.03 1041.46 566.08 1042.32 561.73   A 1.11 1.11 0.0 0 1 1044.18 561.14   C 1054.63 571.16 1062.38 584.48 1067.84 598.16   C 1074.92 615.91 1078.57 634.39 1078.63 653.49   Q 1078.73 683.77 1070.03 712.94   Q 1070.02 712.99 1069.98 712.94   Q 1069.97 712.92 1069.96 712.91   Q 1069.94 712.87 1069.92 712.92   Z"></path>
  <path fill="#ffffff" d="   M 953.76 600.74   Q 964.54 607.29 976.45 611.86   Q 995.99 619.36 997.28 619.95   Q 1001.46 621.87 1004.01 625.49   A 1.95 1.95 0.0 0 1 1002.88 628.51   C 982.04 633.60 962.15 627.16 944.29 616.31   C 926.44 605.46 911.56 590.77 906.49 569.93   A 1.95 1.95 0.0 0 1 908.64 567.53   Q 913.03 568.13 916.66 570.95   Q 917.78 571.83 933.43 585.72   Q 942.97 594.18 953.76 600.74   Z"></path>
  <path fill="#ffffff" d="   M 1027.27 689.05   C 1029.31 689.37 1031.70 689.32 1032.85 690.81   Q 1034.04 692.37 1032.51 694.51   C 1030.58 697.22 1017.03 696.47 1013.15 696.14   Q 991.19 694.25 970.91 688.83   Q 883.77 665.58 837.96 587.14   Q 837.76 586.79 837.63 586.25   Q 837.45 585.50 837.62 585.27   A 2.29 2.18 29.7 0 1 840.36 584.59   C 843.45 585.98 845.62 587.52 848.39 590.09   Q 856.92 597.99 871.16 610.26   Q 913.38 646.62 961.17 669.61   C 982.07 679.67 1004.50 685.52 1027.27 689.05   Z"></path>
  <path fill="#ffffff" d="   M 978.41 731.93   Q 944.48 726.93 913.45 716.05   C 877.17 703.33 842.46 680.59 820.66 648.01   Q 810.36 632.61 805.18 615.53   A 1.52 1.52 0.0 0 1 807.27 613.71   C 810.84 615.36 815.23 619.57 817.92 622.30   Q 851.12 656.08 891.55 681.59   C 903.96 689.42 914.62 695.67 927.90 701.50   C 951.84 712.01 978.98 719.94 1004.35 726.59   C 1006.48 727.15 1007.88 728.09 1009.11 729.78   A 1.80 1.80 0.0 0 1 1008.79 732.24   Q 1007.40 733.36 1005.83 733.42   Q 992.39 734.00 978.41 731.93   Z"></path>
  <path fill="#ffffff" d="   M 622.99 1157.72   C 620.61 1162.83 616.62 1170.15 614.11 1175.79   Q 596.50 1215.36 591.82 1259.31   Q 588.95 1286.31 590.08 1313.89   Q 590.13 1315.13 589.90 1316.10   A 1.19 1.19 0.0 0 1 587.76 1316.51   Q 520.24 1219.95 447.34 1115.64   C 446.35 1114.22 444.36 1112.02 443.64 1109.78   C 442.65 1106.68 447.28 1104.47 450.33 1102.33   Q 632.58 975.00 814.78 847.58   Q 818.53 844.95 820.55 844.61   Q 824.49 843.93 827.14 847.61   Q 851.39 881.28 883.45 925.80   C 887.25 931.07 890.63 937.14 892.07 943.61   Q 892.79 946.84 892.91 956.43   Q 895.59 1180.06 896.47 1401.96   A 2.24 2.23 89.0 0 0 898.77 1404.19   Q 899.62 1404.16 900.94 1403.21   Q 996.56 1333.65 1062.79 1285.10   C 1065.88 1282.84 1067.56 1281.36 1070.65 1281.20   A 2.46 2.46 0.0 0 1 1073.15 1282.98   Q 1073.61 1284.58 1073.59 1286.50   Q 1073.50 1299.27 1073.53 1420.48   Q 1073.53 1425.29 1072.65 1427.41   Q 1071.27 1430.72 1068.00 1433.00   Q 929.90 1529.55 816.81 1608.57   C 813.56 1610.85 811.09 1608.69 809.12 1605.86   Q 783.56 1569.06 757.38 1532.72   Q 752.30 1525.67 750.34 1521.89   C 745.68 1512.93 744.15 1503.28 743.90 1493.25   Q 741.82 1411.73 733.23 1056.29   C 733.11 1051.33 726.50 1053.02 723.98 1054.72   Q 700.22 1070.79 680.48 1087.73   Q 649.54 1114.29 628.61 1148.35   Q 628.54 1148.47 628.48 1148.65   Q 628.35 1149.01 628.15 1149.34   L 623.19 1157.64   Q 623.12 1157.76 623.23 1157.86   Q 623.44 1158.05 623.38 1158.13   Q 623.38 1158.12 623.37 1158.13   Q 623.38 1157.92 623.33 1157.74   Q 623.19 1157.29 622.99 1157.72   Z"></path>
  <path fill="#ffffff" d="   M 1296.19 1216.17   Q 1272.79 1249.59 1272.68 1249.74   Q 1269.34 1254.40 1266.09 1259.11   Q 1264.95 1260.76 1227.64 1314.13   Q 1226.82 1315.30 1225.66 1316.21   A 0.95 0.95 0.0 0 1 1224.13 1315.56   Q 1223.97 1314.02 1224.00 1313.25   C 1225.10 1279.12 1222.32 1244.10 1212.85 1210.93   C 1200.43 1167.45 1176.33 1128.50 1143.58 1097.15   Q 1119.00 1073.62 1090.27 1054.19   Q 1087.30 1052.19 1085.70 1052.48   C 1082.50 1053.06 1081.82 1055.53 1081.70 1058.65   Q 1078.37 1141.15 1076.33 1237.25   C 1076.17 1244.71 1070.09 1248.55 1064.37 1252.64   Q 992.94 1303.64 921.51 1353.48   Q 919.48 1354.90 917.79 1353.44   Q 917.37 1353.08 917.32 1352.53   Q 917.13 1350.46 917.16 1347.50   Q 919.54 1148.64 921.76 953.19   Q 921.84 946.47 922.96 942.53   Q 924.48 937.17 927.29 932.57   Q 952.50 891.28 985.05 849.95   Q 987.54 846.79 988.96 846.06   C 993.00 843.99 997.56 845.30 1001.36 847.74   Q 1015.35 856.68 1043.54 877.23   Q 1060.69 889.73 1107.65 923.84   Q 1115.85 929.80 1124.01 935.39   Q 1238.45 1013.79 1368.02 1105.52   Q 1371.82 1108.21 1369.11 1112.07   Q 1353.88 1133.79 1300.51 1210.00   Q 1297.15 1214.80 1296.19 1216.17   Z"></path>
</svg>
